<svg width="185" height="141" viewBox="0 0 185 141" fill="none" xmlns="http://www.w3.org/2000/svg">
<path d="M2.03408 71.7402C1.11928 67.5069 3.86661 63.3458 8.17042 62.446L47.9134 54.1368C52.2172 53.237 56.4477 55.9393 57.3625 60.1726C58.2773 64.4058 55.53 68.567 51.2261 69.4668L11.4832 77.7759C7.1794 78.6757 2.94888 75.9734 2.03408 71.7402Z" fill="white"/>
<path d="M64.3761 58.706C63.4613 54.4727 66.2087 50.3116 70.5125 49.4118L110.255 41.1027C114.559 40.2029 118.79 42.9051 119.705 47.1384C120.619 51.3716 117.872 55.5328 113.568 56.4326L73.8253 64.7417C69.5214 65.6415 65.2909 62.9392 64.3761 58.706Z" fill="white"/>
<path d="M126.718 45.6718C125.803 41.4386 128.55 37.2774 132.854 36.3776L172.597 28.0685C176.901 27.1687 181.132 29.871 182.046 34.1042C182.961 38.3375 180.214 42.4986 175.91 43.3984L136.167 51.7075C131.863 52.6073 127.633 49.905 126.718 45.6718Z" fill="white"/>
<path d="M23.2666 19.2323C22.3518 14.9991 25.0992 10.8379 29.403 9.93814L69.1459 1.62903C73.4497 0.729222 77.6802 3.43151 78.595 7.66475C79.5098 11.898 76.7625 16.0592 72.4587 16.959L32.7158 25.2681C28.4119 26.1679 24.1814 23.4656 23.2666 19.2323Z" fill="white"/>
<path d="M59.407 35.7109C58.4922 31.4776 61.2395 27.3165 65.5433 26.4167L96.7143 19.8997C101.018 18.9999 105.249 21.7022 106.163 25.9354C107.078 30.1687 104.331 34.3298 100.027 35.2296L68.8561 41.7466C64.5523 42.6464 60.3218 39.9441 59.407 35.7109Z" fill="white"/>
<path d="M108.309 73.5546C107.394 69.3214 110.142 65.1602 114.446 64.2604L145.616 57.7435C149.92 56.8436 154.151 59.5459 155.066 63.7792C155.98 68.0124 153.233 72.1736 148.929 73.0734L117.758 79.5903C113.454 80.4901 109.224 77.7879 108.309 73.5546Z" fill="white"/>
<path d="M69.3456 81.7011C68.4308 77.4679 71.1781 73.3067 75.4819 72.4069L91.0674 69.1484C95.3712 68.2486 99.6017 70.9509 100.517 75.1841C101.431 79.4174 98.684 83.5785 94.3802 84.4784L78.7947 87.7368C74.4909 88.6366 70.2604 85.9343 69.3456 81.7011Z" fill="white"/>
<path d="M10.994 37.8212C10.0792 33.588 12.8265 29.4268 17.1303 28.527C21.4341 27.6272 25.6646 30.3295 26.5794 34.5627C27.4943 38.796 24.7469 42.9571 20.4431 43.8569C16.1393 44.7567 11.9088 42.0545 10.994 37.8212Z" fill="white"/>
<path d="M144.449 90.0322C143.535 85.7989 146.282 81.6378 150.586 80.7379C154.89 79.8381 159.12 82.5404 160.035 86.7737C160.95 91.0069 158.202 95.1681 153.898 96.0679C149.595 96.9677 145.364 94.2654 144.449 90.0322Z" fill="white"/>
<path d="M4.4364 116.666H8.89912V132.073H18.2943V135.494H4.4364V116.666Z" fill="white"/>
<path d="M28.9937 135.898C26.9385 135.898 25.0693 135.485 23.386 134.659C21.7222 133.833 20.4108 132.684 19.4517 131.211C18.4926 129.721 18.0131 128.015 18.0131 126.094C18.0131 124.172 18.4926 122.466 19.4517 120.976C20.4108 119.485 21.7222 118.327 23.386 117.501C25.0693 116.675 26.9385 116.262 28.9937 116.262C31.0489 116.262 32.8986 116.675 34.5428 117.501C36.2065 118.327 37.5179 119.485 38.477 120.976C39.4361 122.466 39.9156 124.172 39.9156 126.094C39.9156 128.015 39.4361 129.721 38.477 131.211C37.5179 132.684 36.2065 133.833 34.5428 134.659C32.8986 135.485 31.0489 135.898 28.9937 135.898ZM28.9937 132.127C30.1681 132.127 31.2349 131.885 32.194 131.4C33.1726 130.897 33.9458 130.197 34.5134 129.299C35.081 128.383 35.3649 127.315 35.3649 126.094C35.3649 124.89 35.081 123.84 34.5134 122.942C33.9654 122.026 33.202 121.326 32.2233 120.841C31.2642 120.338 30.1877 120.087 28.9937 120.087C27.7802 120.087 26.6841 120.338 25.7054 120.841C24.7463 121.326 23.983 122.026 23.4153 122.942C22.8477 123.84 22.5639 124.89 22.5639 126.094C22.5639 127.315 22.8477 128.383 23.4153 129.299C23.983 130.197 24.7561 130.897 25.7348 131.4C26.7134 131.885 27.7998 132.127 28.9937 132.127Z" fill="white"/>
<path d="M52.8801 135.898C50.6879 135.898 48.7502 135.503 47.0669 134.713C45.3836 133.905 44.0819 132.765 43.162 131.292C42.242 129.82 41.7821 128.087 41.7821 126.094C41.7821 124.1 42.242 122.367 43.162 120.895C44.0819 119.404 45.3836 118.264 47.0669 117.474C48.7502 116.666 50.6879 116.262 52.8801 116.262C54.3677 116.262 55.6791 116.405 56.8144 116.693C57.9692 116.962 59.0262 117.393 59.9853 117.986V121.891C59.124 121.245 58.1356 120.778 57.0199 120.491C55.9238 120.185 54.6711 120.033 53.2618 120.033C51.9504 120.033 50.7662 120.284 49.7093 120.787C48.6719 121.272 47.8498 121.972 47.243 122.888C46.6363 123.804 46.3329 124.872 46.3329 126.094C46.3329 127.333 46.6069 128.419 47.1549 129.353C47.7226 130.269 48.5153 130.978 49.5331 131.481C50.5509 131.984 51.7253 132.235 53.0563 132.235C54.2698 132.235 55.3268 132.037 56.2272 131.642V128.006H52.9095V124.989H60.5431V134.067C58.6053 135.288 56.051 135.898 52.8801 135.898Z" fill="white"/>
<path d="M62.4545 133.043L66.1245 129.972C66.8683 129.362 67.4261 128.913 67.798 128.626C68.9137 127.728 69.7651 127.009 70.3523 126.471C70.9395 125.914 71.4191 125.339 71.791 124.747C72.1628 124.154 72.3488 123.544 72.3488 122.915C72.3488 122.035 72.065 121.344 71.4974 120.841C70.9493 120.338 70.0881 120.087 68.9137 120.087C67.935 120.087 66.9563 120.248 65.9777 120.572C64.999 120.877 64.0986 121.317 63.2766 121.891V117.986C64.1378 117.429 65.1165 117.007 66.2126 116.72C67.3282 116.414 68.532 116.262 69.8238 116.262C71.3114 116.262 72.5935 116.513 73.67 117.016C74.7465 117.519 75.5686 118.228 76.1362 119.144C76.7039 120.06 76.9877 121.11 76.9877 122.295C76.9877 123.624 76.6158 124.81 75.872 125.851C75.1478 126.875 73.9636 128.087 72.3194 129.488L69.1779 132.127H77.6923V135.494H62.4545V133.043Z" fill="white"/>
<path d="M83.8288 121.137L79.5716 123.966V120.033L84.5628 116.666H88.2915V135.494H83.8288V121.137Z" fill="white"/>
<path d="M101.605 116.666H110.501C112.831 116.666 114.641 117.204 115.933 118.282C117.244 119.341 117.9 120.877 117.9 122.888C117.9 124.289 117.548 125.483 116.843 126.471C116.139 127.44 115.14 128.15 113.848 128.599L117.753 135.494H113.173L109.562 129.11H106.068V135.494H101.605V116.666ZM109.709 125.689C110.844 125.689 111.735 125.465 112.38 125.016C113.046 124.567 113.379 123.858 113.379 122.888C113.379 121.864 113.056 121.146 112.41 120.733C111.764 120.302 110.864 120.087 109.709 120.087H106.068V125.689H109.709Z" fill="white"/>
<path d="M129.311 135.898C126.316 135.898 124.055 135.18 122.529 133.743C121.002 132.289 120.239 130.34 120.239 127.898V116.666H124.701V127.952C124.701 129.317 125.112 130.358 125.934 131.077C126.757 131.795 127.882 132.154 129.311 132.154C130.72 132.154 131.826 131.795 132.629 131.077C133.451 130.358 133.862 129.317 133.862 127.952V116.666H138.324V127.898C138.324 130.34 137.571 132.289 136.064 133.743C134.556 135.18 132.306 135.898 129.311 135.898Z" fill="white"/>
<path d="M141.259 116.666H151.329C153.267 116.666 154.784 117.106 155.88 117.986C156.976 118.866 157.524 120.141 157.524 121.811C157.524 122.655 157.309 123.427 156.878 124.127C156.447 124.81 155.86 125.339 155.116 125.716C156.134 126.058 156.898 126.578 157.407 127.279C157.915 127.961 158.17 128.859 158.17 129.972C158.17 131.104 157.886 132.091 157.318 132.935C156.77 133.761 156.007 134.399 155.028 134.848C154.069 135.279 153.003 135.494 151.828 135.494H141.259V116.666ZM150.478 124.316C151.26 124.316 151.877 124.136 152.327 123.777C152.777 123.418 153.003 122.843 153.003 122.053C153.003 121.191 152.777 120.598 152.327 120.275C151.897 119.952 151.231 119.79 150.331 119.79H145.721V124.316H150.478ZM150.742 132.37C151.701 132.37 152.425 132.199 152.914 131.858C153.423 131.499 153.678 130.879 153.678 129.999C153.678 129.101 153.414 128.455 152.885 128.06C152.376 127.665 151.613 127.467 150.595 127.467H145.721V132.37H150.742Z" fill="white"/>
<path d="M165.391 128.329L157.874 116.666H162.631L167.593 124.504L172.731 116.666H177.458L169.765 128.329V135.494H165.391V128.329Z" fill="white"/>
</svg>
