<svg xmlns="http://www.w3.org/2000/svg" xmlns:xlink="http://www.w3.org/1999/xlink" viewBox="0 0 1140.08 788.48"><defs><style>.cls-1{fill:#17574c;}.cls-2{fill:#4faa88;}.cls-3{fill:#3b8d81;}.cls-4{fill:url(#linear-gradient);}.cls-5{fill:#317872;}.cls-6{fill:#2b8d7d;}.cls-7{fill:none;}</style><linearGradient id="linear-gradient" x1="129.83" y1="135.64" x2="125.43" y2="602.12" gradientUnits="userSpaceOnUse"><stop offset="0" stop-color="#317872"/><stop offset="0.39" stop-color="#17574c"/><stop offset="0.54" stop-color="#1b4b45"/><stop offset="0.76" stop-color="#1f403e"/><stop offset="1" stop-color="#203c3c"/></linearGradient></defs><g id="_3rd_terrain" data-name="3rd terrain"><polygon class="cls-1" points="529.31 217.22 529.36 221 529.04 222.71 531 223.22 530.45 216.68 532.45 217.56 533.68 216.25 533.68 214.05 533.12 212.11 533.68 210.06 532.8 206.07 533.66 200.93 531.93 197.51 530.99 192.66 530.45 189.01 529.37 190.34 528.54 191.58 527.87 194.41 526.23 198.06 526.23 205.13 525.05 212.19 526.23 216.51 526.88 218.25 529.31 217.22"/><polygon class="cls-1" points="556.05 259.4 556.12 264.03 555.72 266.12 558.12 266.76 557.44 258.73 559.89 259.82 561.4 258.2 561.4 255.51 560.72 253.13 561.4 250.63 560.33 245.74 561.38 239.43 559.26 235.24 558.11 229.29 557.44 224.82 556.12 226.46 555.1 227.97 554.29 231.44 552.28 235.92 552.28 244.57 550.82 253.23 552.28 258.52 553.07 260.67 556.05 259.4"/><polygon class="cls-1" points="573.34 295.86 573.41 300.49 573.01 302.58 575.41 303.22 574.74 295.19 577.19 296.27 578.7 294.66 578.7 291.97 578.02 289.59 578.7 287.08 577.62 282.2 578.68 275.88 576.56 271.7 575.41 265.75 574.74 261.27 573.42 262.92 572.4 264.43 571.58 267.9 569.57 272.38 569.57 281.03 568.12 289.69 569.57 294.98 570.36 297.12 573.34 295.86"/><polygon class="cls-1" points="579.84 298.09 579.9 302.72 579.51 304.82 581.91 305.45 581.23 297.43 583.68 298.51 585.2 296.9 585.2 294.2 584.51 291.82 585.2 289.32 584.12 284.43 585.17 278.12 583.05 273.93 581.9 267.99 581.23 263.51 579.91 265.15 578.89 266.67 578.08 270.13 576.07 274.61 576.07 283.27 574.62 291.92 576.07 297.22 576.86 299.36 579.84 298.09"/><polygon class="cls-1" points="605.51 338.64 605.58 343.28 605.18 345.37 607.58 346 606.91 337.98 609.36 339.06 610.87 337.45 610.87 334.76 610.18 332.38 610.87 329.87 609.79 324.98 610.84 318.67 608.72 314.49 607.57 308.54 606.91 304.06 605.58 305.7 604.56 307.22 603.75 310.69 601.74 315.17 601.74 323.82 600.29 332.48 601.74 337.77 602.53 339.91 605.51 338.64"/><polygon class="cls-1" points="615.51 352.04 615.58 356.67 615.18 358.76 617.58 359.4 616.91 351.37 619.36 352.46 620.87 350.85 620.87 348.15 620.19 345.77 620.87 343.27 619.79 338.38 620.85 332.07 618.73 327.88 617.58 321.93 616.91 317.46 615.59 319.1 614.57 320.61 613.75 324.08 611.74 328.56 611.74 337.22 610.29 345.87 611.74 351.17 612.53 353.31 615.51 352.04"/><polygon class="cls-1" points="636.17 371.76 636.23 376.39 635.83 378.49 638.24 379.12 637.56 371.1 640.01 372.18 641.52 370.57 641.52 367.88 640.84 365.49 641.52 362.99 640.44 358.1 641.5 351.79 639.38 347.6 638.23 341.66 637.56 337.18 636.24 338.82 635.22 340.34 634.41 343.81 632.39 348.28 632.39 356.94 630.94 365.59 632.39 370.89 633.18 373.03 636.17 371.76"/><polygon class="cls-1" points="643.95 393.15 644.02 397.79 643.62 399.88 646.02 400.52 645.35 392.49 647.8 393.57 649.31 391.96 649.31 389.27 648.63 386.89 649.31 384.38 648.23 379.5 649.28 373.19 647.16 369 646.02 363.05 645.35 358.57 644.02 360.21 643.01 361.73 642.19 365.2 640.18 369.68 640.18 378.33 638.73 386.99 640.18 392.28 640.97 394.42 643.95 393.15"/><polygon class="cls-1" points="658.03 405.43 658.1 410.06 657.7 412.16 660.1 412.79 659.42 404.77 661.87 405.85 663.38 404.24 663.38 401.55 662.7 399.17 663.38 396.66 662.3 391.77 663.36 385.46 661.24 381.27 660.09 375.33 659.42 370.85 658.1 372.49 657.08 374.01 656.27 377.48 654.26 381.95 654.26 390.61 652.8 399.27 654.26 404.56 655.05 406.7 658.03 405.43"/><polygon class="cls-1" points="675.13 425.32 675.2 429.95 674.8 432.04 677.2 432.68 676.53 424.65 678.98 425.74 680.49 424.12 680.49 421.43 679.8 419.05 680.49 416.55 679.41 411.66 680.46 405.35 678.34 401.16 677.2 395.21 676.53 390.74 675.2 392.38 674.18 393.89 673.37 397.36 671.36 401.84 671.36 410.5 669.91 419.15 671.36 424.44 672.15 426.58 675.13 425.32"/><polygon class="cls-1" points="682.94 443.17 683 447.81 682.61 449.9 685.01 450.53 684.34 442.51 686.78 443.59 688.3 441.98 688.3 439.29 687.61 436.91 688.3 434.4 687.22 429.51 688.27 423.2 686.15 419.01 685 413.07 684.34 408.59 683.01 410.23 681.99 411.75 681.18 415.22 679.17 419.69 679.17 428.35 677.72 437.01 679.17 442.3 679.96 444.44 682.94 443.17"/><polygon class="cls-1" points="543.85 248.23 543.92 252.86 543.52 254.96 545.92 255.59 545.25 247.57 547.7 248.65 549.21 247.04 549.21 244.35 548.52 241.96 549.21 239.46 548.13 234.57 549.18 228.26 547.06 224.07 545.92 218.13 545.25 213.65 543.92 215.29 542.9 216.81 542.09 220.28 540.08 224.75 540.08 233.41 538.63 242.06 540.08 247.36 540.87 249.5 543.85 248.23"/><path class="cls-2" d="M689.26,752.51s139-5,197.11-22.74,217.33,10.11,179.42-12.63-58.12-22.75-58.12-22.75,83.39,2.53,108.66,0,7.58,9.77-40.43-20.39S858.35,504,767.6,484.65C664.36,462.65,616,343.14,562.91,267.32s-27.79-93.5-187-146.56S-3.52,42.42-3.52,42.42L-3,777.79S575.07,760.83,689.26,752.51Z"/><path class="cls-2" d="M524.33,204.49,371,186.67,80.84,141.31-3.52,77.12V42.42S165.3,63.32,220.06,77.71,506.48,145.65,524.33,204.49Z"/><polygon class="cls-2" points="800.69 495.33 553.29 511.79 341.45 516.26 331.18 474.69 698.41 451.2 800.69 495.33"/><polygon class="cls-3" points="698.41 451.2 614.34 348.84 550.79 249 524.33 204.49 80.83 141.31 101.46 523.45 331.18 474.69 698.41 451.2"/><polygon class="cls-4" points="-3.52 77.12 174.72 155.99 260.41 487.45 -2.25 546.93 -3.52 77.12"/><path class="cls-1" d="M553.29,511.79l8.86,170.47S441,698.56,389.62,723L341.45,516.26Z"/><polygon class="cls-5" points="615.87 507.62 553.29 511.79 562.15 682.26 626.11 650.33 615.87 507.62"/><polygon class="cls-2" points="744.31 499.08 863.83 570.07 953.95 586.53 897.24 540.93 835.52 511.79 800.69 495.33 744.31 499.08"/><polygon class="cls-6" points="615.87 507.62 626.11 650.33 714.77 612.05 744.31 499.08 615.87 507.62"/><path class="cls-5" d="M863.83,570.06v24.88s-96.37-6-113.08,0-36,17.11-36,17.11l29.54-113Z"/><polygon class="cls-6" points="953.95 586.53 989.63 612.05 863.83 594.94 863.83 570.07 953.95 586.53"/><polygon class="cls-2" points="1140.08 693.32 1007.67 694.39 911.38 683.14 888.09 598.24 989.63 612.05 1140.08 693.32"/><polygon class="cls-6" points="626.11 650.33 632.54 701.13 772.66 682.26 750.75 594.94 626.11 650.33"/><polygon class="cls-6" points="911.38 683.14 772.66 682.26 750.75 594.94 818.86 586.53 888.09 598.24 911.38 683.14"/><polygon class="cls-3" points="750.75 594.94 818.86 586.53 888.09 598.24 781.52 604.37 626.11 650.33 750.75 594.94"/><polygon class="cls-1" points="744.31 499.08 750.75 594.94 714.77 612.05 744.31 499.08"/><polygon class="cls-5" points="436.9 380.04 437.17 284.33 451.8 370.74 436.9 380.04"/><polygon class="cls-5" points="451.8 466.97 460.27 417.9 514.9 362.36 497.94 446.47 524.33 462.33 451.8 466.97"/><polygon class="cls-7" points="22.72 52.68 22.48 54.12 22.72 55.21 22.72 52.68"/><polygon class="cls-7" points="13.67 47.5 13.47 48.24 13.67 48.95 13.67 47.5"/><path class="cls-1" d="M42.79,51.67l-1.18-5.35,1.16-6.91-2.32-4.58-1.26-6.51-.73-4.9L37,25.22,35.9,26.88,35,30.67l-2.2,4.9v9.48l-1,6.23-1.4-2.77L29.1,42l-.73-4.9L26.92,38.9l-1.11,1.66-.89,3.8-1.29,2.87v0l-2.32-4.58-1.25-6.51-.74-4.9L17.88,33l-1.12,1.66-.89,3.79-2.15,4.79L13,40.15l1.16-6.91-2.32-4.58-1.26-6.5-.73-4.9L8.43,19.05,7.32,20.71l-.9,3.8-2.2,4.9v9.47L2.63,48.35l1.59,5.79.87,2.35L8.35,55.1l.07,5.07L8,62.46l2.62.69-.73-8.78,2.68,1.19.8-.85-1.28,7.61,1.59,5.79.86,2.34,3.27-1.38.07,5.07-.44,2.29,2.63.69-.74-8.78,2.1.93L22.72,74l.86,2.34L26.84,75,26.92,80l-.44,2.29,2.63.7-.74-8.79,2.68,1.19,1.66-1.76v-3L32,68.09l.75-2.74L31.52,60,32,57.3l.82,3,.87,2.34,3.26-1.39L37,66.34l-.43,2.29,2.63.69-.74-8.78,2.68,1.18L42.79,60V57l-.74-2.6ZM13.67,47.5V49l-.2-.71Zm9,5.18v2.53l-.24-1.09Z"/><polygon class="cls-7" points="82.12 70.45 82.42 68.85 82.42 66.63 82.53 66.4 82.48 63.09 80.32 64.01 81.68 66.7 80.53 73.61 81.71 78.96 80.96 81.7 81.29 82.86 82.42 76.11 82.42 70.54 82.12 70.45"/><polygon class="cls-7" points="84.29 62.49 84.01 62.37 84.06 62.99 84.29 62.49"/><polygon class="cls-7" points="57.36 59.67 57.36 57.13 56.73 60.94 56.97 62.04 57.36 59.67"/><polygon class="cls-7" points="100.67 75.17 100.73 75.83 102.74 79.8 102.91 78.78 102.91 76.16 100.67 75.17"/><polygon class="cls-7" points="121.74 93.92 122.61 95.64 122.58 93.56 121.74 93.92"/><path class="cls-1" d="M122.22,100.92l2.63.69-.74-8.78L126.79,94l1.65-1.77V89.31l-.74-2.61.74-2.74-1.18-5.35,1.16-6.91-2.32-4.58-1.26-6.5-.73-4.9-1.45,1.79-1.11,1.66-.89,3.8-2.2,4.9v9.47L118,80.1l-1.12,1.38-1.11,1.66-.89,3.8-2,4.37v-.56l-.74-2.61.74-2.74-1.18-5.35,1.16-6.9-2.32-4.59-1.26-6.5-.73-4.9L107.12,59,106,60.61l-.9,3.8-.35.78-.93-4.25L105,54l-2.32-4.58L101.41,43l-.74-4.9-1.44,1.79-1.12,1.67-.89,3.79L95,50.2v9.47l-1.59,9.48,1,3.5-1.55,3.44v9.48l-.43,2.55v0l-.74-2.61.74-2.74-1.18-5.35,1.16-6.91-2.32-4.58-1.26-6.51-.73-4.89h0l.27-1-1.18-5.34,1.16-6.91L86,36.66l-1.26-6.51L84,25.25l-1.45,1.8-1.11,1.66-.9,3.79-2.2,4.9v9.47l-.82,4.9-.16-1.05-1.44,1.79-1.12,1.66L73.92,58l-2.2,4.9v9.47l-1.59,9.47,1.59,5.8L72.58,90l3.27-1.39.07,5.07-.44,2.29,2.63.69-.74-8.78L80.05,89l1.34-1.43,1,3.78.87,2.34,3.26-1.38.07,5.07-.43,2.29,2.63.69-.74-8.78,2.68,1.19,1.06-1.14L91.25,95l1.59,5.79.87,2.34L97,101.79l.07,5.07-.43,2.29,2.62.69-.73-8.78,2.68,1.19,1.65-1.77V97.54l-.74-2.61.53-2,.29,1.08.87,2.34L107,95l.07,5.07-.43,2.29,2.62.7-.73-8.79,2.68,1.19L112.67,94v7.36l-1.59,9.47,1.59,5.8.86,2.34,3.26-1.39.08,5.07-.44,2.29,2.63.7-.74-8.79L121,118l1.66-1.76v-3l-.75-2.61.75-2.74-1.19-5.35,1.14-6.81,0,2.86ZM84.29,62.49l-.23.5,0-.62Zm-3,20.37L81,81.7,81.71,79l-1.18-5.35,1.15-6.91L80.32,64l2.16-.92,0,3.31-.11.23v2.22l-.3,1.61.3.08v5.57Zm21.45-3.06-2-4-.06-.66,2.24,1v2.62Zm19,14.12.84-.36,0,2.08Z"/><polygon class="cls-1" points="137.13 105.93 138.28 99.03 135.96 94.44 134.71 87.94 133.98 83.04 132.53 84.83 131.41 86.49 130.52 90.29 128.32 95.19 128.32 104.66 126.73 114.13 128.32 119.93 129.18 122.27 132.45 120.88 132.52 125.95 132.09 128.24 134.71 128.94 133.98 120.15 136.66 121.34 138.31 119.58 138.31 116.63 137.56 114.02 138.31 111.28 137.13 105.93"/><polygon class="cls-1" points="157.11 81.29 155.93 75.94 157.08 69.04 154.76 64.45 153.51 57.95 152.78 53.05 151.33 54.84 150.21 56.5 149.32 60.3 147.12 65.2 147.12 74.67 146.67 77.35 146.03 73.1 144.59 74.89 143.47 76.55 142.58 80.35 140.98 83.91 140.25 75.17 142.93 76.35 144.58 74.59 144.58 71.64 143.83 69.03 144.58 66.29 143.4 60.94 144.55 54.04 142.23 49.46 140.98 42.95 140.25 38.05 138.8 39.84 137.68 41.51 136.79 45.3 134.59 50.2 134.59 59.67 133 69.14 134.59 74.94 135.45 77.28 138.72 75.89 138.79 80.96 138.35 83.25 140.96 83.94 140.38 85.25 140.38 94.72 138.79 104.19 140.38 109.98 141.24 112.33 144.51 110.94 144.58 116.01 144.14 118.3 146.77 119 146.03 110.21 148.72 111.4 150.37 109.63 150.37 106.69 149.62 104.08 150.37 101.34 149.19 95.99 149.95 91.44 151.25 90.89 151.32 95.96 150.88 98.25 153.51 98.95 152.78 90.16 155.46 91.35 157.11 89.59 157.11 86.64 156.36 84.03 157.11 81.29"/><polygon class="cls-1" points="111.23 66.16 114.49 64.77 114.56 69.84 114.13 72.13 116.75 72.83 116.02 64.04 118.7 65.23 120.35 63.46 120.35 60.52 119.61 57.91 120.35 55.17 119.17 49.82 120.33 42.91 118 38.33 116.75 31.83 116.02 26.93 114.57 28.72 113.45 30.38 112.56 34.18 110.36 39.08 110.36 48.55 108.77 58.02 110.36 63.81 111.23 66.16"/><polygon class="cls-1" points="72.32 57.16 71.58 48.38 74.27 49.56 75.92 47.8 75.92 44.85 75.17 42.24 75.92 39.5 74.74 34.15 75.89 27.25 73.57 22.66 72.32 16.16 71.58 11.26 70.14 13.05 69.02 14.71 68.13 18.51 65.93 23.41 65.93 32.88 64.34 42.35 65.93 48.15 66.79 50.49 70.06 49.1 70.13 54.17 69.69 56.46 72.32 57.16"/><path class="cls-1" d="M68.43,78.44l1.16-6.9L67.27,67l0-.21.12-.46-1.18-5.35L67.33,54,65,49.46,63.75,43,63,38.05l-1.45,1.79-1.11,1.67-.9,3.79-2.2,4.9V53l-1.8-3.56L54.3,43l-.73-4.9-1.45,1.79L51,41.51l-.89,3.79-2.2,4.9v9.47l-1.59,9.48,1.59,5.79.86,2.34L52,75.89,52.12,81l-.44,2.29,2.63.7-.74-8.78,2.68,1.18,1.17-1.25.81,2.18,1.4-.59v.48L58,86.65l1.59,5.79.86,2.34,3.26-1.39.08,5.07-.44,2.29,2.63.7-.74-8.78L68,93.85l1.65-1.76v-3l-.74-2.61.74-2.74ZM57.36,57.13v2.54L57,62l-.24-1.1Z"/><polygon class="cls-1" points="210.11 105.73 210.18 110.8 209.75 113.09 212.37 113.79 211.64 105.01 214.32 106.19 215.97 104.43 215.97 101.48 215.22 98.88 215.97 96.13 214.79 90.78 215.95 83.88 213.63 79.3 212.37 72.79 211.64 67.89 210.19 69.69 209.07 71.35 208.18 75.14 205.98 80.04 205.98 89.51 204.39 98.98 205.98 104.78 206.84 107.12 210.11 105.73"/><polygon class="cls-1" points="237.97 106.13 238.05 111.2 237.61 113.49 240.24 114.19 239.5 105.4 242.18 106.59 243.84 104.82 243.84 101.88 243.09 99.27 243.84 96.53 242.66 91.18 243.81 84.27 241.49 79.69 240.24 73.19 239.5 68.29 238.06 70.08 236.94 71.74 236.05 75.54 233.85 80.44 233.85 89.91 232.26 99.38 233.85 105.17 234.71 107.52 237.97 106.13"/><polygon class="cls-7" points="272.13 119.01 271.29 118.64 271.53 121.47 271.57 121.39 272.13 119.01"/><path class="cls-1" d="M289.29,144.46l1.16-6.91L288.13,133l-1.26-6.51-.73-4.9-1.45,1.8L283.58,125l-.89,3.79-2.2,4.9v9.48l-1.13,6.73v-2.19l-.75-2.61.75-2.74L278.18,137l1.15-6.9L277,125.54l-1.26-6.5-.14-1,0,0v-2.94l-.75-2.61.75-2.74-1.19-5.35,1.16-6.91-2.32-4.58L272,86.42l-.73-4.9-1.45,1.8L268.73,85l-.89,3.79-2.2,4.9v9.48l-1,5.9-1.47-2.9-1.26-6.51-.73-4.9-1.45,1.79-1.11,1.66-.9,3.8-2.2,4.9v9.47l-1.59,9.47,1.59,5.8.87,2.34,3.26-1.39.07,5.07-.43,2.29,2.62.7-.73-8.79,2.68,1.19,1.65-1.76v-2.95l-.74-2.61.74-2.74-1.18-5.35.41-2.45.89,3.23.86,2.34,3.26-1.38.08,5.07-.27,1.4-.2.45v9.47l-1.59,9.47,1.59,5.8.86,2.34,3.26-1.39.08,5.07-.44,2.29,2.63.7-.74-8.79,2.68,1.19,1.5-1.6-.3,1.82,1.59,5.79.86,2.34,3.26-1.39.08,5.08-.44,2.29,2.63.69-.74-8.78,2.68,1.18,1.66-1.76v-2.95l-.75-2.6.75-2.74Zm-18-25.82.84.37-.56,2.38,0,.08Z"/><polygon class="cls-1" points="303.36 143.82 304.51 136.91 302.19 132.33 300.94 125.83 300.21 120.93 298.76 122.72 297.64 124.38 296.75 128.18 294.55 133.08 294.55 142.55 292.96 152.02 294.55 157.81 295.41 160.16 298.68 158.77 298.75 163.84 298.31 166.13 300.94 166.82 300.21 158.04 302.89 159.23 304.54 157.46 304.54 154.52 303.79 151.91 304.54 149.17 303.36 143.82"/><polygon class="cls-1" points="282.06 108.7 285.33 107.31 285.4 112.38 284.96 114.67 287.59 115.36 286.86 106.58 288.61 107.36 287.96 111.23 289.55 117.03 290.41 119.37 293.67 117.98 293.75 123.05 293.31 125.34 295.94 126.04 295.2 117.25 297.88 118.44 299.54 116.67 299.54 113.73 298.79 111.12 299.54 108.38 298.35 103.03 299.51 96.13 297.19 91.54 295.93 85.04 295.2 80.14 293.75 81.93 292.64 83.59 291.75 87.39 290.3 90.6 291.16 85.45 288.84 80.87 287.59 74.37 286.86 69.47 285.41 71.26 284.29 72.92 283.4 76.72 281.2 81.62 281.2 91.09 279.61 100.56 281.2 106.36 282.06 108.7"/><polygon class="cls-1" points="325.69 115.97 326.85 109.06 324.53 104.48 323.27 97.97 322.54 93.07 321.09 94.87 319.98 96.53 319.08 100.32 316.88 105.22 316.88 114.7 315.92 120.48 314.62 123.37 313.88 120.81 314.63 118.06 313.44 112.72 314.6 105.81 312.28 101.23 311.02 94.72 310.96 94.32 311.07 93.94 310.58 91.72 310.29 89.82 310.19 89.95 309.89 88.59 311.04 81.69 308.72 77.11 307.47 70.6 306.73 65.7 305.29 67.5 304.17 69.16 303.28 72.95 301.08 77.85 301.08 87.32 299.49 96.8 301.08 102.59 301.94 104.93 304.64 103.78 304.64 111.44 303.05 120.92 304.64 126.71 305.5 129.05 308.76 127.66 308.84 132.74 308.4 135.03 311.03 135.72 310.29 126.94 312.97 128.12 314.5 126.5 314.5 133.1 312.91 142.58 314.5 148.37 315.36 150.71 318.62 149.32 318.7 154.4 318.26 156.69 320.89 157.38 320.15 148.6 322.83 149.78 324.49 148.02 324.49 145.07 323.74 142.47 324.49 139.72 323.31 134.38 323.91 130.79 325.22 131.37 326.87 129.61 326.87 126.67 326.13 124.06 326.87 121.32 325.69 115.97"/><polygon class="cls-1" points="345.44 116.43 345.44 113.49 344.7 110.88 345.44 108.14 344.26 102.79 345.42 95.88 343.1 91.3 341.84 84.79 341.11 79.89 339.66 81.69 338.55 83.35 338.01 85.63 336.78 83.2 335.52 76.69 334.79 71.79 333.34 73.58 332.23 75.25 331.34 79.04 329.14 83.94 329.14 93.41 327.55 102.89 329.14 108.68 330 111.02 333.26 109.63 333.34 114.7 332.9 116.99 335.53 117.69 335.45 116.78 335.45 116.78 336.32 119.12 339.58 117.74 339.65 122.81 339.22 125.1 341.85 125.79 341.11 117.01 343.79 118.19 345.44 116.43"/><polygon class="cls-1" points="364.02 105.35 365.18 98.45 362.86 93.86 361.6 87.36 360.87 82.46 359.42 84.25 358.31 85.91 357.41 89.71 355.21 94.61 355.21 104.08 354.45 108.65 353.95 107.68 352.7 101.17 351.97 96.27 350.52 98.07 349.4 99.73 348.51 103.53 346.31 108.42 346.31 117.9 344.72 127.37 346.31 133.16 347.18 135.5 350.44 134.12 350.51 139.19 350.07 141.48 352.7 142.17 351.97 133.39 354.65 134.57 356.3 132.81 356.3 129.87 355.56 127.26 356.3 124.52 355.12 119.17 355.14 119.07 355.21 119.35 356.08 121.69 359.34 120.3 359.41 125.37 358.98 127.66 361.6 128.36 360.87 119.57 363.55 120.76 365.2 119 365.2 116.05 364.46 113.44 365.2 110.7 364.02 105.35"/><polygon class="cls-1" points="383.27 114.08 384.43 107.18 382.11 102.59 380.86 96.09 380.12 91.19 378.67 92.98 377.56 94.64 376.67 98.44 374.47 103.34 374.47 112.81 372.88 122.28 374.47 128.08 375.33 130.42 378.59 129.03 378.67 134.1 378.23 136.39 380.86 137.09 380.12 128.31 382.8 129.49 384.46 127.73 384.46 124.78 383.71 122.17 384.46 119.43 383.27 114.08"/><polygon class="cls-1" points="396.31 131.33 395.13 125.98 396.29 119.07 393.96 114.49 392.71 107.98 391.98 103.09 390.53 104.88 389.41 106.54 388.52 110.34 386.32 115.24 386.32 124.71 384.73 134.18 386.32 139.97 387.19 142.32 390.45 140.93 390.52 146 390.09 148.29 392.71 148.99 391.98 140.2 394.66 141.39 396.31 139.62 396.31 136.68 395.56 134.07 396.31 131.33"/><polygon class="cls-1" points="323.46 175.56 323.54 180.63 323.1 182.92 325.73 183.61 324.99 174.83 327.67 176.02 329.32 174.25 329.32 171.31 328.58 168.7 329.32 165.96 328.14 160.61 329.3 153.7 326.98 149.12 325.72 142.61 324.99 137.72 323.54 139.51 322.43 141.17 321.54 144.97 319.33 149.87 319.33 159.34 317.75 168.81 319.33 174.6 320.2 176.94 323.46 175.56"/><polygon class="cls-1" points="342.25 169.42 342.32 174.49 341.89 176.78 344.51 177.47 343.78 168.69 346.46 169.88 348.11 168.11 348.11 165.17 347.37 162.56 348.11 159.82 346.93 154.47 348.09 147.56 345.77 142.98 344.51 136.48 343.78 131.58 342.33 133.37 341.22 135.03 340.32 138.83 338.12 143.73 338.12 153.2 336.54 162.67 338.12 168.47 338.99 170.81 342.25 169.42"/><polygon class="cls-1" points="364.52 166.44 364.59 171.51 364.15 173.81 366.78 174.5 366.05 165.72 368.73 166.9 370.38 165.14 370.38 162.19 369.63 159.59 370.38 156.84 369.2 151.5 370.35 144.59 368.03 140.01 366.78 133.5 366.05 128.6 364.6 130.4 363.48 132.06 362.59 135.85 360.39 140.75 360.39 150.22 358.8 159.7 360.39 165.49 361.25 167.83 364.52 166.44"/><polygon class="cls-1" points="388.58 176.86 388.66 181.93 388.22 184.22 390.85 184.91 390.11 176.13 392.79 177.32 394.44 175.55 394.44 172.61 393.7 170 394.44 167.26 393.26 161.91 394.42 155 392.1 150.42 390.84 143.91 390.11 139.02 388.66 140.81 387.55 142.47 386.66 146.27 384.46 151.17 384.46 160.64 382.87 170.11 384.46 175.91 385.32 178.25 388.58 176.86"/><polygon class="cls-1" points="404.23 182.82 404.3 187.89 403.87 190.18 406.49 190.87 405.76 182.09 408.44 183.28 410.09 181.51 410.09 178.57 409.35 175.96 410.09 173.22 408.91 167.87 410.07 160.96 407.74 156.38 406.49 149.88 405.76 144.98 404.31 146.77 403.19 148.43 402.3 152.23 400.1 157.13 400.1 166.6 398.51 176.07 400.1 181.86 400.96 184.21 404.23 182.82"/><polygon class="cls-1" points="414.27 192.12 414.35 197.19 413.91 199.49 416.54 200.18 415.8 191.4 418.48 192.58 420.14 190.82 420.14 187.87 419.39 185.26 420.14 182.52 418.95 177.18 420.11 170.27 417.79 165.69 416.54 159.18 415.8 154.28 414.35 156.07 413.24 157.74 412.35 161.53 410.15 166.43 410.15 175.9 408.56 185.38 410.15 191.17 411.01 193.51 414.27 192.12"/><polygon class="cls-1" points="430.09 191.92 430.16 196.99 429.72 199.28 432.35 199.98 431.62 191.2 434.3 192.38 435.95 190.62 435.95 187.67 435.2 185.07 435.95 182.32 434.77 176.98 435.92 170.07 433.6 165.49 432.35 158.98 431.62 154.08 430.17 155.88 429.05 157.54 428.16 161.33 425.96 166.23 425.96 175.7 424.37 185.18 425.96 190.97 426.82 193.31 430.09 191.92"/><polygon class="cls-1" points="443.3 192.48 443.38 197.55 442.94 199.84 445.57 200.54 444.83 191.75 447.51 192.94 449.16 191.18 449.16 188.23 448.42 185.62 449.16 182.88 447.98 177.53 449.14 170.63 446.82 166.04 445.56 159.54 444.83 154.64 443.38 156.43 442.27 158.09 441.38 161.89 439.18 166.79 439.18 176.26 437.59 185.73 439.18 191.53 440.04 193.87 443.3 192.48"/><polygon class="cls-1" points="455.95 194.79 456 198.37 455.69 199.99 457.55 200.48 457.03 194.27 458.93 195.11 460.1 193.86 460.1 191.78 459.57 189.94 460.1 188 459.26 184.22 460.08 179.34 458.44 176.1 457.55 171.5 457.03 168.03 456.01 169.3 455.22 170.48 454.59 173.16 453.03 176.62 453.03 183.32 451.91 190.02 453.03 194.11 453.64 195.77 455.95 194.79"/><polygon class="cls-1" points="463.79 198.63 463.84 201.91 463.55 203.39 465.25 203.84 464.78 198.16 466.51 198.93 467.58 197.79 467.58 195.88 467.1 194.2 467.58 192.43 466.81 188.97 467.56 184.51 466.06 181.55 465.25 177.34 464.78 174.18 463.84 175.34 463.12 176.41 462.54 178.86 461.12 182.03 461.12 188.15 460.1 194.27 461.12 198.01 461.68 199.53 463.79 198.63"/><polygon class="cls-1" points="480.87 203.45 480.92 206.73 480.63 208.21 482.33 208.66 481.86 202.98 483.59 203.75 484.66 202.61 484.66 200.7 484.17 199.02 484.66 197.25 483.89 193.79 484.64 189.33 483.14 186.37 482.33 182.16 481.86 179 480.92 180.16 480.2 181.23 479.62 183.68 478.2 186.85 478.2 192.97 477.18 199.09 478.2 202.83 478.76 204.35 480.87 203.45"/><polygon class="cls-1" points="489.98 202.88 490.02 206.16 489.74 207.64 491.44 208.09 490.96 202.42 492.7 203.18 493.76 202.04 493.76 200.14 493.28 198.45 493.76 196.68 493 193.23 493.75 188.76 492.25 185.8 491.44 181.6 490.96 178.43 490.03 179.59 489.31 180.66 488.73 183.12 487.31 186.28 487.31 192.41 486.28 198.53 487.31 202.27 487.87 203.78 489.98 202.88"/><polygon class="cls-1" points="501.64 209.8 501.69 213.08 501.4 214.56 503.1 215.01 502.63 209.33 504.36 210.1 505.43 208.96 505.43 207.06 504.94 205.37 505.43 203.6 504.66 200.14 505.41 195.68 503.91 192.72 503.1 188.51 502.63 185.35 501.69 186.51 500.97 187.58 500.39 190.03 498.97 193.2 498.97 199.32 497.94 205.44 498.97 209.19 499.53 210.7 501.64 209.8"/><polygon class="cls-7" points="513.1 201.44 513.13 201.81 513.19 201.47 513.1 201.44"/><path class="cls-1" d="M521.7,200.05l-.88-4,.86-5.15L520,187.5l-.93-4.85-.55-3.65-1.08,1.34-.83,1.23-.67,2.83-.1.25-1.21-2.38-.93-4.85-.55-3.65L512,175.1l-.83,1.24-.67,2.83-1.64,3.65v7.07L507.7,197l1.18,4.32.65,1.74,2.43-1,.05,3.78-.32,1.71,2,.51-.45-5.32,1,3.84.65,1.74,2.43-1,.06,3.78-.33,1.71,2,.52-.55-6.55,2,.88,1.23-1.31V204l-.56-1.94Zm-8.6,1.39.09,0-.06.34Z"/><polygon class="cls-1" points="293.75 171.64 396.13 406.91 375.85 155.99 293.75 171.64"/><polygon class="cls-2" points="497.94 200.73 451.8 370.74 396.13 406.91 375.85 155.99 497.94 200.73"/><polygon class="cls-7" points="537.45 443.07 537.09 445.18 537.45 446.78 537.45 443.07"/><polygon class="cls-7" points="507.74 470.22 508.42 478.33 509.57 471.46 509.57 471.03 507.74 470.22"/><polygon class="cls-1" points="575.43 444.43 576.85 435.95 574 430.32 572.46 422.34 571.56 416.32 569.78 418.53 568.41 420.56 567.32 425.23 564.62 431.24 564.62 442.87 564.44 443.93 561.89 438.89 560.35 430.91 559.45 424.89 557.67 427.1 556.3 429.13 555.21 433.79 552.5 439.81 552.5 451.44 550.55 463.07 552.5 470.18 553.56 473.05 557.57 471.35 557.66 477.57 557.13 480.39 560.35 481.24 559.45 470.46 562.74 471.91 564.77 469.75 564.77 466.13 563.85 462.93 564.41 460.86 564.62 461.61 565.68 464.48 569.68 462.78 569.78 469 569.24 471.82 572.47 472.67 571.56 461.89 574.85 463.34 576.88 461.18 576.88 457.56 575.97 454.36 576.88 451 575.43 444.43"/><polygon class="cls-1" points="593.62 469.01 592.17 462.44 593.59 453.97 590.74 448.34 589.2 440.35 588.3 434.34 586.52 436.54 585.15 438.58 584.05 443.24 581.35 449.25 581.35 460.88 579.4 472.51 581.35 479.63 582.41 482.5 586.42 480.8 586.51 487.02 585.97 489.83 589.2 490.69 588.3 479.9 591.59 481.36 593.62 479.19 593.62 475.58 592.7 472.38 593.62 469.01"/><path class="cls-1" d="M548.26,448.47l1.42-8.48-2.85-5.62-1.54-8-.9-6-1.78,2.2-1.37,2-1.09,4.66-2.54,5.65-2-3.85-1.54-8-.9-6-1.78,2.21-1.36,2L529,426l-2.7,6v11.63l-1.95,11.63.45,1.65-1.66,3.7v11.63l-1.94,11.61-.26-.89.92-3.36L520.39,473l1.42-8.48L519,458.92l-1.54-8-.9-6-1.78,2.2-1.37,2-1.09,4.66-.29.64-.38-1.7,1.42-8.48-2.85-5.62-1.54-8-.9-6-1.78,2.2-1.36,2-1.1,4.66-2.7,6V451.2l-1.95,11.63,1.95,7.11,1.06,2.88,4-1.71.09,6.23-.54,2.81,2.58.68-.38,2.26,1.95,7.11,1.06,2.88,4-1.71.09,6.23-.53,2.81,3.22.85-.9-10.78,3.29,1.46,2-2.17v-3.49l1.28,4.69,1.06,2.87,4-1.7.09,6.23-.54,2.81L531,502l-.9-10.78,3.29,1.45,2-2.16v-3.62l-.92-3.2.92-3.36-1.45-6.57.06-.4.13,0,0-.51,1.28-7.6-1.13-2.23,2.28,1,.39-.41.55,2,1.06,2.88,4-1.71.09,6.23-.53,2.81,3.22.85-.9-10.78,3.29,1.46,2-2.17v-3.61l-.92-3.21.92-3.36Zm-39.84,29.86-.68-8.11,1.83.81v.43Zm29-35.26v3.71l-.36-1.6Z"/><polygon class="cls-1" points="453.16 476.45 453.16 472.83 452.24 469.63 453.16 466.27 451.7 459.7 453.12 451.22 450.27 445.6 448.73 437.61 447.83 431.59 446.06 433.8 444.69 435.83 443.59 440.5 440.89 446.51 440.89 458.14 438.94 469.77 440.89 476.88 441.95 479.75 445.96 478.05 446.05 484.27 445.51 487.09 448.74 487.94 447.83 477.16 451.13 478.61 453.16 476.45"/><polygon class="cls-1" points="482.55 477.34 481.1 470.78 482.52 462.3 479.67 456.67 478.13 448.69 477.23 442.67 475.91 444.3 473.9 440.33 472.36 432.34 471.46 426.33 469.68 428.53 468.31 430.57 467.22 435.23 464.51 441.24 464.51 452.87 462.93 462.3 461.39 454.32 460.5 448.31 458.72 450.51 457.35 452.55 456.25 457.21 453.55 463.22 453.55 474.85 451.6 486.48 453.55 493.59 454.61 496.47 458.62 494.76 458.71 500.99 458.17 503.8 461.4 504.65 460.5 493.87 463.79 495.33 465.82 493.16 465.82 489.55 464.9 486.34 465.82 482.98 464.37 476.41 464.96 472.83 465.57 474.49 469.58 472.78 469.59 473.38 468.34 480.84 470.29 487.96 471.35 490.83 475.35 489.13 475.44 495.35 474.91 498.17 478.13 499.02 477.23 488.24 480.52 489.69 482.55 487.52 482.55 483.91 481.63 480.71 482.55 477.34"/><polygon class="cls-1" points="433.15 457.41 434.57 448.93 431.72 443.31 430.18 435.32 429.28 429.3 427.5 431.51 426.13 433.55 425.04 438.2 424.05 440.4 422.56 437.45 421.02 429.46 420.12 423.45 418.34 425.65 416.97 427.69 415.88 432.35 413.18 438.36 413.18 449.99 411.23 461.62 413.18 468.73 414.24 471.61 418.24 469.9 418.33 476.13 417.8 478.94 421.02 479.79 420.12 469.01 420.9 469.36 422.34 474.59 423.39 477.46 427.4 475.76 427.49 481.99 426.96 484.8 430.18 485.65 429.28 474.87 432.57 476.32 434.6 474.16 434.6 470.54 433.68 467.34 434.6 463.98 433.15 457.41"/><polygon class="cls-1" points="385.83 458.75 387.25 450.27 384.4 444.65 382.86 436.66 381.96 430.65 380.19 432.85 378.82 434.89 377.72 439.55 375.02 445.56 375.02 457.19 373.07 468.82 375.02 475.93 376.08 478.81 380.09 477.1 380.18 483.33 379.64 486.14 382.87 486.99 381.96 476.21 385.25 477.67 387.29 475.5 387.29 471.88 386.37 468.68 387.29 465.32 385.83 458.75"/><polygon class="cls-7" points="639.84 453.72 640.2 458.11 641.79 454.58 639.84 453.72"/><polygon class="cls-7" points="696.87 459.86 696.71 459.79 696.87 461.75 696.87 459.86"/><polygon class="cls-1" points="665.57 453 666.99 444.52 664.14 438.89 662.6 430.91 661.7 424.89 659.92 427.1 658.55 429.13 657.46 433.79 654.76 439.81 654.76 451.44 652.8 463.07 654.76 470.18 655.82 473.05 659.82 471.35 659.91 477.57 659.38 480.39 662.6 481.24 661.7 470.46 664.99 471.91 667.02 469.75 667.02 466.13 666.1 462.93 667.02 459.56 665.57 453"/><path class="cls-1" d="M707.69,464.15l1.41-8.48L706.25,450l-1.54-8-.89-6-1.78,2.2-1,1.54,1-5.93-2.85-5.62-1.54-8-.9-6-1.78,2.2-1.37,2-1.09,4.66-2.7,6v11.63l-2,11.63,2,7.11,1.05,2.88,4-1.71.09,6.23-.53,2.81,1.23.33-.7,4.16,2,7.12,1.06,2.87,4-1.7.09,6.22-.54,2.81,3.23.86-.9-10.79,3.29,1.46,2-2.17v-3.61l-.92-3.2.92-3.37Zm-10.82-4.29v1.89l-.16-2Z"/><polygon class="cls-1" points="731.31 450.17 732.73 441.69 729.88 436.07 728.34 428.08 727.44 422.07 725.66 424.27 724.3 426.31 723.2 430.97 722.87 431.71 720.47 426.97 718.93 418.98 718.03 412.97 716.25 415.17 714.88 417.21 713.79 421.87 711.09 427.88 711.09 439.51 709.14 451.14 711.09 458.25 712.15 461.13 716.15 459.43 716.24 465.65 715.71 468.46 718.93 469.32 718.03 458.53 718.78 458.87 718.55 460.24 720.5 467.35 721.56 470.23 725.57 468.52 725.66 474.75 725.12 477.56 728.35 478.41 727.44 467.63 730.73 469.09 732.76 466.92 732.76 463.3 731.85 460.1 732.76 456.74 731.31 450.17"/><polygon class="cls-1" points="751.42 459.33 749.97 452.77 751.38 444.29 748.53 438.66 746.99 430.67 746.1 424.66 744.32 426.86 742.95 428.9 741.85 433.56 739.15 439.58 739.15 451.2 737.2 462.83 739.15 469.95 740.21 472.82 744.22 471.12 744.31 477.34 743.77 480.15 747 481.01 746.1 470.23 749.38 471.68 751.42 469.51 751.42 465.9 750.5 462.7 751.42 459.33"/><polygon class="cls-1" points="625.32 462.44 626.74 453.97 623.89 448.34 622.35 440.35 621.45 434.34 619.67 436.54 618.3 438.58 617.21 443.24 614.51 449.25 614.51 460.88 612.55 472.51 614.51 479.63 615.57 482.5 619.57 480.8 619.66 487.02 619.13 489.83 622.35 490.69 621.45 479.9 624.74 481.36 626.77 479.19 626.77 475.58 625.85 472.38 626.77 469.01 625.32 462.44"/><polygon class="cls-1" points="688.66 470.82 690.08 462.34 687.23 456.72 685.69 448.73 684.79 442.71 683.01 444.92 681.64 446.95 680.55 451.62 679.96 452.93 680.49 451 679.04 444.43 680.46 435.95 677.61 430.32 676.07 422.34 675.17 416.32 673.39 418.53 672.02 420.56 670.92 425.23 668.22 431.24 668.22 442.87 666.27 454.5 668.22 461.61 669.28 464.48 673.29 462.78 673.38 469 672.85 471.82 676.07 472.67 675.17 461.89 677.85 463.07 677.85 469.26 675.9 480.89 677.85 488 678.91 490.88 682.91 489.17 683 495.4 682.47 498.21 685.7 499.06 684.79 488.28 688.08 489.73 690.11 487.57 690.11 483.95 689.2 480.75 690.11 477.39 688.66 470.82"/><path class="cls-1" d="M650.81,471.75l1.42-8.48-2.85-5.62-1.54-8-.9-6-1.78,2.21-.71,1.07-.21-.72.92-3.37-1.45-6.57,1.42-8.47-2.85-5.63-1.54-8-.9-6-1.78,2.2-1.37,2-1.09,4.66-2.71,6V434.7l-1.95,11.63,1.95,7.11,1.06,2.88,4-1.71.09,6.23-.54,2.81,2.49.66v5.88l-2,11.63,2,7.11,1.06,2.88,4-1.71.09,6.23-.54,2.81,3.23.85-.91-10.78,3.29,1.45,2-2.16v-3.62l-.91-3.2.91-3.36ZM640.2,458.11l-.36-4.39,1.95.86Z"/><polygon class="cls-7" points="237.77 256.36 238.45 260.89 239.07 264.1 239.49 261.89 239.4 255.67 237.77 256.36"/><polygon class="cls-7" points="246.04 240.3 246.04 231.98 245.14 237.32 245.94 240.91 246.04 240.3"/><polygon class="cls-7" points="256.99 241.02 256.85 241.87 256.88 242.01 257 241.41 256.99 241.02"/><polygon class="cls-1" points="213.51 225.07 215.54 222.9 215.54 219.29 214.62 216.09 215.54 212.72 214.09 206.16 215.51 197.68 212.66 192.05 211.12 184.06 210.22 178.05 208.44 180.25 207.07 182.29 205.97 186.95 203.27 192.97 203.27 204.59 201.32 216.22 203.27 223.34 204.33 226.21 208.34 224.5 208.43 230.73 207.9 233.54 211.12 234.4 210.22 223.61 213.51 225.07"/><path class="cls-1" d="M253.88,270.11l-.9-10.79,3.29,1.46,2-2.17V255l-.92-3.2.92-3.37-.87-4,2.26.6-.91-10.78,3.29,1.46,2-2.17V230l-.91-3.2.91-3.36-1.45-6.57,1.42-8.48-2.85-5.62-1.54-8-.9-6-1.78,2.2-1.36,2-1.1,4.66-2.7,6v11.53l-.64.79-1.37,2-1.09,4.66-2.5,5.55-2.53-5-1.54-8-.9-6-1.78,2.21-1.36,2-1.1,4.66-2.7,6v11.63l-2,11.63,2,7.11,1.06,2.87.25-.1-1.24,1.85-1.09,4.66-2.7,6v11.63l-2,11.63,2,7.11,1.06,2.88,4-1.71.09,6.23-.53,2.81,3.22.85-.9-10.78,3.29,1.46,2-2.17v-3.61l-.92-3.21.92-3.36L241.42,283l1.42-8.48L240,268.88l-.79-4.11,3,.79-.91-10.78,3.29,1.45.55-.58L246,259l1.06,2.88,4-1.7.09,6.22-.53,2.81Zm-14.81-6-.62-3.21-.68-4.53,1.63-.69.09,6.22ZM246,232v8.32l-.1.61-.8-3.59Zm10.81,9.88L257,241v.39l-.12.6Z"/><polygon class="cls-1" points="225.99 273.18 227.41 264.7 225.39 260.72 225.39 257.5 224.47 254.3 225.39 250.94 224.04 244.81 225.01 245.07 224.62 240.32 225.36 235.89 224.67 234.54 227.4 235.75 229.43 233.58 229.43 229.96 228.51 226.76 229.43 223.4 227.98 216.83 229.4 208.35 226.55 202.73 225.01 194.74 224.11 188.72 222.33 190.93 220.96 192.97 219.87 197.63 217.17 203.64 217.17 215.27 215.32 226.3 213.13 231.18 213.13 242.81 211.18 254.44 213.13 261.55 214.19 264.43 215.18 264 215.18 271.62 213.22 283.25 215.18 290.36 216.23 293.23 220.24 291.53 220.33 297.75 219.79 300.57 223.02 301.42 222.12 290.64 225.41 292.09 227.44 289.93 227.44 286.31 226.52 283.11 227.44 279.75 225.99 273.18"/><polygon class="cls-1" points="267.51 287.95 266.06 281.38 267.48 272.9 264.63 267.28 263.09 259.29 262.19 253.28 260.41 255.48 259.05 257.52 257.95 262.18 255.25 268.19 255.25 279.82 253.3 291.45 255.25 298.56 256.31 301.44 260.32 299.73 260.41 305.96 259.87 308.77 263.1 309.62 262.19 298.84 265.48 300.3 267.51 298.13 267.51 294.51 266.6 291.31 267.51 287.95"/><polygon class="cls-7" points="305.62 323.64 305.53 317.42 302.85 318.56 303.1 319.84 305.46 324.5 305.62 323.64"/><path class="cls-1" d="M312.73,305.63l-1.45-6.56,1.42-8.48L309.85,285l-1.54-8-.9-6-1.78,2.2-1.37,2-1.09,4.66-2.7,6v11.63l-1.83,10.9-1.13,1.67-1.09,4.66-2.7,6v11.63l-2,11.63,2,7.11,1.06,2.88,4-1.7.09,6.22-.53,2.81,3.22.86-.9-10.79,3.29,1.46,2-2.17v-3.61l-.91-3.2.91-3.37-1.45-6.57,1.23-7.31,2.55.68-.9-10.79L310.7,318l2-2.17V312.2l-.92-3.2Zm-9.63,14.21-.25-1.28,2.68-1.14.09,6.22-.16.86Z"/><polygon class="cls-1" points="292.05 333.08 292.05 329.46 291.14 326.26 292.05 322.9 290.6 316.33 292.02 307.85 289.17 302.23 287.63 294.24 286.73 288.23 284.95 290.43 283.59 292.47 282.49 297.13 279.79 303.14 279.79 314.77 277.84 326.4 279.79 333.51 280.85 336.39 284.86 334.68 284.95 340.91 284.41 343.72 287.64 344.57 286.73 333.79 290.02 335.25 292.05 333.08"/><polygon class="cls-1" points="285.28 414.63 285.37 420.85 284.83 423.67 288.06 424.52 287.15 413.74 290.44 415.19 292.48 413.02 292.48 409.41 291.56 406.21 292.48 402.84 291.02 396.28 292.44 387.8 289.59 382.17 288.05 374.19 287.15 368.17 285.38 370.37 284.01 372.41 282.91 377.07 280.21 383.09 280.21 394.72 278.26 406.34 280.21 413.46 281.27 416.33 285.28 414.63"/><polygon class="cls-1" points="319.76 407.39 318.31 400.83 319.73 392.35 316.88 386.72 315.33 378.74 314.44 372.72 312.66 374.92 311.29 376.96 310.19 381.62 307.49 387.64 307.49 399.26 305.54 410.89 307.49 418.01 308.55 420.88 312.56 419.18 312.65 425.4 312.12 428.21 315.34 429.07 314.44 418.29 317.73 419.74 319.76 417.57 319.76 413.96 318.84 410.76 319.76 407.39"/><polygon class="cls-1" points="304.06 393.78 305.48 385.31 302.63 379.68 301.09 371.69 300.19 365.68 298.41 367.88 297.04 369.92 295.95 374.58 293.25 380.59 293.25 392.22 291.3 403.85 293.25 410.96 294.31 413.84 298.31 412.13 298.4 418.36 297.87 421.17 301.09 422.03 300.19 411.24 303.48 412.7 305.51 410.53 305.51 406.92 304.59 403.72 305.51 400.35 304.06 393.78"/><polygon class="cls-1" points="280.23 387.2 281.65 378.72 278.8 373.1 277.26 365.11 276.36 359.1 274.58 361.3 273.21 363.34 272.12 368 269.42 374.01 269.42 385.64 267.46 397.27 269.42 404.38 270.48 407.26 274.48 405.55 274.57 411.78 274.04 414.59 277.26 415.44 276.36 404.66 279.65 406.12 281.68 403.95 281.68 400.33 280.76 397.13 281.68 393.77 280.23 387.2"/><polygon class="cls-7" points="338.35 366.42 337.99 367.74 338.3 368.83 338.35 368.54 338.35 366.42"/><polygon class="cls-7" points="356.72 370.07 356.9 369.04 356.4 368.82 357.01 376.08 357.39 375.52 358.01 374.75 356.72 370.07"/><path class="cls-1" d="M363,401.42l1.42-8.48-2.85-5.62-1.43-7.45,3.57-1.52.09,6.23-.54,2.81,3.23.85-.9-10.78,3.29,1.46,2-2.17v-3.61l-.92-3.2.92-3.37L369.49,360l1.41-8.47-2.85-5.63-1.54-8-.89-6-1.78,2.2-1.37,2-1.1,4.66-.34.77-2.19-4.32-1.54-8-.9-6-1.78,2.2-1.37,2-1.09,4.66-2.7,6V349.8L348.25,357l-.52-1-1.54-8-.9-6-1.78,2.2-1.36,2-1.1,4.66-2.7,6v4.94l-.89-4,1.42-8.48L336,343.7l-1.55-8-.89-6-1.78,2.2-1.37,2-1.1,4.66-2.7,6v11.63l-1.95,11.62,1.95,7.12,1.06,2.87,4-1.7.09,6.22-.54,2.82,3.23.85-.9-10.78,3.29,1.45.12-.13-.6,3.58,2,7.11,1.06,2.88,4-1.71.09,6.23-.54,2.81,3.23.85-.91-10.78,3.29,1.46,2-2.17v-3.61L349.7,380l.91-3.36-1.45-6.57.28-1.64,0,.08,1.06,2.87,4-1.7.09,6.22-.53,2.82,1.56.41-.72,3.06-2.7,6v11.63l-2,11.63,2,7.11,1.06,2.88,4-1.71.09,6.23-.54,2.81,3.23.85-.91-10.78,3.29,1.46,2-2.17v-3.61l-.92-3.2.92-3.37Zm-25-33.68.36-1.32v2.12l-.05.29Zm19,8.34-.61-7.26.5.22-.18,1,1.29,4.68-.62.77Z"/><polygon class="cls-1" points="379.99 411.94 378.54 405.37 379.95 396.89 377.1 391.27 375.56 383.28 374.67 377.27 372.89 379.47 371.52 381.51 370.42 386.17 367.72 392.18 367.72 403.81 365.77 415.44 367.72 422.55 368.78 425.43 372.79 423.72 372.88 429.95 372.34 432.76 375.57 433.61 374.67 422.83 377.95 424.29 379.99 422.12 379.99 418.5 379.07 415.3 379.99 411.94"/><polygon class="cls-1" points="631.27 382.65 629.82 376.08 631.24 367.61 628.39 361.98 626.85 353.99 625.95 347.98 624.17 350.18 622.8 352.22 621.71 356.88 619 362.89 619 374.52 617.05 386.15 619 393.26 620.06 396.14 624.07 394.44 624.16 400.66 623.62 403.47 626.85 404.33 625.95 393.54 629.24 395 631.27 392.83 631.27 389.22 630.35 386.02 631.27 382.65"/><polygon class="cls-1" points="614.99 379.26 616.41 370.78 613.56 365.16 612.02 357.17 611.12 351.16 609.34 353.36 607.98 355.4 606.88 360.06 605.01 364.23 604.76 363.11 606.18 354.63 603.33 349 601.79 341.01 600.89 335 599.11 337.2 597.74 339.24 596.65 343.9 593.95 349.92 593.95 361.55 592.95 367.5 592.19 363.57 591.29 357.55 589.51 359.75 588.14 361.79 587.05 366.45 584.35 372.47 584.35 384.1 582.39 395.73 584.35 402.84 585.4 405.71 589.41 404.01 589.5 410.23 588.97 413.05 592.19 413.9 591.29 403.12 594.58 404.57 596.61 402.41 596.61 398.79 595.69 395.59 596.61 392.23 595.16 385.66 595.62 382.9 599.01 381.46 599.1 387.68 598.57 390.5 601.79 391.35 600.89 380.56 603.5 381.72 602.23 389.33 604.18 396.44 605.24 399.32 609.25 397.61 609.34 403.84 608.8 406.65 612.03 407.5 611.12 396.72 614.41 398.18 616.44 396.01 616.44 392.39 615.53 389.19 616.44 385.83 614.99 379.26"/><polygon class="cls-1" points="591.58 335.96 591.67 342.19 591.14 345 594.36 345.86 593.46 335.07 596.75 336.53 598.78 334.36 598.78 330.75 597.86 327.55 598.78 324.18 597.33 317.61 598.75 309.14 595.9 303.51 594.36 295.52 593.46 289.51 591.68 291.71 590.31 293.75 589.22 298.41 586.52 304.42 586.52 316.05 584.57 327.68 586.52 334.79 587.58 337.67 591.58 335.96"/><polygon class="cls-1" points="547.14 280.16 545.69 273.6 547.11 265.12 544.26 259.49 542.72 251.5 541.82 245.49 540.04 247.69 538.68 249.73 537.58 254.39 534.88 260.41 534.88 272.04 532.93 283.66 534.88 290.78 535.94 293.65 539.95 291.95 540.04 298.17 539.5 300.99 542.73 301.84 541.82 291.06 545.11 292.51 547.14 290.35 547.14 286.73 546.23 283.53 547.14 280.16"/><polygon class="cls-1" points="530.15 257.67 531.57 249.19 528.72 243.57 527.18 235.58 526.28 229.57 524.5 231.77 523.13 233.81 522.04 238.47 519.34 244.48 519.34 256.11 519.12 257.39 519.12 257.31 518.21 254.1 519.12 250.74 517.67 244.17 519.09 235.69 516.24 230.07 514.7 222.08 513.8 216.07 512.02 218.27 510.65 220.31 509.56 224.97 506.86 230.98 506.86 242.61 505.47 250.91 505.39 250.42 503.62 252.62 502.25 254.66 501.15 259.32 498.45 265.33 498.45 276.96 496.5 288.59 498.45 295.7 499.51 298.58 503.52 296.88 503.61 303.1 503.07 305.91 506.3 306.76 505.39 295.98 508.68 297.44 510.71 295.27 510.71 291.66 509.8 288.46 510.71 285.09 509.26 278.52 510.68 270.05 507.83 264.42 507.66 263.53 507.92 264.23 511.92 262.52 512.01 268.75 511.48 271.56 514.7 272.41 513.8 261.63 517.09 263.09 518.4 261.69 517.39 267.74 519.34 274.85 520.4 277.73 524.4 276.02 524.49 282.25 523.96 285.06 527.18 285.91 526.28 275.13 529.57 276.59 531.6 274.42 531.6 270.81 530.68 267.6 531.6 264.24 530.15 257.67"/><polygon class="cls-1" points="493.03 245.72 494.45 237.24 491.6 231.62 490.06 223.63 489.16 217.61 487.38 219.82 486.01 221.85 484.92 226.52 482.21 232.53 482.21 244.16 480.26 255.79 482.21 262.9 483.27 265.77 487.28 264.07 487.37 270.3 486.84 273.11 490.06 273.96 489.16 263.18 492.45 264.63 494.48 262.47 494.48 258.85 493.56 255.65 494.48 252.29 493.03 245.72"/><polygon class="cls-7" points="563.17 352.24 561.29 353.04 562.42 358.9 562.97 359.98 563.26 358.46 563.17 352.24"/><polygon class="cls-7" points="569.46 343.81 569.45 343.82 569.46 343.84 569.46 343.81"/><path class="cls-1" d="M581.72,352.3l-1.45-6.57,1.42-8.48-2.85-5.63-1.54-8-.9-6-1.78,2.21-1.37,2-1.09,4.66-2.7,6v3.79l-.54-2.44,1.42-8.48-2.85-5.63-1.54-8-.9-6L563.27,308l-1.37,2-1.09,4.66-2.7,6v11.63l-.52,3.09-1.2-5.43,1.42-8.48L555,315.88l-1.54-8-.9-6-1.78,2.2-1.37,2-1.09,4.66-2.7,6v11.62l-2,11.63,2,7.12,1.06,2.87,4-1.7.09,6.22-.53,2.81,3.22.86-.9-10.79,3.29,1.46,1.32-1.41.23.86-.52.79-1.1,4.66-2.7,6v11.63l-1.95,11.63,1.95,7.11,1.06,2.88,4-1.71.09,6.23-.54,2.81,3.23.85-.9-10.78,3.29,1.45,2-2.16v-3.62l-.92-3.2.92-3.36L563.85,373l1.42-8.48-1.5-3,2.18.58-.9-10.78,3,1.32-.52,3.13,2,7.11,1.06,2.87,4-1.7.09,6.22-.53,2.82,3.22.85-.9-10.78,3.29,1.45,2-2.16v-3.62l-.91-3.2Zm-19.3,6.6L561.29,353l1.88-.8.09,6.22L563,360Zm7-15.1v0Z"/><polygon class="cls-1" points="543.04 352.15 544.46 343.67 541.61 338.05 540.07 330.06 539.17 324.05 537.39 326.25 536.02 328.29 534.93 332.95 532.23 338.96 532.23 350.59 530.27 362.22 532.23 369.33 533.28 372.21 537.29 370.5 537.38 376.73 536.85 379.54 540.07 380.39 539.17 369.61 542.46 371.06 544.49 368.9 544.49 365.28 543.57 362.08 544.49 358.72 543.04 352.15"/><polygon class="cls-1" points="531.05 351.27 531.05 347.66 530.14 344.46 531.05 341.09 529.6 334.53 531.02 326.05 528.17 320.42 526.63 312.44 525.73 306.42 523.96 308.62 522.59 310.66 521.49 315.32 518.79 321.34 518.79 332.96 516.84 344.59 518.79 351.71 519.85 354.58 523.86 352.88 523.95 359.1 523.41 361.92 526.64 362.77 525.73 351.99 529.02 353.44 531.05 351.27"/><polygon class="cls-1" points="797.34 559.74 798.99 549.88 795.68 543.33 793.88 534.04 792.84 527.05 790.77 529.61 789.18 531.98 787.91 537.4 784.77 544.39 784.77 557.92 784.51 559.46 783.94 558.33 782.15 549.04 781.1 542.05 779.03 544.61 777.44 546.98 776.17 552.4 773.03 559.4 773.03 572.92 771.59 581.52 770.6 578.09 771.67 574.18 769.98 566.54 771.63 556.68 768.32 550.14 766.52 540.85 765.48 533.85 763.41 536.41 761.82 538.79 760.55 544.21 757.41 551.2 757.41 564.73 757.32 565.24 756.33 563.29 754.54 554 753.49 547 751.42 549.57 749.83 551.94 748.56 557.36 745.42 564.35 745.42 577.88 743.15 591.4 745.42 599.67 746.65 603.02 751.31 601.03 751.42 608.27 750.79 611.54 754.54 612.54 753.49 600 757.32 601.69 759.68 599.17 759.68 594.97 758.62 591.24 759.04 589.7 763.3 587.88 763.4 595.12 762.78 598.39 766.53 599.39 765.48 586.85 769.31 588.54 770.87 586.87 773.03 594.72 774.26 598.06 778.92 596.08 779.02 603.32 778.4 606.59 782.15 607.58 781.1 595.04 784.93 596.74 787.29 594.22 787.29 590.01 786.22 586.29 787.25 582.53 790.66 581.08 790.76 588.32 790.14 591.59 793.89 592.58 792.84 580.04 796.67 581.73 799.03 579.21 799.03 575.01 797.96 571.29 799.03 567.37 797.34 559.74"/><polygon class="cls-1" points="831.07 580.55 829.38 572.91 831.03 563.05 827.72 556.5 825.92 547.22 824.88 540.22 822.81 542.78 821.22 545.15 819.95 550.57 817.17 556.76 816.67 555.78 814.88 546.5 813.84 539.5 811.77 542.06 810.17 544.43 808.9 549.85 805.76 556.85 805.76 570.37 803.49 583.9 805.76 592.17 806.99 595.51 811.65 593.53 811.76 600.77 811.13 604.04 814.88 605.03 813.84 592.49 817.21 593.99 818.03 596.23 822.7 594.25 822.8 601.49 822.18 604.76 825.93 605.75 824.88 593.21 828.7 594.91 831.07 592.39 831.07 588.18 830 584.46 831.07 580.55"/></g></svg>