<svg xmlns="http://www.w3.org/2000/svg" xmlns:xlink="http://www.w3.org/1999/xlink" viewBox="0 0 260.27 374.78"><defs><style>.cls-1{fill:#203c3c;}.cls-2{fill:#317872;}.cls-3{fill:#3b8d81;}.cls-4{fill:url(#linear-gradient);}.cls-5{fill:#020f13;}</style><linearGradient id="linear-gradient" x1="4195.95" y1="5924.32" x2="4195" y2="6000.57" gradientTransform="matrix(0.6, -0.03, -0.05, -0.84, -2157.35, 5401.93)" gradientUnits="userSpaceOnUse"><stop offset="0" stop-color="#317872"/><stop offset="0.18" stop-color="#317872"/><stop offset="0.22" stop-color="#2f756e"/><stop offset="0.47" stop-color="#21645b"/><stop offset="0.73" stop-color="#1a5a50"/><stop offset="1" stop-color="#17574c"/></linearGradient></defs><g id="fisherman"><path class="cls-1" d="M66.26,288.22s4.66,11.51,31.55,16.94,58.32,1.42,76.75,1.33,84.64,2.7,85.68-1.48-25.71-16.15-31.15-26.19-18.24-25.3-18.24-25.3l-31.41-7s-41.15-22.43-58.4-16.81S63,252,58.3,259,66.26,288.22,66.26,288.22Z"/><path class="cls-2" d="M94.72,215l-35.2,42.63s44,25.53,71.89,20c30.52-6.06,70.74-26.08,70.74-26.08S166,241.76,158,233.68a244.06,244.06,0,0,0-20.28-17.42S103.8,207.51,94.72,215Z"/><path class="cls-3" d="M77.41,230.48s-13.82,19.1-11.17,20.89c1.52,1,36.31-26.48,38.48-26.3,6,.5,49.95,16.37,49.95,16.37l41.38,8.38s-52.72-34.53-57.75-37.91c-11.14-7.48-40.77-4.09-48.22.64S77.41,230.48,77.41,230.48Z"/><path class="cls-4" d="M89.35,228.78s-4.48,6.71-9.72,14.79c-6,9.31,23.55,19.13,30.13,15.27s2.76-33.91,1.33-39.87,6.94-9-5.25-12.25c-6.52-1.75-18.9-5.16-17.6,2.44S91.36,222.11,89.35,228.78Z"/><path class="cls-5" d="M92.48,165.55a5.58,5.58,0,0,1-4.27-5.33c-.35-4.63,0-10,4.27-8.54s7.47,9.6,6,13.87c0,0,7.83,1.42,11,16s5,29.2,2.49,30.43S98.52,218.54,95,217.47s-10.22.14-10.22.14l-7.34,12.87s-3.78-12.61-1.65-18.5a9,9,0,0,1,8.18-5.89Z"/><path class="cls-5" d="M12,212l-.87-.5C45.58,151,23.42,6.46,23.19,5l1.94-.48,63.92,188.9-2,4.62L24.83,8.07c1.79,14,6.5,47.54,7.4,77.26C33.45,125.69,30.21,180,12,212Z"/></g></svg>