<svg xmlns="http://www.w3.org/2000/svg" xmlns:xlink="http://www.w3.org/1999/xlink" viewBox="0 0 260.95 374.78"><defs><style>.cls-1{fill:url(#linear-gradient);}.cls-2{fill:#69cca6;}.cls-3{fill:#203c3c;}.cls-4{fill:#317872;}.cls-5{fill:#3b8d81;}.cls-6{fill:url(#linear-gradient-2);}.cls-7{fill:#020f13;}</style><linearGradient id="linear-gradient" x1="35.21" y1="332" x2="260.95" y2="332" gradientUnits="userSpaceOnUse"><stop offset="0" stop-color="#2b8d7d"/><stop offset="0.07" stop-color="#298677"/><stop offset="0.58" stop-color="#17574c"/><stop offset="0.72" stop-color="#18534a"/><stop offset="0.86" stop-color="#1c4843"/><stop offset="0.95" stop-color="#203c3c"/></linearGradient><linearGradient id="linear-gradient-2" x1="4466" y1="5898.18" x2="4465.04" y2="5974.43" gradientTransform="matrix(0.6, -0.03, -0.05, -0.84, -2320.36, 5388.64)" gradientUnits="userSpaceOnUse"><stop offset="0" stop-color="#317872"/><stop offset="0.18" stop-color="#317872"/><stop offset="0.22" stop-color="#2f756e"/><stop offset="0.47" stop-color="#21645b"/><stop offset="0.73" stop-color="#1a5a50"/><stop offset="1" stop-color="#17574c"/></linearGradient></defs><g id="fisherman"><path class="cls-1" d="M44.72,313.38s4.93-10.81,33.37-15.91,61.67-1.34,81.16-1.26,100.57,5.75,101.67,9.68-28.48,10.7-34.23,20.14-29.06,20-29.06,20l-33.22,6.58s-43.52,21.07-61.76,15.79-61.4-21-66.34-27.53S44.72,313.38,44.72,313.38Z"/><polygon class="cls-2" points="69.06 266.24 11.82 212.36 13.19 211.98 70.24 264.62 69.06 266.24"/><path class="cls-3" d="M66.94,288.22s4.66,11.51,31.55,16.94,58.32,1.42,76.75,1.33,84.64,2.7,85.68-1.48-25.71-16.15-31.15-26.19-18.23-25.3-18.23-25.3l-31.42-7s-41.15-22.43-58.4-16.81S63.66,252,59,259,66.94,288.22,66.94,288.22Z"/><path class="cls-4" d="M95.4,215,60.21,257.66s44,25.53,71.88,20c30.52-6.06,70.74-26.08,70.74-26.08s-36.15-9.82-44.2-17.9a244.06,244.06,0,0,0-20.28-17.42S104.48,207.51,95.4,215Z"/><path class="cls-5" d="M78.09,230.48s-13.82,19.1-11.17,20.89c1.52,1,36.31-26.48,38.48-26.3,6,.5,49.95,16.37,49.95,16.37l41.39,8.38S144,215.29,139,211.91c-11.13-7.48-40.77-4.09-48.22.64S78.09,230.48,78.09,230.48Z"/><path class="cls-6" d="M90,228.78s-4.48,6.71-9.72,14.79c-6,9.31,23.55,19.13,30.14,15.27s2.75-33.91,1.32-39.87,6.94-9-5.25-12.25c-6.52-1.75-18.89-5.16-17.6,2.44S92,222.11,90,228.78Z"/><path class="cls-7" d="M93.16,165.55a5.58,5.58,0,0,1-4.27-5.33c-.35-4.63,0-10,4.27-8.54s7.47,9.6,6,13.87c0,0,7.82,1.42,11,16s5,29.2,2.49,30.43-13.51,6.56-17.07,5.49-10.21.14-10.21.14l-7.35,12.87s-3.78-12.61-1.64-18.5a9,9,0,0,1,8.18-5.89Z"/><path class="cls-7" d="M12.69,212l-.87-.5C46.26,151,24.1,6.46,23.88,5l1.93-.48,63.92,188.9-2,4.62L25.51,8.07c1.79,14,6.5,47.54,7.4,77.26C34.13,125.69,30.9,180,12.69,212Z"/></g></svg>