<svg xmlns="http://www.w3.org/2000/svg" viewBox="0 0 2409.58 644.11"><defs><style>.cls-1{fill:#17574c;}.cls-2{fill:#203c3c;}.cls-3{fill:#020f13;}</style></defs><g id="front_rocks" data-name="front rocks"><path class="cls-1" d="M1667.26,739l33.52-203.85s48.31-64.89,113.78-150.76,90.79-187.07,206.84-125.74,127,102.16,155.77,125.45,39.08,84.58,73.34,89.21,99.56,252.64,105.68,259.17S1667.26,739,1667.26,739Z"/><path class="cls-2" d="M1135.06,738.77s99-158.69,125.74-233.71,71.86-112.69,176.16-90.81,145.28,39.48,193.1,79,98.33,245.55,98.33,245.55Z"/><path class="cls-1" d="M4.73,600.32S4.61,388.23,72,355.25s198.36-18.16,319.71,52.45,109,188.49,109,188.49L539.66,739H4.39Z"/><path class="cls-2" d="M744.23,734.91S684,390.34,638.78,300.89,438.72,89,422.66,107.86s-150.16,113-150.16,113L263,281,191,734.91H744.23Z"/><path class="cls-3" d="M435.83,599.85C626.91,527.79,765,387.55,886.09,377c93-8.08,220.89,21.47,275.16,35.61a72.43,72.43,0,0,1,40.47,27.77c33.54,46.58,118.5,156.05,178.3,159.45,76,4.32,171.42,44.85,180.72,139.1H362.45S367.67,625.56,435.83,599.85Z"/><path class="cls-2" d="M2010.26,739s18-268,101.11-347,69.11-206.37,69.11-206.37S2183.26,36.17,2312,18.23C2424.1,2.62,2497.66,0,2497.66,0l-.47,739Z"/><path class="cls-3" d="M198.85,746.76s31.32-107-51.33-200.47S-70,317.74-70,317.74v429Z"/><path class="cls-3" d="M2089.58,619.05c-111.35-65.28-190.36-102.19-260.93-111.73s-177-51.43-177-51.43-136.51,101.37-180.82,105.28-31.38,98.52-36.8,183.9h698.29S2129.3,642.34,2089.58,619.05Z"/><path class="cls-3" d="M755,652.05C643.61,594.4,553,504.24,482.46,495.81s-227.19,72.46-227.19,72.46S122.38,580.4,78.08,583.86s-31.38,87-36.8,162.38H739.57S794.68,672.61,755,652.05Z"/><path class="cls-3" d="M2498.47,653.33c-87.17-45.13-150.16-133-205.42-139.55s-137.41,26.76-137.41,26.76-53.24,110.08-87.93,112.79-78.2,28.09-82.44,87.11H2532S2529.57,669.43,2498.47,653.33Z"/></g></svg>