<svg xmlns="http://www.w3.org/2000/svg" xmlns:xlink="http://www.w3.org/1999/xlink" viewBox="0 0 2411.47 916.68"><defs><style>.cls-1{fill:#020f13;}.cls-2{stroke:#f2f2f2;stroke-miterlimit:10;fill:url(#linear-gradient);}.cls-3{fill:url(#linear-gradient-2);}.cls-4{fill:url(#linear-gradient-3);}.cls-5{fill:url(#linear-gradient-4);}.cls-6{fill:#69cca6;}</style><linearGradient id="linear-gradient" x1="1217.84" y1="-210.18" x2="1203.85" y2="910.82" gradientUnits="userSpaceOnUse"><stop offset="0.18" stop-color="#f2f2f2"/><stop offset="0.32" stop-color="#c5eadb"/><stop offset="0.48" stop-color="#96e2c2"/><stop offset="0.57" stop-color="#92e0c0"/><stop offset="0.66" stop-color="#87dbb9"/><stop offset="0.74" stop-color="#74d2ad"/><stop offset="0.78" stop-color="#69cca6"/></linearGradient><linearGradient id="linear-gradient-2" x1="1738.71" y1="477.08" x2="2175.63" y2="-152.21" gradientUnits="userSpaceOnUse"><stop offset="0" stop-color="#2b8d7d"/><stop offset="0.07" stop-color="#298677"/><stop offset="0.58" stop-color="#17574c"/><stop offset="0.72" stop-color="#18534a"/><stop offset="0.86" stop-color="#1c4843"/><stop offset="0.95" stop-color="#203c3c"/></linearGradient><linearGradient id="linear-gradient-3" x1="918.05" y1="464.85" x2="-102.82" y2="-87.39" gradientUnits="userSpaceOnUse"><stop offset="0.18" stop-color="#2b8d7d"/><stop offset="0.24" stop-color="#298677"/><stop offset="0.67" stop-color="#17574c"/><stop offset="0.78" stop-color="#18534a"/><stop offset="0.88" stop-color="#1c4843"/><stop offset="0.95" stop-color="#203c3c"/></linearGradient><linearGradient id="linear-gradient-4" x1="1457.97" y1="501.4" x2="1683.72" y2="501.4" xlink:href="#linear-gradient-2"/></defs><g id="water"><path class="cls-1" d="M1617.89,382.92s2.28,11.56-2.13,16.55-11.17,18.5-10.87,19-9.17,11.62-14,4.56-6-18.87-6-18.87l4.12-15.44s5.49-8.67,9.36-9.67S1614.43,376.07,1617.89,382.92Z"/><rect class="cls-2" x="3.26" y="-27.27" width="2412.79" height="945.93"/><polygon class="cls-3" points="2416.05 0.02 1105.18 -21.96 1105.18 -21.96 1119.76 89.72 1250.62 112.8 1385.5 190.18 1453.51 230.44 1605.27 258.38 1703.76 377.5 1760.35 428.19 1810.8 443.19 1890.8 521.94 1926.88 579.38 1961.83 626.14 2110.91 695.22 2223.28 716.68 2368.92 760.18 2415.82 913.36 2415.69 165.55 2416.05 0.02"/><polygon class="cls-4" points="1217.88 -38.96 1217.88 -53.08 1125.48 -47.28 1083.09 -38.96 1053.69 -63.17 1001.29 -71.9 878.19 -104.86 0.63 -113.03 3.33 -36.87 3.33 459.67 4.78 655.81 471.62 747.84 598.07 711.86 671.91 705.52 705.51 630.92 779.09 569.98 840.43 479.87 900.94 374.53 1019.36 284.85 1064.13 114 1119.76 89.72 1191.24 40.23 1248.24 11.76 1287.68 -20.2 1217.88 -38.96"/><path class="cls-5" d="M1467.48,482.78s4.93-10.81,33.37-15.91,61.67-1.34,81.16-1.25,100.57,5.74,101.68,9.67-28.48,10.7-34.23,20.14-29.06,19.95-29.06,19.95L1587.18,522s-43.53,21.07-61.76,15.79-61.4-21-66.35-27.53S1467.48,482.78,1467.48,482.78Z"/><polygon class="cls-6" points="1491.83 435.64 1434.59 381.76 1435.95 381.38 1493 434.02 1491.83 435.64"/></g></svg>