<svg width="36" height="36" viewBox="0 0 36 36" fill="none" xmlns="http://www.w3.org/2000/svg">
<path fill-rule="evenodd" clip-rule="evenodd" d="M24.0839 18.56C24.1143 18.5026 24.1413 18.4441 24.1661 18.3845C24.1897 18.3249 24.2111 18.2653 24.2291 18.2045C24.2471 18.1438 24.2617 18.0841 24.2729 18.0223C24.2853 17.9593 24.2943 17.8974 24.3011 17.8333C24.3067 17.7714 24.3101 17.7095 24.3101 17.6465C24.3101 17.5835 24.3067 17.5228 24.3011 17.4598C24.2943 17.3956 24.2853 17.3338 24.2729 17.2708C24.2617 17.21 24.2471 17.1493 24.2291 17.0896C24.2111 17.0278 24.1897 16.9681 24.1661 16.9096C24.1413 16.8489 24.1143 16.7904 24.0839 16.733C24.0547 16.6779 24.0232 16.6239 23.9883 16.5699C23.9501 16.5136 23.9096 16.4596 23.8668 16.4056C23.8443 16.3798 23.8286 16.3494 23.8049 16.3224L14.6767 6.2705C13.9443 5.465 12.7001 5.40538 11.8957 6.13663C11.0902 6.86788 11.0306 8.11213 11.7618 8.91763L19.6886 17.6465L11.7618 26.3754C11.0306 27.1809 11.0902 28.4251 11.8957 29.1564C12.2726 29.4984 12.7462 29.6683 13.2187 29.6683C13.7542 29.6683 14.2874 29.45 14.6767 29.0225L23.8049 18.9706C23.8286 18.9448 23.8443 18.9144 23.8668 18.8874C23.9096 18.8345 23.9501 18.7794 23.9883 18.7231C24.0232 18.6703 24.0547 18.6163 24.0839 18.56Z" fill="#282826"/>
</svg>
