<svg width="200" height="200" viewBox="0 0 200 200" fill="none" xmlns="http://www.w3.org/2000/svg">
<path d="M88.8988 69.0179L86.1424 68.6045L87.6653 58.5505L83.5307 57.7719C83.0007 57.7235 82.4873 57.5611 82.0258 57.2959C81.5644 57.0307 81.1657 56.6688 80.857 56.2352C80.5589 55.7624 80.3583 55.2347 80.2672 54.6832C80.176 54.1317 80.1962 53.5676 80.3264 53.024L81.3532 47.208C81.7598 45.189 83.6686 44.4516 85.35 44.7135L96.3755 46.4293C96.8858 46.4817 97.38 46.6377 97.8279 46.8877C98.2758 47.1377 98.6679 47.4765 98.9803 47.8833C99.5104 48.6202 99.7283 49.5364 99.5867 50.433L98.5599 56.9656C98.5104 57.458 98.3571 57.9343 98.11 58.3631C97.863 58.7919 97.5278 59.1635 97.1266 59.4532C96.8468 59.6396 96.5328 59.7685 96.2027 59.8324C95.8726 59.8963 95.5332 59.8939 95.204 59.8254L90.4217 59.0329L88.8988 69.0179ZM89.4983 56.0836L95.6313 57.1034C95.7342 56.9256 95.7998 56.7286 95.8242 56.5246L96.8372 49.992C96.8597 49.8253 96.8205 49.6562 96.7269 49.5165C96.5179 49.3047 96.2383 49.1772 95.9414 49.1582L84.9158 47.4354C84.9158 47.4354 84.1509 47.3183 84.0682 47.7179L83.0139 53.6511C82.9244 54.0006 82.966 54.3708 83.1311 54.6916C83.1793 54.7605 83.3309 54.981 83.9166 55.0568H83.9993L89.4983 56.0836Z" fill="#104162"/>
<path d="M46.8795 104.487V103.874C46.8654 104.078 46.8654 104.283 46.8795 104.487Z" fill="#104162"/>
<path d="M163.336 101.888L160.58 116.359C160.546 116.835 160.429 117.301 160.236 117.737C160.047 118.552 159.817 119.357 159.546 120.149C159.298 120.149 159.546 120.493 159.546 120.838C159.202 121.527 159.147 121.927 158.857 122.561C158.734 122.667 158.619 122.782 158.513 122.905C156.181 128.077 152.232 132.352 147.261 135.086C142.29 137.82 136.566 138.865 130.949 138.065L67.2075 129.452C62.7401 128.829 58.5441 126.941 55.1153 124.011C51.6865 121.08 49.1681 117.229 47.8577 112.913C47.8026 112.707 47.7405 112.507 47.6854 112.307L47.6234 112.1C47.5476 111.825 47.4925 111.549 47.4236 111.266C47.4115 111.154 47.386 111.042 47.3478 110.936C47.3478 110.825 47.3478 110.853 47.3478 110.805C47.3478 110.756 47.2995 110.563 47.272 110.439C47.2122 110.113 47.1571 109.789 47.1066 109.468C47.0932 109.317 47.0702 109.168 47.0377 109.02C47.0267 108.94 47.0267 108.859 47.0377 108.779C47.0421 108.632 47.0258 108.486 46.9894 108.345C46.9412 108.2 46.9894 108.152 46.9894 108.062L46.9481 107.649C46.9481 107.194 46.8861 106.739 46.8723 106.27V104.892C46.8723 104.768 46.8723 104.63 46.8723 104.493L45.8455 121.658V124.056C45.8455 124.518 45.8938 124.973 45.9282 125.434L45.9696 125.848C45.9855 126.169 46.0223 126.489 46.0798 126.806C46.0893 126.959 46.1123 127.111 46.1487 127.26C46.197 127.584 46.2521 127.908 46.3141 128.225C46.3261 128.351 46.3515 128.476 46.3899 128.597C46.4795 129.031 46.576 129.465 46.6931 129.893C46.705 129.963 46.7235 130.032 46.7482 130.099C46.8378 130.403 46.9205 130.685 47.017 130.995L47.203 131.574L47.5131 132.435C47.5683 132.573 47.6234 132.711 47.6716 132.849C47.8026 133.166 47.9335 133.476 48.0782 133.786C48.0782 133.876 48.154 133.965 48.1953 134.055C48.3745 134.448 48.5675 134.833 48.7742 135.219L48.9327 135.516C49.0843 135.805 49.2497 136.081 49.415 136.356L49.6425 136.729C49.8009 136.983 49.9663 137.238 50.1386 137.487L50.366 137.831C50.5865 138.141 50.8139 138.451 51.0551 138.748L51.1447 138.872C51.4065 139.209 51.6822 139.561 51.9647 139.857L52.2128 140.14L52.8468 140.829L53.1568 141.139C53.3774 141.359 53.5979 141.566 53.8459 141.773L54.1285 142.035C54.4455 142.317 54.7693 142.593 55.107 142.861L55.4033 143.089L55.9959 143.53L56.3749 143.792L56.8297 144.095L57.3328 144.412L57.9116 144.77L58.3526 145.018L58.9108 145.322L59.3794 145.549L59.9513 145.825L60.4406 146.031L61.0194 146.279L61.5225 146.465L61.998 146.638L62.5148 146.81C62.7146 146.865 62.9834 146.962 63.2039 147.031L63.3692 147.079L63.6173 147.141L64.6579 147.396L65.0713 147.478C65.5399 147.575 66.0085 147.658 66.4909 147.727L130.522 156.595C142.505 158.256 154.096 150.779 158.465 139.368C163.068 129.452 163.336 101.888 163.336 101.888Z" fill="#104162"/>
<path d="M143.007 75.1436L140.939 74.8472L78.9828 66.268C66.5791 64.5521 54.5612 73.4622 51.6739 86.3C51.5843 86.6928 51.5085 87.0925 51.4327 87.4991L49.0002 101.281C46.6228 114.76 55.1056 127.17 67.9159 128.941L131.981 137.81C144.385 139.533 156.396 130.63 159.276 117.826C159.366 117.427 159.449 117.027 159.517 116.62L161.957 102.838C164.314 89.3252 155.824 76.9145 143.007 75.1436ZM157.753 102.928L155.562 115.332C155.493 115.711 155.417 116.09 155.335 116.462C152.578 128.666 141.05 137.135 129.066 135.453L124.16 134.764L71.4303 127.46C59.0886 125.751 50.8814 113.947 53.1417 101.143L55.333 88.7394C55.4019 88.3604 55.4777 87.9814 55.5604 87.6093C58.3168 75.4054 69.8454 66.9364 81.8288 68.6247L142.807 77.3418C153.267 80.5254 159.834 91.3235 157.767 102.928H157.753Z" fill="#FBAA1D"/>
<path d="M135.062 138.368C134.006 138.366 132.951 138.292 131.906 138.148L67.8955 129.279C64.9159 128.871 62.0506 127.861 59.4739 126.31C56.8972 124.759 54.6631 122.7 52.9076 120.259C50.9424 117.537 49.5524 114.443 48.8226 111.166C48.0928 107.888 48.0384 104.497 48.6628 101.198L51.0953 87.4163C51.1711 87.0028 51.2469 86.5963 51.3365 86.2035C54.2858 73.1106 66.4484 64.1524 79.0313 65.9027L143.069 74.7783C146.049 75.1874 148.915 76.1987 151.491 77.7506C154.068 79.3026 156.302 81.3626 158.057 83.8054C160.023 86.5257 161.414 89.6185 162.143 92.8946C162.873 96.1707 162.927 99.5613 162.302 102.859L159.862 116.641C159.793 117.054 159.711 117.461 159.621 117.867C156.885 129.885 146.452 138.368 135.062 138.368ZM75.8821 66.3988C64.7945 66.3988 54.6441 74.668 52.0118 86.3826C51.9222 86.7685 51.8464 87.1682 51.7706 87.5679L49.3381 101.35C48.7345 104.555 48.7898 107.85 49.5006 111.033C50.2114 114.216 51.5629 117.222 53.4727 119.866C55.1733 122.233 57.3383 124.23 59.8358 125.733C62.3332 127.237 65.1107 128.216 67.9988 128.611L131.981 137.465C144.199 139.167 156.024 130.485 158.856 117.716C158.946 117.323 159.029 116.93 159.097 116.524L161.537 102.742C162.151 99.5426 162.108 96.252 161.41 93.07C160.712 89.888 159.375 86.8813 157.478 84.2327C155.783 81.8715 153.626 79.8785 151.139 78.3743C148.652 76.8701 145.885 75.8859 143.007 75.4811L140.898 75.1848L78.921 66.6056C77.9138 66.469 76.8986 66.3999 75.8821 66.3988ZM132.14 135.998C131.1 135.996 130.062 135.922 129.032 135.777L124.126 135.088L71.3961 127.784C68.5007 127.391 65.7155 126.413 63.21 124.909C60.7044 123.406 58.5309 121.409 56.8217 119.039C54.9699 116.472 53.6599 113.555 52.9716 110.465C52.2833 107.375 52.2311 104.178 52.818 101.067L55.0094 88.6636C55.0783 88.2777 55.1541 87.8918 55.2368 87.5197C58.0621 75.0125 69.7629 66.5573 81.891 68.2663L142.869 76.9971C153.633 80.2841 160.159 91.4682 158.105 102.983L155.914 115.387C155.845 115.773 155.769 116.159 155.686 116.538C153.102 127.963 143.097 136.011 132.14 136.011V135.998ZM78.7625 68.7487C68.1298 68.7487 58.4204 76.5768 55.9121 87.685C55.8294 88.0526 55.7536 88.4247 55.6847 88.8014L53.4933 101.205C52.9233 104.225 52.9738 107.329 53.642 110.329C54.3102 113.328 55.5819 116.161 57.3799 118.653C59.0345 120.948 61.1391 122.883 63.5653 124.339C65.9915 125.795 68.6887 126.742 71.4926 127.122L124.222 134.426L129.129 135.116C140.905 136.769 152.268 128.542 155.011 116.393C155.094 116.021 155.17 115.649 155.238 115.276L157.43 102.873C159.421 91.6749 153.102 80.8216 142.718 77.6725L81.7946 68.9623C80.7902 68.8194 79.777 68.748 78.7625 68.7487Z" fill="#FBAA1D"/>
<path d="M70.6527 126.35C67.8274 125.958 65.574 124.524 63.176 122.974C60.7751 121.429 58.7408 119.378 57.2153 116.965C57.1395 116.834 57.0499 116.71 56.9741 116.586L56.5675 115.897L56.4435 115.676C56.3194 115.456 56.2092 115.228 56.0989 114.987L55.9336 114.656C55.8302 114.443 55.7337 114.222 55.6372 113.967C55.5973 113.842 55.549 113.72 55.4925 113.602C55.4374 113.485 55.3134 113.161 55.2307 112.913L55.0929 112.541C55.0171 112.32 54.9344 112.093 54.8655 111.852C54.8384 111.775 54.8154 111.697 54.7965 111.617C54.6518 111.156 54.5278 110.68 54.4175 110.205C54.4175 110.053 54.3417 109.902 54.3073 109.75C54.2728 109.598 54.2315 109.336 54.1901 109.13C54.1488 108.923 54.1281 108.771 54.1006 108.592C54.073 108.413 54.0385 108.193 54.0179 107.986C53.9972 107.779 53.9696 107.607 53.949 107.414C53.9474 107.215 53.9289 107.017 53.8938 106.821C53.8833 106.612 53.8833 106.403 53.8938 106.194C53.8766 106.009 53.8766 105.822 53.8938 105.636V104.175C53.934 103.126 54.0468 102.08 54.2315 101.047L56.4159 88.6429C56.4848 88.2777 56.5537 87.9538 56.6364 87.561C59.1723 76.0462 69.9636 68.0527 81.0787 69.5963L70.6527 126.35Z" fill="#AAA6A6"/>
<path d="M96.6716 56.0308V55.9412L97.4986 50.8006C97.5622 50.1884 97.3802 49.576 96.9926 49.0979C96.6049 48.6198 96.0434 48.3152 95.4313 48.2509L85.9493 46.7969C85.3553 46.672 84.736 46.7825 84.2218 47.1051C83.7077 47.4278 83.3388 47.9374 83.1929 48.5266V48.6092L82.366 53.7499C82.3335 54.0536 82.3612 54.3607 82.4476 54.6536C82.534 54.9465 82.6773 55.2195 82.8693 55.457C83.0613 55.6945 83.2983 55.8917 83.5667 56.0375C83.835 56.1833 84.1295 56.2747 84.4333 56.3064L93.9152 57.7467C94.5075 57.8738 95.126 57.766 95.6403 57.4459C96.1545 57.1258 96.5243 56.6184 96.6716 56.0308ZM84.2679 54.9903C84.1482 54.9273 84.0427 54.8405 83.9578 54.7353C83.8722 54.6286 83.8068 54.5072 83.7648 54.377C83.7247 54.2407 83.7084 54.0985 83.7166 53.9566L84.5435 48.8298V48.7884C84.6211 48.5233 84.7926 48.2955 85.0259 48.1475C85.1344 48.076 85.2564 48.0275 85.3844 48.005C85.5124 47.9825 85.6437 47.9864 85.7701 48.0166L95.259 49.4706C95.393 49.473 95.5247 49.5059 95.6441 49.5668C95.7635 49.6277 95.8675 49.715 95.9481 49.8221C96.0428 49.9341 96.1111 50.066 96.1479 50.2079C96.1919 50.3434 96.2083 50.4864 96.1962 50.6283L95.3486 55.7207C95.2736 55.987 95.1047 56.2172 94.8731 56.3685C94.7634 56.4374 94.6412 56.4838 94.5134 56.5051C94.3857 56.5264 94.255 56.5221 94.1289 56.4925L84.6469 55.0454C84.5203 55.0538 84.3935 55.035 84.2748 54.9903H84.2679Z" fill="black"/>
<path d="M142.951 73.5953L137.893 72.9062L90.0493 66.2702L91.0554 59.3792L95.5828 60.1304C96.3689 60.2718 97.1791 60.098 97.8381 59.6466C98.4971 59.1953 98.9519 58.5026 99.1041 57.7185V57.6083L100.282 49.8008C100.392 48.981 100.176 48.151 99.6815 47.4879C99.1871 46.8249 98.4532 46.3814 97.6363 46.2519L84.3299 44.0468C83.5448 43.9074 82.7363 44.0821 82.0789 44.5333C81.4215 44.9845 80.9677 45.676 80.8155 46.4587V46.5758L79.6095 54.3971C79.4986 55.2172 79.7136 56.0481 80.2083 56.7116C80.703 57.375 81.438 57.8182 82.2557 57.9459L86.7761 58.7039L85.8114 65.6776L78.9204 64.7266C65.6553 62.8867 52.8726 72.2585 49.8337 85.7648C49.7441 86.1782 49.6614 86.5986 49.5856 87.0189L47.1462 100.801C46.8527 102.466 46.7166 104.155 46.7396 105.845V106.134C46.7508 106.881 46.8037 107.626 46.8981 108.367C46.8903 108.514 46.9066 108.66 46.9464 108.801C47.0428 109.532 47.16 110.248 47.3116 110.958C47.327 111.07 47.3523 111.181 47.3874 111.289C47.5183 111.833 47.6699 112.371 47.8284 112.901C49.0948 117.331 51.6169 121.298 55.0899 124.325C58.5628 127.351 62.838 129.307 67.3987 129.957L131.43 138.825C142.938 140.424 154.073 133.588 158.807 122.935V122.866C159.097 122.211 159.352 121.536 159.593 120.854C159.648 120.695 159.717 120.543 159.765 120.385C160.048 119.53 160.289 118.662 160.489 117.787C160.585 117.374 160.668 116.953 160.744 116.533L163.176 102.751C165.747 88.5763 156.623 75.4903 142.951 73.5953ZM88.2026 57.9942C88.1797 57.9069 88.1399 57.8249 88.0854 57.753C88.0332 57.6851 87.9675 57.6288 87.8925 57.5876C87.8207 57.5479 87.7402 57.5266 87.6582 57.5256L82.4831 56.6642C82.2647 56.6569 82.0515 56.5953 81.8629 56.485C81.6598 56.3695 81.4836 56.2121 81.3461 56.0233C81.2001 55.8144 81.0928 55.581 81.0291 55.3342C80.961 55.0854 80.9376 54.8264 80.9602 54.5693L82.1041 46.6723C82.2284 46.2073 82.5111 45.8003 82.9034 45.5215C83.0803 45.3965 83.2822 45.3115 83.4952 45.2722C83.7081 45.233 83.9271 45.2404 84.1369 45.2941L97.4227 47.4992C97.6409 47.5133 97.8529 47.577 98.0429 47.6853C98.2425 47.8029 98.416 47.96 98.5528 48.147C98.8446 48.5628 98.9834 49.0668 98.9456 49.5734L97.7948 57.4635C97.6719 57.931 97.389 58.3407 96.9954 58.6212C96.8192 58.7448 96.6185 58.829 96.4069 58.8683C96.1952 58.9075 95.9777 58.9008 95.7689 58.8486L90.5868 57.9873C90.5091 57.9678 90.428 57.9657 90.3494 57.9812C90.2708 57.9967 90.1966 58.0294 90.132 58.0768C89.9859 58.1874 89.8834 58.346 89.8426 58.5248L88.7332 66.1048L87.1138 65.8774L88.2301 58.2974C88.2398 58.1955 88.2304 58.0926 88.2026 57.9942ZM161.612 102.537L159.173 116.319C159.104 116.726 159.021 117.126 158.931 117.525C158.738 118.387 158.497 119.22 158.242 120.04C158.153 120.309 158.043 120.564 157.946 120.833C157.746 121.377 157.539 121.915 157.312 122.438C157.174 122.742 157.023 123.031 156.885 123.327L156.196 124.706C156.023 125.009 155.844 125.298 155.665 125.595C155.403 126.015 155.135 126.435 154.852 126.842C154.749 126.987 154.666 127.138 154.569 127.276V127.228C149.312 134.498 140.608 138.784 131.671 137.564L67.6606 128.695C64.3642 128.233 61.2161 127.027 58.4548 125.168C55.6934 123.309 53.391 120.846 51.7218 117.966C51.6253 117.801 51.5289 117.629 51.4393 117.456C51.3497 117.284 51.3221 117.263 51.267 117.16L51.1154 116.877C50.9224 116.512 50.7433 116.147 50.571 115.775C50.571 115.72 50.5228 115.665 50.5021 115.616L50.3987 115.375L50.2402 115.003C50.192 114.879 50.13 114.755 50.0817 114.624L49.937 114.252C49.8337 113.976 49.7372 113.701 49.6407 113.425C49.6236 113.327 49.5934 113.232 49.5511 113.143L49.4685 112.874C49.3858 112.612 49.3031 112.343 49.2342 112.074C49.2176 111.985 49.1922 111.897 49.1584 111.813C49.0826 111.53 49.0205 111.241 48.9585 110.958C48.9454 110.86 48.9223 110.763 48.8896 110.669V110.586C48.8976 110.475 48.8787 110.364 48.8345 110.262C48.7725 109.952 48.7173 109.635 48.6691 109.318L48.6071 108.891C48.6127 108.798 48.601 108.704 48.5726 108.615C48.5726 108.526 48.5726 108.34 48.5244 108.202V107.981L48.483 107.582C48.483 107.154 48.421 106.72 48.4072 106.293V105.776C48.3899 104.176 48.5214 102.577 48.8 101.001L51.2325 87.2188C51.3014 86.8122 51.3841 86.4125 51.4668 86.0197C54.3541 73.1818 66.3513 64.2718 78.7757 65.9877L85.5909 66.9317L85.3635 68.4891V68.6338C85.8081 68.6339 86.2523 68.6615 86.6934 68.7165L86.9277 67.1178L88.5402 67.3383L88.2922 69.0266C88.7291 69.1436 89.1574 69.2909 89.5739 69.4676L89.6152 69.1851L89.8564 67.5244L140.705 74.6014L142.813 74.8977C155.534 76.6549 164.017 89.0655 161.612 102.537Z" fill="black"/>
<path d="M143.006 78.5543C143.006 78.5543 136.115 77.2726 126.365 75.915L116.145 74.5368L91.9168 70.8777L81.4977 128.307C81.4977 128.307 126.241 135.019 130.768 134.854C132.244 134.963 133.728 134.91 135.192 134.695C144.095 133.379 151.896 125.578 154.032 116.089C154.108 115.731 154.184 115.366 154.246 115.001L156.444 102.597C158.353 91.7436 152.475 81.6966 143.006 78.5543Z" fill="#FBEAD6"/>
<path d="M104.274 125.001L104.556 124.767L104.384 126.076L104.232 125.911L105.466 126.076L105.411 126.51L104.177 126.338L104.363 126.207L104.177 127.627L103.64 127.558L104.039 124.533L105.824 124.774L105.769 125.201L104.274 125.001ZM106.541 127.951L106.941 124.926L107.471 124.994L107.078 128.02L106.541 127.951ZM108.787 128.254L108.264 128.178L108.656 125.153L109.504 125.27L110.241 128.226H110.159L110.531 125.401L111.054 125.477L110.662 128.495L109.8 128.378L109.07 125.435H109.159L108.787 128.254ZM111.688 128.64L112.867 125.718L113.721 125.835L114.093 128.971L113.542 128.895L113.246 126.138L112.233 128.743L111.688 128.64ZM112.288 127.951L112.343 127.523L113.721 127.709L113.666 128.144L112.288 127.951ZM115.651 129.157L115.127 129.088L115.52 126.063L116.367 126.18L117.105 129.129H117.022L117.387 126.304L117.918 126.373L117.511 129.453L116.657 129.336L115.919 126.386H116.009L115.651 129.157ZM121.232 128.805C121.216 128.938 121.174 129.067 121.108 129.184C121.045 129.314 120.956 129.429 120.846 129.522C120.728 129.624 120.589 129.701 120.44 129.749C120.262 129.784 120.08 129.784 119.902 129.749C119.648 129.728 119.407 129.626 119.213 129.46C119.04 129.291 118.914 129.079 118.848 128.846C118.779 128.576 118.765 128.295 118.807 128.02C118.838 127.743 118.925 127.476 119.062 127.234C119.181 127.025 119.358 126.855 119.572 126.745C119.795 126.633 120.049 126.597 120.295 126.641C120.482 126.66 120.661 126.723 120.818 126.824C120.975 126.926 121.105 127.064 121.198 127.227C121.272 127.369 121.319 127.523 121.336 127.682C121.346 127.764 121.346 127.848 121.336 127.93L120.791 127.854C120.795 127.813 120.795 127.771 120.791 127.73C120.789 127.628 120.766 127.527 120.722 127.434C120.681 127.344 120.617 127.265 120.536 127.206C120.447 127.141 120.343 127.099 120.233 127.082C120.095 127.064 119.955 127.091 119.834 127.158C119.698 127.233 119.589 127.349 119.523 127.489C119.428 127.678 119.369 127.884 119.351 128.095C119.316 128.305 119.316 128.519 119.351 128.729C119.384 128.88 119.458 129.018 119.565 129.129C119.662 129.23 119.791 129.293 119.93 129.308C120.019 129.323 120.111 129.317 120.198 129.292C120.285 129.267 120.365 129.223 120.433 129.163C120.495 129.104 120.547 129.034 120.585 128.957C120.627 128.878 120.653 128.791 120.66 128.702L121.232 128.805ZM122.831 127.489L123.114 127.255L122.941 128.543L122.838 128.364L123.968 128.516L123.913 128.95L122.783 128.798L122.928 128.654L122.755 129.956L122.549 129.653L124.023 129.853L123.968 130.28L122.19 130.039L122.59 127.02L124.361 127.262L124.306 127.689L122.831 127.489Z" fill="black"/>
<path d="M53.6806 131.657C53.4247 133.19 53.2751 134.74 53.2327 136.294C53.2465 136.501 53.2465 136.708 53.2327 136.915C53.2059 137.024 53.1567 137.128 53.088 137.218C53.0251 137.308 52.9427 137.384 52.8468 137.438C52.7497 137.497 52.6421 137.537 52.5298 137.555C52.4205 137.576 52.3084 137.576 52.1991 137.555C51.9636 137.527 51.7407 137.433 51.5557 137.284C51.3706 137.136 51.2307 136.938 51.1516 136.715C51.1035 136.53 51.0826 136.34 51.0896 136.15C51.1652 132.889 51.7202 129.657 52.7366 126.557C52.8061 126.341 52.9034 126.135 53.026 125.944C53.1626 125.751 53.3514 125.6 53.5704 125.51C53.7905 125.428 54.0291 125.409 54.2595 125.455C54.3614 125.463 54.4603 125.493 54.5489 125.544C54.6421 125.591 54.7244 125.657 54.7901 125.737C54.8535 125.819 54.9003 125.913 54.9279 126.013C54.9487 126.113 54.9487 126.216 54.9279 126.316C54.8898 126.532 54.8345 126.744 54.7625 126.95C54.2898 128.493 53.9192 130.065 53.6531 131.657H53.6806Z" fill="#0F3854"/>
<path d="M114.009 145.302C113.633 147.139 113.233 149 112.81 150.883C112.774 151.078 112.728 151.272 112.673 151.462C112.606 151.706 112.457 151.92 112.252 152.069C112.052 152.215 111.811 152.292 111.563 152.289C111.335 152.267 111.124 152.161 110.97 151.991C110.816 151.822 110.73 151.601 110.729 151.373C110.722 151.141 110.743 150.91 110.791 150.683C111.598 146.818 112.349 142.959 112.996 139.1C113.025 138.905 113.078 138.715 113.155 138.535C113.239 138.286 113.414 138.078 113.645 137.952C113.875 137.826 114.144 137.792 114.399 137.855C114.654 137.918 114.876 138.075 115.021 138.294C115.165 138.513 115.223 138.778 115.181 139.038C115.165 139.232 115.135 139.426 115.091 139.617C114.754 141.532 114.388 143.42 114.009 145.302Z" fill="#0F3854"/>
<path d="M145.813 145.088C146.346 143.2 146.78 141.333 147.115 139.486C147.147 139.254 147.193 139.023 147.253 138.797C147.323 138.576 147.451 138.378 147.625 138.225C147.803 138.073 148.021 137.975 148.252 137.942C148.361 137.918 148.474 137.918 148.583 137.942C148.692 137.957 148.796 137.997 148.886 138.059C148.982 138.116 149.065 138.194 149.127 138.287C149.19 138.378 149.232 138.481 149.251 138.59C149.285 138.862 149.266 139.138 149.196 139.403C148.879 141.002 148.487 142.61 148.018 144.227C147.381 146.46 146.629 148.659 145.765 150.815C145.655 151.109 145.524 151.394 145.372 151.669C145.251 151.91 145.068 152.115 144.841 152.262C144.614 152.408 144.353 152.494 144.083 152.51C143.67 152.455 143.504 152.055 143.684 151.497C143.746 151.297 143.828 151.097 143.904 150.897C144.644 148.936 145.28 146.999 145.813 145.088Z" fill="#0F3854"/>
<path d="M84.8333 140.753C85.0538 138.899 85.3157 137.038 85.612 135.185C85.6394 134.953 85.6808 134.723 85.736 134.496C85.8055 134.279 85.9433 134.09 86.1288 133.958C86.3137 133.827 86.5362 133.759 86.7628 133.765C87.0116 133.744 87.2588 133.821 87.4519 133.979C87.6422 134.125 87.7721 134.336 87.8171 134.571C87.8723 134.849 87.8723 135.135 87.8171 135.412C87.5415 137.183 87.2865 138.961 87.066 140.732C86.8225 142.703 86.6227 144.669 86.4665 146.631C86.4595 146.908 86.4178 147.184 86.3425 147.451C86.2736 147.686 86.1148 147.884 85.9007 148.003C85.6866 148.121 85.4343 148.151 85.1985 148.085C84.9489 148.015 84.7282 147.867 84.5693 147.662C84.4105 147.457 84.3218 147.207 84.3165 146.948C84.3105 146.717 84.3243 146.487 84.3578 146.259C84.4589 144.439 84.6174 142.604 84.8333 140.753Z" fill="#0F3854"/>
<path d="M93.7714 142.244C93.5302 144.083 93.3028 145.916 93.0823 147.756C93.064 148.005 93.0248 148.252 92.9652 148.494C92.9035 148.731 92.753 148.936 92.5448 149.066C92.3388 149.192 92.0919 149.234 91.8557 149.183C91.6048 149.128 91.3803 148.988 91.2198 148.787C91.0593 148.587 90.9724 148.337 90.9737 148.08C90.9599 147.913 90.9599 147.745 90.9737 147.577C91.3389 143.76 91.835 139.949 92.4139 136.131C92.4358 135.897 92.482 135.667 92.5517 135.442C92.6243 135.215 92.773 135.019 92.9727 134.888C93.1724 134.758 93.411 134.699 93.6485 134.724C93.8861 134.748 94.108 134.853 94.2772 135.021C94.4464 135.19 94.5524 135.412 94.5776 135.649C94.5847 135.931 94.5639 136.212 94.5156 136.49C94.2951 138.454 94.0195 140.349 93.7714 142.244Z" fill="#0F3854"/>
<path d="M59.6274 136.342C59.4002 137.941 59.2691 139.552 59.2346 141.166C59.2417 141.383 59.2279 141.6 59.1933 141.814C59.1364 142.02 59.0035 142.197 58.8212 142.31C58.6374 142.421 58.4189 142.461 58.2079 142.42C57.9808 142.394 57.7646 142.308 57.5808 142.172C57.3964 142.04 57.2473 141.865 57.1467 141.662C57.0621 141.428 57.0315 141.179 57.0571 140.932C57.0847 139.575 57.1813 138.22 57.3465 136.873C57.5939 134.94 57.9737 133.027 58.4835 131.146C58.5331 130.925 58.6071 130.71 58.704 130.506C58.8289 130.271 59.0275 130.085 59.2691 129.975C59.5113 129.865 59.7842 129.843 60.0409 129.913C60.1539 129.928 60.2622 129.968 60.3579 130.03C60.4546 130.089 60.5389 130.166 60.6059 130.258C60.6664 130.353 60.7106 130.458 60.7369 130.568C60.7609 130.679 60.7609 130.794 60.7369 130.905C60.7015 131.103 60.6555 131.298 60.5991 131.491C60.1925 133.081 59.8705 134.691 59.6343 136.315L59.6274 136.342Z" fill="#0F3854"/>
<path d="M98.479 142.877C98.75 141.003 99.0256 139.133 99.3059 137.268C99.3318 137.016 99.3826 136.766 99.4575 136.524C99.5272 136.288 99.6819 136.087 99.8916 135.959C100.104 135.843 100.349 135.8 100.589 135.834C100.828 135.869 101.05 135.981 101.222 136.152C101.387 136.328 101.483 136.558 101.49 136.8C101.489 136.998 101.471 137.197 101.435 137.392C100.856 141.244 100.271 145.089 99.74 148.941C99.7327 149.112 99.7049 149.281 99.6573 149.444C99.6045 149.688 99.4648 149.903 99.2642 150.05C99.0637 150.197 98.8163 150.266 98.5685 150.244C98.3038 150.206 98.0627 150.071 97.893 149.864C97.7233 149.657 97.6373 149.394 97.652 149.127C97.661 148.897 97.684 148.666 97.721 148.438C97.9552 146.612 98.2171 144.745 98.479 142.877Z" fill="#0F3854"/>
<path d="M64.2213 137.665C64.4625 135.853 64.7795 134.04 65.186 132.221C65.2214 132.028 65.2674 131.837 65.3239 131.649C65.4015 131.387 65.569 131.16 65.7971 131.009C66.0252 130.858 66.2992 130.792 66.5711 130.822C66.7059 130.837 66.8368 130.877 66.957 130.939C67.0727 131.008 67.1734 131.1 67.2533 131.208C67.3347 131.319 67.3911 131.446 67.4187 131.58C67.4462 131.712 67.4462 131.848 67.4187 131.98C67.4033 132.148 67.3709 132.314 67.3222 132.476C66.5368 136.117 66.0756 139.82 65.944 143.543C65.9443 143.732 65.9304 143.921 65.9027 144.108C65.862 144.343 65.7309 144.554 65.5375 144.694C65.337 144.834 65.0899 144.891 64.8484 144.852C64.5738 144.807 64.321 144.675 64.1274 144.475C63.9338 144.275 63.8097 144.019 63.7734 143.743C63.7596 143.527 63.7596 143.311 63.7734 143.095C63.8305 141.279 63.9799 139.466 64.2213 137.665Z" fill="#0F3854"/>
<path d="M138.77 148.057C139.322 146.231 139.797 144.412 140.183 142.6C140.231 142.386 140.266 142.166 140.335 141.911C140.403 141.674 140.542 141.465 140.734 141.311C140.928 141.149 141.171 141.056 141.423 141.049C141.542 141.029 141.663 141.029 141.782 141.049C141.897 141.085 142.004 141.141 142.099 141.215C142.191 141.292 142.268 141.385 142.326 141.49C142.381 141.597 142.414 141.715 142.423 141.835C142.429 142.11 142.389 142.385 142.305 142.648C141.789 144.908 141.155 147.139 140.404 149.332C139.901 150.821 139.335 152.323 138.722 153.825C138.624 154.081 138.504 154.327 138.364 154.562C138.236 154.795 138.045 154.988 137.814 155.119C137.583 155.251 137.32 155.315 137.055 155.307C136.634 155.217 136.455 154.79 136.627 154.245C136.689 154.052 136.772 153.86 136.848 153.66C137.551 151.827 138.185 149.945 138.77 148.057Z" fill="#0F3854"/>
<path d="M77.964 139.825C78.1776 137.951 78.4533 136.077 78.7771 134.202C78.8047 134.009 78.8392 133.816 78.8805 133.623C78.9361 133.372 79.0805 133.15 79.2871 132.996C79.4868 132.851 79.7292 132.776 79.9762 132.783C80.1092 132.783 80.2406 132.811 80.3621 132.865C80.4853 132.913 80.596 132.989 80.6859 133.086C80.7774 133.182 80.8499 133.294 80.8996 133.417C80.9463 133.54 80.9697 133.671 80.9685 133.803C80.9683 133.997 80.9475 134.191 80.9065 134.381C80.2682 138.161 79.8357 141.973 79.611 145.8C79.6046 146.017 79.5698 146.232 79.5076 146.441C79.4318 146.657 79.2799 146.838 79.0804 146.95C78.8701 147.067 78.623 147.096 78.3913 147.033C78.1365 146.972 77.9074 146.832 77.7366 146.633C77.5667 146.441 77.4628 146.2 77.4403 145.944V145.255C77.5919 143.457 77.7504 141.638 77.964 139.825Z" fill="#0F3854"/>
<path d="M107.318 144.219C107.001 146.084 106.673 147.951 106.333 149.821C106.298 150.055 106.257 150.283 106.202 150.51C106.14 150.753 105.997 150.967 105.795 151.117C105.596 151.261 105.352 151.331 105.106 151.317C104.859 151.286 104.632 151.163 104.472 150.973C104.311 150.782 104.227 150.539 104.238 150.29C104.243 150.059 104.266 149.828 104.307 149.601C104.934 145.811 105.568 142.021 106.161 138.217C106.187 137.994 106.238 137.774 106.312 137.562C106.381 137.306 106.544 137.085 106.767 136.942C106.992 136.801 107.263 136.749 107.524 136.797C107.786 136.846 108.02 136.991 108.18 137.204C108.336 137.418 108.408 137.684 108.379 137.948C108.364 138.179 108.334 138.409 108.29 138.637C107.966 140.477 107.642 142.351 107.318 144.219Z" fill="#0F3854"/>
<path d="M120.667 146.202C120.219 148.076 119.73 149.958 119.213 151.839C119.158 152.032 119.11 152.232 119.041 152.425C118.958 152.668 118.799 152.879 118.586 153.024C118.385 153.169 118.145 153.248 117.897 153.252C117.676 153.229 117.471 153.123 117.325 152.955C117.176 152.789 117.097 152.572 117.105 152.349C117.114 152.067 117.165 151.789 117.256 151.522C117.704 149.772 118.138 148.028 118.538 146.285C118.997 144.314 119.406 142.35 119.765 140.393C119.798 140.112 119.868 139.836 119.971 139.573C120.07 139.336 120.251 139.142 120.481 139.029C120.711 138.911 120.977 138.884 121.225 138.953C121.473 139.004 121.69 139.15 121.832 139.359C121.972 139.56 122.032 139.806 121.997 140.049C121.97 140.241 121.935 140.434 121.894 140.627C121.515 142.495 121.108 144.348 120.667 146.202Z" fill="#0F3854"/>
<path d="M133.704 148.176C133.112 149.949 132.457 151.722 131.741 153.496C131.661 153.731 131.566 153.961 131.458 154.185C131.342 154.452 131.15 154.679 130.907 154.839C130.659 154.994 130.371 155.071 130.08 155.06C129.611 154.97 129.391 154.516 129.57 153.923C129.632 153.737 129.708 153.544 129.784 153.351C131.162 149.763 132.312 146.092 133.229 142.36C133.284 142.146 133.325 141.926 133.401 141.712C133.486 141.467 133.651 141.258 133.87 141.12C134.09 140.982 134.349 140.921 134.607 140.947C134.737 140.951 134.864 140.984 134.979 141.044C135.095 141.102 135.198 141.181 135.283 141.278C135.359 141.38 135.417 141.494 135.455 141.616C135.485 141.742 135.485 141.875 135.455 142.002C135.422 142.234 135.374 142.464 135.31 142.691C134.876 144.469 134.325 146.322 133.704 148.176Z" fill="#0F3854"/>
<path d="M127.247 147.168C126.73 149.007 126.158 150.84 125.531 152.68C125.468 152.905 125.388 153.124 125.29 153.335C125.189 153.577 125.019 153.783 124.801 153.928C124.584 154.077 124.326 154.156 124.063 154.155C123.951 154.139 123.844 154.102 123.746 154.045C123.65 153.985 123.568 153.905 123.505 153.81C123.438 153.721 123.393 153.617 123.374 153.507C123.35 153.396 123.35 153.281 123.374 153.17C123.407 152.934 123.465 152.703 123.546 152.48C124.739 148.732 125.752 144.983 126.544 141.248C126.574 141.013 126.632 140.781 126.716 140.559C126.808 140.319 126.981 140.119 127.205 139.993C127.429 139.868 127.69 139.824 127.943 139.87C128.065 139.884 128.184 139.923 128.291 139.983C128.399 140.044 128.494 140.124 128.57 140.221C128.726 140.415 128.801 140.663 128.777 140.911C128.755 141.143 128.716 141.373 128.66 141.6C128.232 143.488 127.764 145.3 127.247 147.168Z" fill="#0F3854"/>
<path d="M73.2505 139.011C73.0369 140.851 72.8921 142.684 72.8026 144.524V145.096C72.795 145.23 72.7598 145.361 72.6992 145.482C72.6405 145.6 72.5557 145.704 72.4511 145.785C72.3442 145.865 72.2224 145.924 72.0928 145.957C71.961 145.985 71.8249 145.985 71.6931 145.957C71.4083 145.901 71.1508 145.751 70.9627 145.53C70.7771 145.305 70.6749 145.022 70.6732 144.73V144.234C70.8338 140.531 71.2738 136.846 71.9894 133.209C72.0308 133.016 72.0583 132.823 72.1135 132.637C72.1867 132.39 72.3424 132.176 72.5545 132.03C72.7693 131.886 73.0267 131.818 73.2849 131.838C73.4163 131.845 73.5449 131.878 73.6639 131.934C73.7827 131.989 73.8885 132.069 73.974 132.168C74.0592 132.265 74.1247 132.377 74.167 132.499C74.2072 132.623 74.2235 132.754 74.2152 132.885C74.2005 133.117 74.1682 133.347 74.1187 133.574C73.7535 135.338 73.471 137.171 73.2505 139.011Z" fill="#0F3854"/>
<path d="M142.765 77.383L81.794 68.6728C69.8106 67.0052 58.2614 75.4535 55.5257 87.6643C55.443 88.0296 55.3672 88.4086 55.2983 88.7945L53.107 101.198C50.8467 113.995 59.0539 125.806 71.3956 127.508L129.032 135.495C141.015 137.155 152.557 128.714 155.3 116.503C155.383 116.138 155.458 115.759 155.527 115.373L157.719 102.969C159.779 91.3717 153.212 80.5735 142.765 77.383ZM156.154 102.756L153.956 115.159C153.894 115.525 153.818 115.89 153.736 116.255C151.276 127.384 141.16 135.184 130.451 134.344L71.6299 126.226C60.1357 124.634 52.535 113.512 54.6712 101.419L56.8625 89.015C56.9245 88.6498 57.0003 88.3259 57.0761 87.9331C59.6672 76.4183 70.4239 68.4248 81.5666 69.9683L142.696 78.7612C152.199 81.9035 158.063 91.9436 156.154 102.756Z" fill="black"/>
<path d="M70.5142 123.474C70.8932 121.792 74.2147 120.793 77.8462 121.296C81.4778 121.799 84.372 123.694 84.0481 125.431V125.5C83.8758 126.271 83.0902 126.878 81.9808 127.298C82.293 127.174 82.5732 126.98 82.8008 126.733C83.031 126.489 83.2009 126.194 83.297 125.872V125.803C83.5795 124.183 81.1883 122.592 77.7222 122.116C74.256 121.641 71.5203 122.475 71.1413 124.053V124.121C71.1065 124.455 71.1562 124.791 71.286 125.1C71.4132 125.408 71.6172 125.679 71.8786 125.886C70.9139 125.196 70.3902 124.349 70.5004 123.549C70.4966 123.524 70.4966 123.499 70.5004 123.474H70.5142Z" fill="#F3713D" stroke="#F3713D"/>
<path d="M97.149 94.1721C97.3694 94.6551 97.7026 95.0782 98.1206 95.4056C98.5259 95.7068 98.9993 95.9032 99.4988 95.9775C99.6882 96.0052 99.8793 96.0191 100.071 96.0189C100.433 96.0148 100.793 95.9709 101.146 95.8879C101.775 95.7358 102.374 95.4771 102.917 95.123C103.565 94.7185 104.16 94.2347 104.688 93.6828C105.315 93.0339 105.872 92.3202 106.348 91.5535C106.358 91.5319 106.363 91.5084 106.363 91.4846C106.363 91.4608 106.358 91.4373 106.348 91.4157C106.343 91.3915 106.334 91.3686 106.319 91.3485C106.305 91.3283 106.287 91.3113 106.266 91.2985L103.73 89.7894C103.708 89.7774 103.683 89.771 103.657 89.771C103.632 89.771 103.607 89.7774 103.585 89.7894C103.56 89.7976 103.538 89.8111 103.519 89.8289C103.5 89.8468 103.485 89.8686 103.475 89.8928C103.37 90.154 103.225 90.3979 103.048 90.6163C102.861 90.8419 102.656 91.0517 102.434 91.2434C102.225 91.4111 101.993 91.548 101.745 91.65C101.578 91.7312 101.393 91.7668 101.208 91.7534C101.128 91.7414 101.052 91.7082 100.989 91.6574C100.926 91.6065 100.878 91.5397 100.849 91.4639C100.757 91.1326 100.757 90.7823 100.849 90.451C100.929 90.0262 101.051 89.6106 101.215 89.2106C101.414 88.6938 101.649 88.1563 101.904 87.5981C102.159 87.0399 102.496 86.4818 102.834 85.9443C103.146 85.4428 103.487 84.9597 103.854 84.4972C104.135 84.125 104.459 83.7873 104.819 83.4911C105.017 83.3018 105.282 83.1979 105.556 83.2017C105.735 83.2017 105.887 83.4222 105.997 83.7805C106.008 83.8199 106.033 83.8541 106.067 83.8768C106.101 83.8995 106.142 83.9094 106.183 83.9045L109.456 83.5324C109.492 83.5282 109.525 83.5135 109.552 83.4901C109.579 83.4668 109.598 83.4359 109.608 83.4015C109.642 83.2844 109.67 83.1672 109.691 83.057L109.732 82.7606C109.819 82.266 109.819 81.76 109.732 81.2653C109.645 80.8376 109.482 80.429 109.25 80.0594C109.023 79.7149 108.728 79.4215 108.381 79.198C108.038 78.9736 107.65 78.8255 107.244 78.7639C105.983 78.5723 104.693 78.7744 103.551 79.3427C102.346 79.9481 101.275 80.7894 100.401 81.8166C99.4281 82.9353 98.629 84.1945 98.031 85.5515C97.3938 86.9562 96.9555 88.4429 96.7286 89.9686C96.6 90.7592 96.5791 91.5636 96.6666 92.3598C96.7262 92.9864 96.8892 93.5988 97.149 94.1721Z" fill="black"/>
<path d="M119.839 98.4447C120.329 98.4447 120.825 98.4447 121.321 98.4447C121.362 98.4439 121.401 98.4291 121.432 98.4028C121.464 98.3764 121.485 98.3402 121.493 98.3C121.952 95.8238 122.389 93.4901 122.802 91.2988L123.374 88.4321C123.567 87.4605 123.753 86.5302 123.939 85.6413C124.125 84.7523 124.291 83.9323 124.463 83.1812C124.635 82.4301 124.773 81.803 124.897 81.3C124.904 81.2727 124.904 81.2442 124.898 81.2168C124.892 81.1893 124.88 81.1636 124.863 81.1415C124.845 81.1208 124.823 81.1045 124.798 81.0937C124.773 81.083 124.745 81.0781 124.718 81.0795C123.629 81.0795 122.499 81.0795 121.362 81.0795C120.225 81.0795 119.088 80.9554 117.992 80.8727C117.956 80.8703 117.919 80.8797 117.888 80.8995C117.857 80.9194 117.833 80.9486 117.82 80.983C117.524 81.6721 117.179 82.4232 116.793 83.257L115.588 85.8411L115.525 85.972C115.126 86.8196 114.726 87.681 114.326 88.5424L113.121 91.1334L110.288 97.1492C110.273 97.1754 110.265 97.2051 110.265 97.2353C110.265 97.2656 110.273 97.2953 110.288 97.3215C110.302 97.3479 110.323 97.3698 110.348 97.3845C110.374 97.3992 110.404 97.406 110.433 97.4042H111.977L113.355 97.4455C113.844 97.4455 114.271 97.4455 114.63 97.4455C114.665 97.448 114.699 97.4394 114.729 97.4208C114.759 97.4022 114.782 97.3747 114.795 97.3421L116.215 94.1516L117.979 94.4066L117.744 95.3575C117.641 95.7986 117.531 96.2396 117.421 96.6806C117.31 97.1216 117.138 97.6936 116.993 98.2104C116.987 98.2369 116.987 98.2644 116.993 98.291C116.998 98.3176 117.01 98.3426 117.026 98.3643C117.043 98.386 117.064 98.4038 117.088 98.4165C117.112 98.4292 117.138 98.4365 117.166 98.4378H118.489L119.839 98.4447ZM117.296 91.5537L119.591 85.9583L120.397 84.0908H120.432L120.025 85.9514C119.784 86.8885 119.577 87.7568 119.391 88.563C119.309 88.8869 119.233 89.2177 119.143 89.5829C119.054 89.9481 118.978 90.272 118.916 90.5476C118.854 90.8233 118.778 91.0989 118.723 91.3263C118.668 91.5537 118.661 91.5813 118.64 91.6778H118.461L117.944 91.6226L117.407 91.5744L117.296 91.5537Z" fill="black"/>
<path d="M133.855 92.1499C133.855 92.584 133.855 93.0457 133.821 93.5281C133.786 94.0104 133.821 94.5341 133.779 95.0716C133.738 95.6091 133.745 96.1259 133.717 96.6359C133.669 97.8142 133.607 99.0753 133.531 100.385C133.528 100.411 133.532 100.438 133.542 100.463C133.551 100.489 133.567 100.511 133.586 100.529C133.622 100.557 133.665 100.572 133.71 100.571C133.931 100.571 134.255 100.502 134.689 100.46L136.005 100.35L137.17 100.267C137.351 100.258 137.533 100.258 137.714 100.267C137.757 100.273 137.801 100.262 137.838 100.238C137.874 100.214 137.901 100.178 137.914 100.136C138.052 99.6335 138.231 99.0202 138.458 98.2966C138.686 97.5731 138.934 96.7668 139.223 95.9192C139.513 95.0716 139.823 94.1758 140.147 93.2593C140.47 92.3428 140.794 91.4332 141.125 90.5029C141.862 88.4356 142.682 86.1961 143.578 83.8945C143.592 83.8689 143.598 83.8406 143.598 83.8118C143.598 83.783 143.592 83.7546 143.578 83.7291C143.564 83.7056 143.544 83.6862 143.519 83.6729C143.495 83.6596 143.468 83.6528 143.44 83.6533L140.45 83.5775C140.413 83.5807 140.379 83.5931 140.348 83.6136C140.318 83.6342 140.294 83.662 140.277 83.6946C139.843 84.873 139.423 86.01 139.016 87.0919C138.844 87.5605 138.672 88.0428 138.493 88.539L137.969 89.9999C137.797 90.4754 137.645 90.9302 137.5 91.3781L137.397 91.6675C137.397 91.5641 137.397 91.4677 137.397 91.3643C137.397 90.9095 137.397 90.434 137.397 89.9448L137.363 88.4081C137.363 87.9464 137.363 87.5054 137.363 87.0781V86.8714C137.363 85.7482 137.363 84.5698 137.363 83.2536C137.363 83.2073 137.345 83.1627 137.313 83.1293C137.28 83.0959 137.237 83.0762 137.19 83.0745C136.855 83.0745 136.469 83.0469 136.033 82.9918L134.744 82.8815L133.29 82.7644C133.247 82.7637 133.206 82.7768 133.171 82.8016C133.136 82.8264 133.11 82.8616 133.097 82.9022C132.918 83.5913 132.691 84.3906 132.408 85.2865C132.125 86.1823 131.857 87.0505 131.554 87.9808C131.25 88.9111 130.94 89.8483 130.609 90.8061C130.279 91.764 129.969 92.6874 129.672 93.5625C128.942 95.6298 128.177 97.7867 127.398 99.978C127.383 100.004 127.375 100.034 127.375 100.064C127.375 100.094 127.383 100.124 127.398 100.15C127.416 100.173 127.44 100.191 127.466 100.203C127.492 100.215 127.521 100.22 127.55 100.219L131.181 99.9229C131.216 99.9191 131.249 99.9054 131.276 99.8834C131.303 99.8614 131.322 99.832 131.333 99.7988C131.76 98.5998 132.162 97.4513 132.539 96.3534C132.704 95.8848 132.863 95.4024 133.021 94.9063L133.476 93.4798C133.566 92.9837 133.71 92.5495 133.855 92.1499Z" fill="black"/>
<path d="M105.988 100.912C105.975 100.888 105.956 100.867 105.933 100.852C105.911 100.836 105.885 100.826 105.857 100.822L97.7399 100.037C97.6986 100.034 97.6574 100.045 97.6235 100.069C97.5895 100.093 97.5649 100.128 97.5539 100.168C96.8648 102.373 96.217 104.544 95.5693 106.618C95.2707 107.491 94.9675 108.409 94.6597 109.374C94.3427 110.318 94.0257 111.248 93.7018 112.165C93.3779 113.081 93.061 113.957 92.7509 114.784C92.4408 115.61 92.1376 116.362 91.8482 117.009C91.8331 117.037 91.8252 117.068 91.8252 117.099C91.8252 117.13 91.8331 117.161 91.8482 117.188C91.8645 117.212 91.8862 117.231 91.9114 117.244C91.9365 117.257 91.9645 117.264 91.9929 117.264C92.4063 117.223 92.8818 117.188 93.4262 117.154C93.9706 117.12 94.4736 117.099 94.9353 117.085C95.397 117.071 96.031 117.023 96.5891 117.009C96.6261 117.008 96.6619 116.996 96.6915 116.974C96.7211 116.951 96.7431 116.92 96.7545 116.885L98.8632 110.111L100.083 110.332C100.489 110.415 100.882 110.484 101.268 110.546L102.157 110.69C102.2 110.697 102.243 110.688 102.28 110.666C102.317 110.643 102.344 110.608 102.357 110.566L102.75 109.305C102.894 108.857 103.025 108.416 103.129 107.996C103.14 107.972 103.146 107.946 103.146 107.92C103.146 107.894 103.14 107.868 103.129 107.844C103.114 107.823 103.095 107.806 103.072 107.794C103.049 107.782 103.024 107.775 102.998 107.775C102.791 107.775 102.508 107.727 102.116 107.665L100.972 107.472L99.759 107.314L101.02 103.496L104.645 104.034C104.685 104.041 104.726 104.034 104.761 104.014C104.797 103.994 104.824 103.962 104.838 103.923L105.975 101.07C105.989 101.047 105.998 101.02 106 100.993C106.002 100.965 105.998 100.938 105.988 100.912Z" fill="black"/>
<path d="M115.775 102.579L111.937 102.628C111.899 102.627 111.862 102.638 111.832 102.659C111.801 102.68 111.777 102.71 111.764 102.745C111.075 104.812 110.386 106.879 109.649 108.892L108.705 111.538C108.378 112.456 108.048 113.359 107.712 114.246C107.375 115.142 107.023 115.989 106.734 116.802C106.444 117.615 106.107 118.36 105.817 119.007C105.799 119.036 105.789 119.07 105.789 119.104C105.789 119.138 105.799 119.172 105.817 119.2C105.839 119.225 105.868 119.242 105.9 119.251C105.932 119.259 105.965 119.259 105.997 119.249H106.555H107.795L109.104 119.297C109.518 119.297 109.793 119.338 109.938 119.359C109.976 119.358 110.013 119.346 110.044 119.324C110.074 119.302 110.098 119.271 110.11 119.235C110.338 118.546 110.607 117.781 110.903 116.933C111.199 116.086 111.502 115.211 111.806 114.301C112.109 113.391 112.426 112.489 112.75 111.545C113.074 110.6 113.391 109.739 113.701 108.885C114.422 106.882 115.15 104.837 115.885 102.752C115.898 102.726 115.905 102.698 115.905 102.669C115.905 102.64 115.898 102.612 115.885 102.586C115.85 102.574 115.811 102.571 115.775 102.579Z" fill="black"/>
<path d="M131.071 105.426C130.798 105.129 130.464 104.894 130.093 104.737C129.693 104.568 129.274 104.45 128.846 104.385C127.969 104.269 127.08 104.299 126.213 104.475C125.288 104.647 124.39 104.946 123.546 105.364C122.724 105.769 121.981 106.32 121.355 106.99C120.746 107.626 120.349 108.435 120.218 109.305C120.138 109.83 120.205 110.367 120.411 110.856C120.614 111.323 120.876 111.763 121.19 112.165C121.52 112.572 121.877 112.956 122.258 113.316C122.644 113.688 123.002 114.046 123.319 114.391C123.611 114.705 123.865 115.052 124.077 115.425C124.257 115.732 124.325 116.092 124.27 116.444C124.248 116.618 124.179 116.783 124.07 116.92C123.947 117.058 123.8 117.172 123.636 117.258C123.458 117.347 123.268 117.41 123.071 117.444C122.644 117.519 122.205 117.433 121.838 117.202C121.571 117.053 121.318 116.883 121.08 116.692C120.839 116.507 120.624 116.292 120.439 116.052C120.275 115.843 120.145 115.611 120.053 115.363C120.042 115.332 120.023 115.305 119.997 115.286C119.971 115.266 119.94 115.254 119.908 115.252C119.876 115.246 119.842 115.249 119.812 115.262C119.781 115.274 119.755 115.294 119.736 115.321L117.441 118.546C117.422 118.574 117.412 118.606 117.412 118.639C117.412 118.672 117.422 118.705 117.441 118.732C117.85 119.499 118.413 120.172 119.095 120.71C119.658 121.145 120.322 121.431 121.024 121.544C121.426 121.606 121.831 121.639 122.237 121.64C122.73 121.641 123.222 121.593 123.705 121.495C124.531 121.331 125.317 121.008 126.02 120.545C126.706 120.091 127.292 119.502 127.743 118.815C128.224 118.082 128.535 117.251 128.653 116.382C128.789 115.649 128.789 114.897 128.653 114.164C128.536 113.613 128.326 113.086 128.033 112.606C127.773 112.194 127.453 111.825 127.082 111.51C126.751 111.228 126.434 110.945 126.151 110.677C125.888 110.438 125.657 110.167 125.462 109.87C125.305 109.602 125.251 109.286 125.311 108.981C125.338 108.775 125.424 108.582 125.559 108.423C125.703 108.254 125.873 108.107 126.062 107.989C126.245 107.88 126.439 107.79 126.641 107.72C126.766 107.666 126.903 107.642 127.04 107.652C127.142 107.663 127.24 107.7 127.325 107.757C127.41 107.815 127.48 107.892 127.529 107.982C127.652 108.291 127.678 108.63 127.605 108.954C127.586 109.071 127.556 109.187 127.516 109.298C127.474 109.423 127.426 109.547 127.378 109.664C127.363 109.691 127.355 109.722 127.355 109.753C127.355 109.785 127.363 109.815 127.378 109.843C127.398 109.867 127.423 109.886 127.452 109.898C127.481 109.91 127.512 109.915 127.543 109.912L131.175 109.416C131.21 109.411 131.244 109.397 131.271 109.373C131.298 109.35 131.317 109.319 131.326 109.285C131.395 109.037 131.464 108.809 131.54 108.596C131.613 108.371 131.669 108.14 131.705 107.907C131.792 107.43 131.771 106.94 131.643 106.473C131.531 106.086 131.336 105.729 131.071 105.426Z" fill="black"/>
<path d="M149.208 107.217C149.192 107.193 149.171 107.173 149.146 107.159C149.121 107.144 149.093 107.136 149.064 107.135L147.686 107.052L146.418 106.976C145.949 106.976 145.522 106.935 145.15 106.976C145.115 106.977 145.082 106.987 145.054 107.007C145.025 107.027 145.004 107.054 144.991 107.086C144.536 108.182 144.137 109.264 143.799 110.298C143.461 111.331 143.11 112.365 142.758 113.385L140.691 113.316C141.063 112.261 141.456 111.18 141.87 110.098C142.331 108.864 142.765 107.762 143.193 106.714C143.204 106.688 143.211 106.66 143.211 106.632C143.211 106.603 143.204 106.575 143.193 106.549C143.177 106.526 143.157 106.507 143.133 106.492C143.109 106.478 143.082 106.469 143.055 106.466L139.12 106.156C139.079 106.151 139.038 106.161 139.004 106.184C138.97 106.207 138.945 106.241 138.934 106.28C138.713 106.997 138.465 107.789 138.19 108.657C137.914 109.526 137.625 110.422 137.328 111.345C137.032 112.268 136.715 113.199 136.398 114.101C136.081 115.004 135.771 115.976 135.502 116.858L133.359 123.17C133.345 123.195 133.337 123.224 133.337 123.253C133.337 123.282 133.345 123.31 133.359 123.335C133.377 123.359 133.4 123.378 133.426 123.391C133.452 123.405 133.481 123.411 133.511 123.411L137.328 123.191C137.363 123.187 137.396 123.173 137.423 123.151C137.45 123.129 137.47 123.1 137.48 123.066C137.783 122.233 138.093 121.392 138.397 120.544C138.631 119.855 138.886 119.104 139.155 118.332L139.844 116.403L141.842 116.506C141.67 117.037 141.456 117.657 141.201 118.36L140.347 120.696C140.05 121.585 139.726 122.501 139.382 123.452C139.369 123.477 139.362 123.504 139.362 123.532C139.362 123.559 139.369 123.587 139.382 123.611C139.397 123.634 139.418 123.654 139.441 123.668C139.465 123.682 139.492 123.691 139.52 123.694L143.337 123.811C143.375 123.811 143.411 123.799 143.441 123.776C143.471 123.754 143.492 123.722 143.503 123.687C144.123 121.619 144.764 119.552 145.418 117.588C145.687 116.761 145.977 115.886 146.294 114.97C146.611 114.053 146.941 113.13 147.265 112.255C147.589 111.379 147.92 110.504 148.244 109.677C148.568 108.85 148.933 108.099 149.229 107.417C149.242 107.385 149.247 107.349 149.244 107.315C149.24 107.28 149.228 107.246 149.208 107.217Z" fill="black"/>
<path d="M84.3239 78.2095C84.2657 78.1351 84.1929 78.0735 84.1099 78.0285C84.0269 77.9834 83.9356 77.9559 83.8415 77.9476C72.1269 76.9967 61.1565 76.9898 52.9493 77.9476C48.2566 78.4851 44.5285 79.3258 41.8755 80.4353C38.9744 81.655 37.3551 83.1917 37.0518 85.0384C36.7418 87.1057 37.8236 89.4142 40.2699 91.9294C42.4819 94.2103 45.7827 96.6635 50.1447 99.2269C57.3595 103.486 67.441 108.054 78.5424 112.092C78.6109 112.103 78.6806 112.103 78.7491 112.092C78.813 112.102 78.8781 112.102 78.942 112.092H79.0316C79.1567 112.03 79.2601 111.932 79.3279 111.81C79.3304 111.792 79.3304 111.773 79.3279 111.755C79.3526 111.695 79.3711 111.632 79.3831 111.569L84.4341 78.7401C84.4526 78.6488 84.4523 78.5547 84.4334 78.4635C84.4144 78.3723 84.3772 78.2859 84.3239 78.2095Z" fill="#ECDFB2" stroke="#020202" stroke-miterlimit="10"/>
<path d="M46.0106 83.1789C47.3111 84.5163 48.9787 85.4384 50.8028 85.8289C52.6269 86.2193 54.5258 86.0606 56.2598 85.3727C57.9938 84.6849 59.4852 83.4988 60.5456 81.964C61.6061 80.4293 62.1881 78.6149 62.2182 76.7497L43.3507 76.4671C43.3309 77.7058 43.5557 78.9363 44.0121 80.088C44.4686 81.2397 45.1477 82.2901 46.0106 83.1789Z" fill="white"/>
<path d="M67.7979 98.3261C67.835 98.2499 67.8543 98.1663 67.8543 98.0815C67.8543 97.9967 67.835 97.9131 67.7979 97.8369C67.7605 97.7613 67.7063 97.6952 67.6394 97.6439C67.5725 97.5925 67.4947 97.5572 67.412 97.5406L64.6073 96.9686C63.7304 96.6981 62.9056 96.281 62.1679 95.7351C62.0848 95.6751 61.9867 95.6394 61.8844 95.6321C61.7822 95.6248 61.6799 95.6462 61.5891 95.6938C59.887 96.5827 56.5105 97.4165 54.7808 97.7611C54.6981 97.7777 54.6203 97.813 54.5534 97.8644C54.4865 97.9157 54.4323 97.9818 54.3949 98.0574C54.3573 98.1322 54.3378 98.2148 54.3378 98.2986C54.3378 98.3823 54.3573 98.4649 54.3949 98.5398C56.8343 103.515 63.3532 105.396 65.0001 105.486C65.1102 105.518 65.2263 105.524 65.339 105.502C65.4516 105.48 65.5575 105.432 65.6479 105.362C65.7469 105.266 65.8259 105.152 65.8803 105.025C65.9347 104.898 65.9635 104.762 65.9649 104.624C66.3702 103.694 66.9503 102.849 67.6738 102.137C67.7548 102.042 67.8027 101.924 67.8102 101.799C67.8177 101.675 67.7843 101.551 67.7152 101.448C67.095 100.579 67.3706 99.2289 67.7979 98.3261ZM66.8952 101.668C63.8425 102.619 60.3487 101.386 57.8266 100.083C58.9874 100.375 60.1787 100.528 61.3755 100.538C63.256 100.583 65.1059 100.057 66.6815 99.029C66.4117 99.9036 66.4882 100.848 66.8952 101.668ZM66.6126 98.2228C63.2154 100.793 58.6535 99.7595 56.1315 98.8567H56.8205C59.3633 98.8567 62.9535 98.526 64.2008 97.6922L64.3662 97.7542L66.6126 98.2228ZM61.7889 96.5C62.2712 96.8453 62.7886 97.1386 63.3325 97.3752C61.9543 97.9196 58.881 98.1814 56.6827 98.1745C58.4451 97.7872 60.1647 97.2263 61.8165 96.5H61.7889ZM64.9588 104.68C61.674 104.144 58.6593 102.535 56.3864 100.104C58.5777 101.379 61.5615 102.709 64.5178 102.709C65.0796 102.708 65.6402 102.655 66.1923 102.55C65.625 103.153 65.2113 103.883 64.9863 104.68H64.9588Z" fill="black"/>
<path d="M53.9823 73.4308C54.6472 73.6418 55.2571 73.9976 55.7681 74.4726C56.2791 74.9476 56.6784 75.5299 56.9374 76.1776C57.1963 76.8254 57.3085 77.5225 57.2658 78.2188C57.2231 78.9151 57.0266 79.5933 56.6904 80.2046C56.2369 81.0213 55.5542 81.6872 54.7265 82.1203C53.7565 82.6243 52.6416 82.7759 51.5722 82.5494C50.5027 82.3229 49.5451 81.7322 48.8627 80.8782C48.1803 80.0242 47.8155 78.9598 47.8305 77.8667C47.8455 76.7737 48.2394 75.7197 48.945 74.8848C49.3396 74.4078 49.8273 74.0162 50.3783 73.734C50.929 73.4483 51.531 73.275 52.1493 73.2241C52.768 73.1682 53.3916 73.2385 53.9823 73.4308Z" fill="black"/>
<path d="M72.0297 124.504C72.202 123.684 74.3313 122.933 77.5425 123.387C80.7536 123.842 82.4971 125.207 82.3661 125.978C82.2352 126.75 80.0645 127.55 76.9154 127.088C73.7662 126.626 71.8712 125.269 72.0297 124.504Z" fill="#F3713D"/>
<path d="M85.4394 124.057C85.2463 123.561 84.9366 123.119 84.5367 122.768C83.2274 121.459 80.8982 120.405 78.0729 120.012C75.2476 119.619 72.6704 120.012 71.0097 120.942C70.5274 121.158 70.0974 121.475 69.7489 121.873C69.4005 122.27 69.1418 122.738 68.9906 123.244V123.361C68.7977 124.622 69.4868 125.869 70.865 126.882C72.5318 128.006 74.4432 128.715 76.4398 128.95H76.6603C77.9907 129.136 79.3405 129.136 80.6708 128.95C81.3758 128.852 82.0687 128.681 82.7381 128.44C84.3024 127.861 85.3774 126.924 85.6392 125.738V125.621C85.7011 125.091 85.6325 124.554 85.4394 124.057ZM81.7114 125.587H81.6769C81.5322 126.234 79.6992 126.896 76.8946 126.51C74.09 126.124 72.4775 124.953 72.6566 124.305C72.8358 123.657 74.7239 122.996 77.4803 123.382C80.2367 123.768 81.8354 124.898 81.7114 125.587ZM84.0681 125.414V125.47C83.9303 126.241 83.1447 126.848 82.0008 127.268C82.3047 127.146 82.5777 126.957 82.8001 126.717C83.0303 126.472 83.2002 126.177 83.2963 125.855C83.3032 125.833 83.3032 125.809 83.2963 125.787C83.5788 124.167 81.167 122.575 77.7215 122.1C74.276 121.624 71.5196 122.458 71.1613 124.036C71.1682 124.059 71.1682 124.083 71.1613 124.105C71.1265 124.438 71.1762 124.775 71.306 125.084C71.4091 125.324 71.5617 125.54 71.7539 125.718C70.8788 125.029 70.4171 124.264 70.548 123.519V123.457C70.927 121.776 74.2209 120.749 77.88 121.28C81.5391 121.81 84.3713 123.692 84.0681 125.414Z" fill="black"/>
<path d="M79.926 70.1514C79.9702 70.1094 80.0074 70.0605 80.0362 70.0067C80.7942 68.5114 83.8883 67.7258 87.2235 68.1875C90.5587 68.6492 93.2393 70.2548 93.4254 71.8604C93.4383 71.9186 93.4544 71.9761 93.4736 72.0326L84.5154 122.785C83.2061 121.462 80.8769 120.407 78.0516 120.028C75.6475 119.62 73.1764 119.929 70.947 120.917L79.926 70.1514Z" fill="#F3713D"/>
<path d="M84.7375 123.499L84.2689 123.024C82.9734 121.715 80.6305 120.722 78.005 120.371C75.3796 120.019 72.8299 120.323 71.1141 121.218L70.4939 121.542L79.6106 69.9841L79.6864 69.9083C79.7108 69.8863 79.7317 69.8607 79.7485 69.8325C80.5754 68.1994 83.7452 67.3587 87.2803 67.841C90.8154 68.3234 93.5718 70.0392 93.7785 71.8171C93.7757 71.8492 93.7757 71.8815 93.7785 71.9136V72.0032V72.0928L84.7375 123.499ZM75.8895 119.537C76.6294 119.537 77.3685 119.588 78.1015 119.689C80.3506 119.915 82.4951 120.751 84.3034 122.107L93.1376 72.0583C93.1229 72.0156 93.1114 71.9718 93.1032 71.9274C92.9309 70.4665 90.2848 68.9574 87.1907 68.5232C84.0967 68.0891 81.044 68.8058 80.3618 70.1633C80.3618 70.2115 80.2997 70.2598 80.2653 70.3011L71.4173 120.323C72.8444 119.778 74.3624 119.512 75.8895 119.537Z" fill="#F3713D"/>
<path d="M95.101 71.6232C95.0765 71.5378 95.0316 71.4598 94.97 71.3958C94.6475 70.3991 93.9933 69.5431 93.1164 68.9702C92.2716 68.3756 91.3425 67.911 90.36 67.592C89.8583 67.4178 89.3476 67.2706 88.8302 67.1509C88.3685 67.0545 87.9206 66.9718 87.452 66.9029L86.88 66.834C86.3512 66.7789 85.8199 66.7513 85.2882 66.7513C83.9466 66.736 82.612 66.9456 81.3397 67.3715C80.3841 67.67 79.5316 68.2311 78.8796 68.9908C78.8298 69.0523 78.7838 69.1167 78.7418 69.1838C78.6591 69.2283 78.5864 69.2893 78.5282 69.3629C78.4735 69.4365 78.4359 69.5212 78.4179 69.611L78.3352 70.2036L77.0742 77.3496L76.8537 78.6864L75.6753 85.3706L75.4272 86.7488L74.242 93.44L74.0077 94.8182L72.8293 101.496L72.595 102.812L72.4572 103.59L71.2789 110.275L71.0446 111.584L70.9619 112.059L69.7766 118.744L69.5492 120.06L68.9428 123.629C69.1202 123.116 69.4043 122.646 69.7766 122.251C70.1267 121.926 70.5497 121.69 71.0101 121.562L79.9684 70.1485C80.0126 70.1065 80.0498 70.0576 80.0786 70.0038C80.8366 68.5085 83.9514 67.716 87.2659 68.1846C90.5805 68.6532 93.2611 70.2519 93.4678 71.8575C93.4798 71.916 93.4959 71.9735 93.516 72.0297L84.0892 123.25C84.4889 123.602 84.9299 123.788 85.1228 124.284C85.3158 124.78 85.7086 125.069 85.6465 125.6L94.9631 72.8291L95.1285 71.8919C95.1433 71.8015 95.1338 71.7087 95.101 71.6232Z" fill="black"/>
</svg>
