<svg width="40" height="40" viewBox="0 0 40 40" fill="none" xmlns="http://www.w3.org/2000/svg">
<path fill-rule="evenodd" clip-rule="evenodd" d="M26.7599 20.6222C26.7936 20.5585 26.8236 20.4935 26.8511 20.4272C26.8774 20.361 26.9011 20.2947 26.9211 20.2272C26.9411 20.1597 26.9574 20.0935 26.9699 20.0247C26.9836 19.9547 26.9936 19.886 27.0011 19.8147C27.0074 19.746 27.0111 19.6772 27.0111 19.6072C27.0111 19.5372 27.0074 19.4697 27.0011 19.3997C26.9936 19.3285 26.9836 19.2597 26.9699 19.1897C26.9574 19.1222 26.9411 19.0547 26.9211 18.9885C26.9011 18.9197 26.8774 18.8535 26.8511 18.7885C26.8236 18.721 26.7936 18.656 26.7599 18.5922C26.7274 18.531 26.6924 18.471 26.6536 18.411C26.6111 18.3485 26.5661 18.2885 26.5186 18.2285C26.4936 18.1997 26.4761 18.166 26.4499 18.136L16.3074 6.96722C15.4936 6.07222 14.1111 6.00597 13.2174 6.81847C12.3224 7.63097 12.2561 9.01347 13.0686 9.90847L21.8761 19.6072L13.0686 29.306C12.2561 30.201 12.3224 31.5835 13.2174 32.396C13.6361 32.776 14.1624 32.9647 14.6874 32.9647C15.2824 32.9647 15.8749 32.7222 16.3074 32.2472L26.4499 21.0785C26.4761 21.0497 26.4936 21.016 26.5186 20.986C26.5661 20.9272 26.6111 20.866 26.6536 20.8035C26.6924 20.7447 26.7274 20.6847 26.7599 20.6222Z" fill="white"/>
</svg>
