<svg width="32" height="32" viewBox="0 0 32 32" fill="none" xmlns="http://www.w3.org/2000/svg">
<path d="M32 15.9978C32 7.16112 24.8367 0 16 0C7.16335 0 0 7.16335 0 15.9978C0 24.8344 7.16335 31.9978 16 31.9978C24.8367 32 32 24.8344 32 15.9978Z" fill="#AFAFAF"/>
<path d="M32 15.9978C32 7.16112 24.8367 0 16 0C7.16335 0 0 7.16335 0 15.9978C0 24.8344 7.16335 31.9978 16 31.9978C24.8367 32 32 24.8344 32 15.9978Z" fill="white"/>
<path d="M17.4103 12.21V10.6949C17.4103 9.9574 17.9028 9.78361 18.2481 9.78361C18.5935 9.78361 20.376 9.78361 20.376 9.78361V6.53726L17.446 6.52612C14.1952 6.52612 13.4577 8.94807 13.4577 10.4988V12.21H11.5794V16H13.4755C13.4755 20.2958 13.4755 25.4761 13.4755 25.4761H17.2655C17.2655 25.4761 17.2655 20.2423 17.2655 16H20.0752L20.4205 12.21H17.4103Z" fill="#282826"/>
</svg>
