<svg width="200" height="200" viewBox="0 0 200 200" fill="none" xmlns="http://www.w3.org/2000/svg">
<g clip-path="url(#clip0_154_828)">
<rect width="182" height="72.1441" transform="translate(9 64)" fill="black"/>
<path d="M78.6988 92.6286V89.9566C77.8321 91.0519 76.7183 91.9243 75.4495 92.5018C74.1808 93.0792 72.7935 93.3452 71.4021 93.2776C70.0944 93.3231 68.7911 93.1031 67.57 92.6308C66.3489 92.1586 65.2351 91.4438 64.2955 90.5292C63.2853 89.3335 62.5202 87.9491 62.0441 86.4556C61.568 84.9621 61.3903 83.3888 61.5211 81.8262V64.7635H67.8678V80.6809C67.8678 85.0325 69.616 87.1701 73.0743 87.1701C76.5327 87.1701 78.6988 85.0707 78.6988 80.7954V64.7635H85.0455V92.6286H78.6988Z" fill="white"/>
<path d="M122.099 92.6286V76.673C122.099 72.3214 120.541 70.1838 117.387 70.1838C116.671 70.149 115.956 70.2787 115.298 70.5632C114.639 70.8476 114.054 71.2792 113.586 71.8251C112.572 73.2702 112.088 75.0242 112.218 76.7875V92.6286H105.758V76.673C105.758 72.3214 104.161 70.1838 101.007 70.1838C100.291 70.1461 99.5753 70.2746 98.9163 70.5592C98.2573 70.8438 97.6724 71.277 97.2068 71.8251C96.1789 73.2652 95.6817 75.0196 95.8005 76.7875V92.6286H89.454V64.7635H95.8005V67.3591C96.5786 66.2952 97.6075 65.4418 98.7948 64.8755C99.982 64.3093 101.291 64.0478 102.603 64.1145C104.05 63.9879 105.502 64.2802 106.789 64.9566C108.075 65.6331 109.141 66.6655 109.862 67.9317C110.813 66.6293 112.082 65.5944 113.546 64.926C115.01 64.2576 116.62 63.9781 118.223 64.1145C120.936 63.9758 123.595 64.9072 125.634 66.7101C126.627 67.8077 127.384 69.1003 127.854 70.5063C128.325 71.9124 128.501 73.4013 128.37 74.8789V92.6286H122.099Z" fill="white"/>
<path d="M152.844 92.6286V90.4147C151.882 91.3816 150.729 92.1357 149.459 92.6287C148.189 93.1217 146.831 93.3428 145.472 93.2776C142.841 93.3921 140.259 92.5368 138.213 90.8727C137.269 90.0084 136.53 88.9425 136.049 87.7535C135.569 86.5645 135.361 85.2825 135.439 84.0018C135.36 82.6896 135.607 81.3785 136.158 80.1859C136.708 78.9934 137.545 77.9568 138.593 77.1692C140.806 75.5775 143.472 74.7472 146.194 74.8025C148.477 74.7112 150.745 75.2247 152.768 76.2912V74.8025C152.831 74.1077 152.744 73.4076 152.515 72.7492C152.285 72.0908 151.918 71.4893 151.438 70.9853C150.268 70.0822 148.805 69.6471 147.334 69.7639C144.378 69.7519 141.493 70.6732 139.087 72.3977L137.301 67.0536C140.532 64.9536 144.322 63.8887 148.17 64C149.447 63.9769 150.723 64.105 151.97 64.3817C153.177 64.6505 154.332 65.1146 155.391 65.7558C156.633 66.5232 157.593 67.6754 158.127 69.0386C158.83 70.7961 159.167 72.68 159.115 74.5734V92.6286H152.844ZM146.65 87.6664C147.812 87.6868 148.965 87.4591 150.033 86.9985C151.101 86.5379 152.059 85.8547 152.844 84.9943V81.1771C151.117 80.3836 149.233 79.9922 147.334 80.032C145.897 79.9694 144.469 80.2852 143.191 80.9481C142.692 81.2222 142.28 81.6332 142.004 82.1333C141.728 82.6334 141.6 83.202 141.633 83.7728C141.608 84.2913 141.713 84.8079 141.939 85.2749C142.165 85.7419 142.504 86.1442 142.925 86.4448C144.009 87.2207 145.32 87.6104 146.65 87.5518V87.6664Z" fill="white"/>
<path d="M184.653 92.6286V76.6729C184.653 72.3214 182.943 70.1837 179.523 70.1837C176.102 70.1837 173.86 72.2832 173.86 76.5584V92.6286H167.704V64.7634H174.05V67.3973C174.941 66.322 176.065 65.4667 177.337 64.8975C178.609 64.3283 179.994 64.0604 181.385 64.1145C182.687 64.0653 183.986 64.2837 185.202 64.7563C186.417 65.2289 187.524 65.9457 188.454 66.8628C189.46 68.0524 190.22 69.4312 190.689 70.9189C191.159 72.4066 191.329 73.9733 191.19 75.5277V92.6286H184.653Z" fill="white"/>
<path d="M73.3783 136.068C71.1974 136.069 69.0387 135.628 67.0318 134.77C65.2465 134.031 63.6958 132.817 62.5472 131.258L66.9178 127.441C67.7348 128.352 68.7305 129.083 69.8423 129.589C70.9541 130.095 72.1579 130.364 73.3783 130.38C76.3806 130.38 77.8627 129.464 77.8627 127.67C77.8566 127.349 77.7822 127.033 77.6446 126.744C77.507 126.454 77.3092 126.197 77.0647 125.99C76.5949 125.484 76.0255 125.081 75.3925 124.807L72.5043 123.586C69.9518 122.868 67.5722 121.634 65.5115 119.959C64.7835 119.264 64.2106 118.421 63.8307 117.487C63.4507 116.552 63.2724 115.548 63.3074 114.539C63.2665 113.425 63.5021 112.319 63.993 111.319C64.484 110.32 65.2148 109.458 66.1196 108.813C68.203 107.404 70.6783 106.695 73.1884 106.79C75.065 106.704 76.9366 107.047 78.6616 107.795C80.3866 108.542 81.9199 109.673 83.1453 111.104L78.7369 114.692C78.0183 113.945 77.1556 113.353 76.2016 112.953C75.2476 112.553 74.2223 112.352 73.1884 112.363C70.7181 112.363 69.388 113.127 69.388 114.654C69.4162 115.073 69.5589 115.476 69.8002 115.82C70.0415 116.163 70.3721 116.433 70.7561 116.6C72.0503 117.299 73.413 117.862 74.8225 118.28C77.3076 119.022 79.6203 120.255 81.6252 121.906C82.3947 122.711 82.9926 123.665 83.3825 124.71C83.7724 125.756 83.9459 126.869 83.8926 127.984C83.8392 129.099 83.5601 130.191 83.0723 131.194C82.5844 132.196 81.898 133.089 81.0552 133.816C78.7978 135.363 76.11 136.151 73.3783 136.068Z" fill="white"/>
<path d="M122.099 135.419V119.349C122.099 115.035 120.541 112.859 117.387 112.859C116.668 112.832 115.952 112.969 115.294 113.26C114.636 113.551 114.052 113.988 113.586 114.539C112.58 115.974 112.097 117.713 112.218 119.463V135.343H105.758V119.349C105.758 115.035 104.161 112.859 101.007 112.859C100.288 112.829 99.5716 112.965 98.9128 113.256C98.254 113.547 97.6705 113.986 97.2068 114.539C96.1874 115.969 95.6906 117.708 95.8005 119.463V135.343H89.454V107.477H95.8005V110.035C96.5874 108.983 97.619 108.141 98.8048 107.582C99.9907 107.023 101.295 106.764 102.603 106.828C104.05 106.702 105.502 106.994 106.789 107.671C108.075 108.347 109.141 109.379 109.862 110.646C110.813 109.343 112.082 108.308 113.546 107.64C115.01 106.972 116.62 106.692 118.223 106.828C120.936 106.69 123.595 107.621 125.633 109.424C126.624 110.516 127.379 111.802 127.85 113.201C128.321 114.601 128.498 116.083 128.37 117.555V135.343L122.099 135.419Z" fill="white"/>
<path d="M138.783 102.629C138.071 103.34 137.108 103.74 136.104 103.74C135.1 103.74 134.136 103.34 133.424 102.629C133.072 102.273 132.793 101.85 132.604 101.385C132.415 100.92 132.319 100.422 132.322 99.9193C132.309 99.4212 132.4 98.9258 132.59 98.4654C132.78 98.0051 133.064 97.59 133.424 97.2473C133.957 96.7367 134.626 96.3926 135.35 96.2569C136.074 96.1211 136.822 96.1996 137.502 96.4826C138.182 96.7657 138.766 97.2412 139.182 97.8513C139.599 98.4614 139.83 99.1799 139.847 99.9193C139.863 100.929 139.48 101.903 138.783 102.629ZM132.892 135.419V107.554H139.239V135.419H132.892Z" fill="white"/>
<path d="M155.58 136.068C151.286 136.068 149.12 133.701 149.12 128.93V113.127H144.901V107.554H149.006V99.1178L155.352 96.064V107.515H161.775V113.088H155.352V127.632C155.352 129.426 156.151 130.304 157.709 130.304C159.237 130.27 160.731 129.836 162.041 129.044L161.281 134.77C159.511 135.653 157.557 136.098 155.58 136.068Z" fill="white"/>
<path d="M167.704 135.419V99.0033L174.05 96.064V110.188C174.935 109.106 176.058 108.245 177.332 107.676C178.605 107.106 179.993 106.842 181.385 106.905C182.684 106.857 183.979 107.073 185.194 107.538C186.408 108.004 187.517 108.71 188.454 109.615C189.454 110.808 190.211 112.187 190.68 113.674C191.15 115.161 191.323 116.726 191.19 118.28V135.419H184.843V119.349C184.843 115.073 183.133 112.936 179.713 112.936C175.913 112.936 174.05 115.035 174.05 119.234V135.419H167.704Z" fill="white"/>
<path d="M21.3132 134.236H46.3957H47.4598V103.24H21.3132V134.236Z" fill="white"/>
<path d="M21.3132 96.1786H46.3957H47.4598V65.1833H21.3132V96.1786Z" fill="white"/>
<path d="M10.9002 64.0764V134.236H56.6947V103.24" stroke="white" stroke-width="4" stroke-miterlimit="10"/>
</g>
<defs>
<clipPath id="clip0_154_828">
<rect width="182" height="72.1441" fill="white" transform="translate(9 64)"/>
</clipPath>
</defs>
</svg>
