<svg width="32" height="32" viewBox="0 0 32 32" fill="none" xmlns="http://www.w3.org/2000/svg">
<circle cx="16" cy="16" r="16" fill="white"/>
<path d="M16.1235 7C21.7165 7 26.25 10.6833 26.25 15.228C26.25 16.8151 25.6962 18.2969 24.7383 19.5533C24.6815 19.6371 24.6187 19.7166 24.5506 19.7913L24.5447 19.7979C24.2106 20.2006 23.8421 20.5727 23.4437 20.9098C20.6439 23.5369 16.0344 26.6635 15.4258 26.1847C14.8968 25.7659 16.2967 23.7148 14.682 23.3738C14.5688 23.3605 14.457 23.3464 14.3452 23.3301C9.60198 22.6466 6 19.2805 6 15.2303C5.99781 10.6833 10.5313 7 16.1235 7Z" fill="#282826"/>
<path d="M10.1107 17.8094H12.1865C12.3288 17.809 12.4651 17.7518 12.5657 17.6503C12.6664 17.5488 12.7231 17.4113 12.7235 17.2678V17.2228C12.7231 17.0793 12.6664 16.9418 12.5657 16.8403C12.4651 16.7388 12.3288 16.6816 12.1865 16.6812H10.6923V13.2518C10.6919 13.1083 10.6352 12.9708 10.5345 12.8693C10.4339 12.7678 10.2976 12.7106 10.1553 12.7102H10.1107C9.96851 12.7108 9.83228 12.768 9.73171 12.8695C9.63114 12.9709 9.57438 13.1083 9.57379 13.2518V17.2678C9.57418 17.4113 9.63088 17.5488 9.73149 17.6503C9.83211 17.7518 9.96845 17.809 10.1107 17.8094ZM22.9745 15.2946V15.2497C22.9741 15.1061 22.9174 14.9686 22.8168 14.8671C22.7162 14.7656 22.5799 14.7085 22.4376 14.7081H20.9433V13.8481H22.4376C22.5799 13.8477 22.7162 13.7905 22.8168 13.689C22.9174 13.5875 22.9741 13.45 22.9745 13.3065V13.2615C22.9739 13.1181 22.9172 12.9807 22.8166 12.8792C22.716 12.7778 22.5798 12.7205 22.4376 12.7199H20.3618C20.2195 12.7203 20.0832 12.7775 19.9826 12.879C19.8819 12.9805 19.8252 13.118 19.8249 13.2615V17.2775C19.8252 17.421 19.8819 17.5585 19.9826 17.66C20.0832 17.7615 20.2195 17.8187 20.3618 17.8191H22.4376C22.5799 17.8187 22.7162 17.7615 22.8168 17.66C22.9174 17.5585 22.9741 17.421 22.9745 17.2775V17.2325C22.9741 17.089 22.9174 16.9515 22.8168 16.85C22.7162 16.7485 22.5799 16.6913 22.4376 16.6909H20.9433V15.834H22.4376C22.5798 15.8334 22.716 15.7761 22.8166 15.6747C22.9172 15.5732 22.9739 15.4358 22.9745 15.2924V15.2946ZM18.9819 17.6505C19.0814 17.5496 19.1372 17.4131 19.1371 17.2707V13.2518C19.1368 13.1084 19.08 12.9709 18.9794 12.8695C18.8788 12.7682 18.7424 12.7112 18.6002 12.711H18.5556C18.4135 12.7113 18.2772 12.7684 18.1766 12.8698C18.0761 12.9711 18.0193 13.1084 18.0187 13.2518V15.6092L16.0788 12.9874C16.0319 12.9044 15.964 12.8354 15.8821 12.7874C15.8002 12.7394 15.7072 12.714 15.6124 12.7139H15.5679C15.4257 12.7141 15.2893 12.7712 15.1887 12.8725C15.088 12.9739 15.0313 13.1114 15.0309 13.2548V17.2707C15.0313 17.4143 15.088 17.5518 15.1886 17.6533C15.2892 17.7548 15.4256 17.812 15.5679 17.8123H15.6124C15.7547 17.812 15.8911 17.7548 15.9917 17.6533C16.0923 17.5518 16.149 17.4143 16.1494 17.2707V14.8736L18.1033 17.5659C18.116 17.5846 18.1286 17.6026 18.1427 17.6198C18.1959 17.6913 18.2687 17.7455 18.3521 17.7756C18.4167 17.8025 18.4858 17.8162 18.5556 17.8161H18.6002C18.6877 17.8163 18.774 17.7947 18.8512 17.7532C18.9012 17.7301 18.9457 17.6967 18.9819 17.655V17.6505ZM13.6963 17.8094H13.7417C13.8839 17.809 14.0201 17.7517 14.1206 17.6502C14.2211 17.5487 14.2777 17.4112 14.2779 17.2678V13.2518C14.2775 13.1085 14.2208 12.9711 14.1204 12.8698C14.0199 12.7685 13.8837 12.7114 13.7417 12.711H13.6963C13.5542 12.7113 13.418 12.7684 13.3174 12.8698C13.2168 12.9711 13.16 13.1084 13.1594 13.2518V17.2678C13.1598 17.4113 13.2165 17.5488 13.3171 17.6503C13.4177 17.7518 13.5541 17.809 13.6963 17.8094Z" fill="white"/>
</svg>
