<svg width="32" height="32" viewBox="0 0 32 32" fill="none" xmlns="http://www.w3.org/2000/svg">
<path d="M16.32 0.959961C7.83676 0.959961 0.959961 7.83676 0.959961 16.32C0.959961 24.8032 7.83676 31.68 16.32 31.68C24.8032 31.68 31.68 24.8032 31.68 16.32C31.68 7.83676 24.8032 0.959961 16.32 0.959961ZM12.56 22.6848H9.44956V12.6784H12.56V22.6848ZM10.9856 11.4496C10.0032 11.4496 9.36636 10.752 9.36636 9.89116C9.36636 9.01116 10.0192 8.33596 11.024 8.33596C12.0288 8.33596 12.6432 9.01116 12.6624 9.89116C12.6656 10.7552 12.0288 11.4496 10.9856 11.4496ZM23.9168 22.6848H20.8064V17.1392C20.8064 15.8496 20.3552 14.9696 19.2288 14.9696C18.3712 14.9696 17.8592 15.5648 17.632 16.1344C17.5488 16.336 17.5296 16.624 17.5296 16.912V22.6816H14.416V15.8656C14.416 14.6176 14.3776 13.5712 14.3328 12.672H17.0336L17.1776 14.0608H17.2384C17.648 13.408 18.6528 12.4448 20.3296 12.4448C22.3744 12.4448 23.9104 13.8144 23.9104 16.7616V22.6848H23.9168Z" fill="white"/>
</svg>
