<svg width="277" height="150" viewBox="0 0 277 150" fill="none" xmlns="http://www.w3.org/2000/svg">
<path d="M3.07808 109.89C1.70124 103.412 5.83617 97.0448 12.3137 95.668L72.1297 82.9537C78.6072 81.5768 84.9745 85.7118 86.3513 92.1893C87.7282 98.6668 83.5932 105.034 77.1157 106.411L17.2997 119.125C10.8222 120.502 4.45492 116.367 3.07808 109.89Z" fill="white"/>
<path d="M96.9073 89.9454C95.5305 83.4679 99.6654 77.1006 106.143 75.7238L165.959 63.0095C172.436 61.6327 178.804 65.7676 180.181 72.2451C181.557 78.7227 177.422 85.0899 170.945 86.4668L111.129 99.1811C104.651 100.558 98.2841 96.423 96.9073 89.9454Z" fill="white"/>
<path d="M190.736 70.0016C189.36 63.524 193.495 57.1568 199.972 55.78L259.788 43.0657C266.266 41.6888 272.633 45.8238 274.01 52.3013C275.387 58.7788 271.252 65.1461 264.774 66.5229L204.958 79.2372C198.481 80.6141 192.113 76.4791 190.736 70.0016Z" fill="white"/>
<path d="M35.0348 29.5457C33.658 23.0682 37.7929 16.7009 44.2704 15.3241L104.086 2.6098C110.564 1.23296 116.931 5.36789 118.308 11.8454C119.685 18.323 115.55 24.6902 109.072 26.0671L49.2564 38.7813C42.7789 40.1582 36.4116 36.0232 35.0348 29.5457Z" fill="white"/>
<path d="M89.4283 54.7595C88.0515 48.282 92.1864 41.9147 98.6639 40.5379L145.578 30.5659C152.056 29.1891 158.423 33.324 159.8 39.8015C161.177 46.2791 157.042 52.6463 150.564 54.0232L103.65 63.9951C97.1724 65.372 90.8051 61.2371 89.4283 54.7595Z" fill="white"/>
<path d="M163.029 112.666C161.652 106.189 165.787 99.8214 172.265 98.4446L219.179 88.4726C225.657 87.0957 232.024 91.2307 233.401 97.7082C234.778 104.186 230.643 110.553 224.165 111.93L177.251 121.902C170.773 123.279 164.406 119.144 163.029 112.666Z" fill="white"/>
<path d="M104.386 125.131C103.009 118.654 107.144 112.287 113.622 110.91L137.079 105.924C143.557 104.547 149.924 108.682 151.301 115.159C152.678 121.637 148.543 128.004 142.065 129.381L118.608 134.367C112.13 135.744 105.763 131.609 104.386 125.131Z" fill="white"/>
<path d="M16.5635 57.989C15.1866 51.5115 19.3216 45.1442 25.7991 43.7674C32.2767 42.3905 38.6439 46.5255 40.0207 53.003C41.3976 59.4806 37.2627 65.8478 30.7851 67.2246C24.3076 68.6015 17.9403 64.4665 16.5635 57.989Z" fill="white"/>
<path d="M217.423 137.88C216.046 131.403 220.181 125.035 226.658 123.659C233.136 122.282 239.503 126.417 240.88 132.894C242.257 139.372 238.122 145.739 231.644 147.116C225.167 148.493 218.799 144.358 217.423 137.88Z" fill="white"/>
</svg>
