<svg width="152" height="110" viewBox="0 0 152 110" fill="none" xmlns="http://www.w3.org/2000/svg">
<path d="M1.66982 58.8909C0.91886 55.4158 3.17413 52 6.70711 51.2613L39.3319 44.4404C42.8649 43.7018 46.3377 45.9201 47.0887 49.3951V49.3951C47.8396 52.8702 45.5843 56.286 42.0514 57.0247L9.42656 63.8456C5.89359 64.5842 2.42078 62.3659 1.66982 58.8909V58.8909Z" fill="#646D73"/>
<path d="M52.8461 48.1911C52.0951 44.716 54.3504 41.3001 57.8833 40.5615L90.5081 33.7406C94.0411 33.0019 97.5139 35.2202 98.2649 38.6953V38.6953C99.0159 42.1703 96.7606 45.5862 93.2276 46.3248L60.6028 53.1458C57.0698 53.8844 53.597 51.6661 52.8461 48.1911V48.1911Z" fill="#646D73"/>
<path d="M104.022 37.4916C103.271 34.0165 105.527 30.6007 109.06 29.862L141.684 23.0411C145.217 22.3025 148.69 24.5208 149.441 27.9958V27.9958C150.192 31.4709 147.937 34.8867 144.404 35.6254L111.779 42.4463C108.246 43.1849 104.773 40.9667 104.022 37.4916V37.4916Z" fill="#646D73"/>
<path d="M19.0995 15.7879C18.3486 12.3128 20.6039 8.89694 24.1368 8.15829L56.7616 1.33737C60.2946 0.59873 63.7674 2.81703 64.5184 6.29208V6.29208C65.2693 9.76713 63.0141 13.183 59.4811 13.9216L26.8563 20.7426C23.3233 21.4812 19.8505 19.2629 19.0995 15.7879V15.7879Z" fill="#646D73"/>
<path d="M48.767 29.315C48.016 25.8399 50.2713 22.424 53.8042 21.6854L79.3923 16.3357C82.9253 15.597 86.3981 17.8153 87.1491 21.2904V21.2904C87.9 24.7654 85.6448 28.1813 82.1118 28.9199L56.5237 34.2697C52.9907 35.0083 49.5179 32.79 48.767 29.315V29.315Z" fill="#646D73"/>
<path d="M88.9104 60.3805C88.1595 56.9055 90.4148 53.4896 93.9477 52.7509L119.536 47.4012C123.069 46.6626 126.542 48.8809 127.293 52.3559V52.3559C128.044 55.831 125.788 59.2468 122.255 59.9855L96.6672 65.3352C93.1342 66.0739 89.6614 63.8556 88.9104 60.3805V60.3805Z" fill="#646D73"/>
<path d="M56.9255 67.0675C56.1746 63.5925 58.4298 60.1766 61.9628 59.438L74.7569 56.7631C78.2898 56.0244 81.7626 58.2427 82.5136 61.7178V61.7178C83.2646 65.1928 81.0093 68.6087 77.4763 69.3474L64.6823 72.0222C61.1493 72.7609 57.6765 70.5426 56.9255 67.0675V67.0675Z" fill="#646D73"/>
<path d="M9.02486 31.0471C8.2739 27.5721 10.5292 24.1562 14.0621 23.4176V23.4176C17.5951 22.6789 21.0679 24.8972 21.8189 28.3723V28.3723C22.5699 31.8473 20.3146 35.2632 16.7816 36.0018V36.0018C13.2486 36.7405 9.77582 34.5222 9.02486 31.0471V31.0471Z" fill="#646D73"/>
<path d="M118.578 73.9068C117.827 70.4317 120.082 67.0158 123.615 66.2772V66.2772C127.148 65.5385 130.621 67.7568 131.372 71.2319V71.2319C132.123 74.7069 129.868 78.1228 126.335 78.8615V78.8615C122.802 79.6001 119.329 77.3818 118.578 73.9068V73.9068Z" fill="#646D73"/>
<path d="M3.64185 90.0247H7.30527V102.673H15.0177V105.481H3.64185V90.0247Z" fill="#646D73"/>
<path d="M23.8009 105.813C22.1137 105.813 20.5793 105.474 19.1975 104.795C17.8317 104.117 16.7552 103.174 15.9679 101.965C15.1806 100.742 14.7869 99.3412 14.7869 97.7639C14.7869 96.1866 15.1806 94.7861 15.9679 93.5626C16.7552 92.3391 17.8317 91.3882 19.1975 90.7101C20.5793 90.032 22.1137 89.693 23.8009 89.693C25.488 89.693 27.0063 90.032 28.356 90.7101C29.7218 91.3882 30.7983 92.3391 31.5856 93.5626C32.3729 94.7861 32.7666 96.1866 32.7666 97.7639C32.7666 99.3412 32.3729 100.742 31.5856 101.965C30.7983 103.174 29.7218 104.117 28.356 104.795C27.0063 105.474 25.488 105.813 23.8009 105.813ZM23.8009 102.717C24.7649 102.717 25.6406 102.518 26.4279 102.12C27.2313 101.707 27.866 101.132 28.3319 100.395C28.7979 99.6434 29.0309 98.7663 29.0309 97.7639C29.0309 96.7762 28.7979 95.9138 28.3319 95.1768C27.882 94.425 27.2554 93.85 26.452 93.452C25.6647 93.0393 24.781 92.8329 23.8009 92.8329C22.8047 92.8329 21.9049 93.0393 21.1015 93.452C20.3142 93.85 19.6875 94.425 19.2216 95.1768C18.7556 95.9138 18.5226 96.7762 18.5226 97.7639C18.5226 98.7663 18.7556 99.6434 19.2216 100.395C19.6875 101.132 20.3222 101.707 21.1256 102.12C21.929 102.518 22.8207 102.717 23.8009 102.717Z" fill="#646D73"/>
<path d="M43.4091 105.813C41.6095 105.813 40.0188 105.488 38.637 104.84C37.2552 104.176 36.1867 103.24 35.4315 102.031C34.6763 100.823 34.2987 99.4002 34.2987 97.7639C34.2987 96.1276 34.6763 94.705 35.4315 93.4963C36.1867 92.2727 37.2552 91.3367 38.637 90.688C40.0188 90.0247 41.6095 89.693 43.4091 89.693C44.6302 89.693 45.7068 89.8109 46.6387 90.0468C47.5867 90.2679 48.4543 90.6217 49.2417 91.1082V94.3144C48.5347 93.7837 47.7233 93.4004 46.8074 93.1646C45.9076 92.914 44.8793 92.7887 43.7224 92.7887C42.6459 92.7887 41.6738 92.9951 40.8061 93.4078C39.9546 93.8058 39.2797 94.3807 38.7816 95.1325C38.2835 95.8844 38.0345 96.7615 38.0345 97.7639C38.0345 98.781 38.2594 99.6729 38.7093 100.439C39.1753 101.191 39.826 101.774 40.6615 102.186C41.497 102.599 42.4611 102.805 43.5537 102.805C44.5499 102.805 45.4176 102.643 46.1567 102.319V99.3338H43.4332V96.8573H49.6996V104.309C48.1089 105.311 46.0121 105.813 43.4091 105.813Z" fill="#646D73"/>
<path d="M51.2686 103.469L54.2813 100.948C54.8919 100.447 55.3498 100.078 55.6551 99.8424C56.571 99.1053 57.2699 98.5157 57.7519 98.0734C58.234 97.6165 58.6276 97.1447 58.9329 96.6583C59.2382 96.1718 59.3908 95.6706 59.3908 95.1547C59.3908 94.4323 59.1578 93.8648 58.6919 93.452C58.242 93.0393 57.535 92.8329 56.571 92.8329C55.7676 92.8329 54.9642 92.9656 54.1608 93.2309C53.3574 93.4815 52.6183 93.8427 51.9435 94.3144V91.1082C52.6504 90.6512 53.4538 90.3048 54.3536 90.0689C55.2695 89.8183 56.2576 89.693 57.3181 89.693C58.5392 89.693 59.5917 89.8994 60.4754 90.3121C61.3591 90.7249 62.034 91.3072 62.4999 92.059C62.9659 92.8108 63.1989 93.6732 63.1989 94.6461C63.1989 95.7369 62.8936 96.7099 62.283 97.5649C61.6885 98.4051 60.7164 99.4002 59.3667 100.55L56.7879 102.717H63.7773V105.481H51.2686V103.469Z" fill="#646D73"/>
<path d="M68.8147 93.6953L65.32 96.017V92.7887L69.4172 90.0247H72.4781V105.481H68.8147V93.6953Z" fill="#646D73"/>
<path d="M83.4074 90.0247H90.7101C92.6222 90.0247 94.1084 90.4669 95.1689 91.3514C96.2454 92.2211 96.7837 93.4815 96.7837 95.1325C96.7837 96.2824 96.4945 97.2627 95.9161 98.0734C95.3376 98.8695 94.5182 99.4518 93.4577 99.8203L96.6632 105.481H92.9034L89.9389 100.24H87.0708V105.481H83.4074V90.0247ZM90.0594 97.4322C90.9913 97.4322 91.7224 97.2479 92.2526 96.8794C92.7989 96.5109 93.0721 95.9286 93.0721 95.1325C93.0721 94.2923 92.807 93.7026 92.2767 93.3636C91.7465 93.0098 91.0074 92.8329 90.0594 92.8329H87.0708V97.4322H90.0594Z" fill="#646D73"/>
<path d="M106.151 105.813C103.692 105.813 101.837 105.223 100.583 104.044C99.33 102.85 98.7034 101.25 98.7034 99.2454V90.0247H102.367V99.2896C102.367 100.41 102.704 101.265 103.379 101.855C104.054 102.444 104.978 102.739 106.151 102.739C107.308 102.739 108.215 102.444 108.874 101.855C109.549 101.265 109.886 100.41 109.886 99.2896V90.0247H113.55V99.2454C113.55 101.25 112.931 102.85 111.694 104.044C110.457 105.223 108.609 105.813 106.151 105.813Z" fill="#646D73"/>
<path d="M115.959 90.0247H124.225C125.816 90.0247 127.061 90.3858 127.961 91.1082C128.861 91.8305 129.311 92.8771 129.311 94.2481C129.311 94.9409 129.134 95.5748 128.781 96.1497C128.427 96.7099 127.945 97.1447 127.334 97.4543C128.17 97.7344 128.797 98.1619 129.214 98.7368C129.632 99.297 129.841 100.034 129.841 100.948C129.841 101.877 129.608 102.687 129.142 103.38C128.692 104.058 128.065 104.582 127.262 104.95C126.475 105.304 125.599 105.481 124.635 105.481H115.959V90.0247ZM123.526 96.3045C124.169 96.3045 124.675 96.1571 125.045 95.8622C125.414 95.5674 125.599 95.0957 125.599 94.4471C125.599 93.7395 125.414 93.253 125.045 92.9877C124.691 92.7223 124.145 92.5897 123.406 92.5897H119.622V96.3045H123.526ZM123.743 102.916C124.531 102.916 125.125 102.776 125.527 102.496C125.945 102.201 126.153 101.692 126.153 100.97C126.153 100.233 125.937 99.7024 125.503 99.378C125.085 99.0537 124.458 98.8916 123.623 98.8916H119.622V102.916H123.743Z" fill="#646D73"/>
<path d="M135.768 99.5992L129.598 90.0247H133.503L137.576 96.4593L141.794 90.0247H145.674L139.36 99.5992V105.481H135.768V99.5992Z" fill="#646D73"/>
</svg>
