<svg width="200" height="200" viewBox="0 0 200 200" fill="none" xmlns="http://www.w3.org/2000/svg">
<circle cx="100" cy="100" r="59" stroke="white" stroke-width="2"/>
<path d="M84.99 98.2216C84.9309 93.5809 85.1672 88.9814 87.3333 84.505C88.4425 82.2854 89.9319 80.2962 91.7278 78.6358C89.2729 76.3428 88.0455 74.0054 87.6188 72.8521C84.4268 73.2291 81.4111 74.5747 78.9457 76.7222C76.4802 78.8697 74.6735 81.7245 73.7494 84.9328V84.9328C73.634 85.3244 73.5624 85.7286 73.5361 86.1374V86.1374C73.5361 86.1545 73.5361 86.1751 73.5361 86.1956C73.5337 86.4068 73.5636 86.6171 73.6247 86.8185C73.636 86.8464 73.6459 86.875 73.6542 86.904C73.6542 86.928 73.6772 86.9554 73.6903 86.9827C73.8595 87.3508 74.1247 87.6616 74.4556 87.8795C74.7865 88.0975 75.1697 88.2136 75.561 88.2148C75.8307 88.2381 76.1018 88.1951 76.3525 88.0893C76.6033 87.9835 76.8268 87.8178 77.0051 87.6056L77.4613 87.0238C78.5845 85.5367 80.038 84.3571 81.6962 83.5867C83.3543 82.8164 85.1674 82.4785 86.9789 82.6022V82.6022L86.9592 82.6262C86.6539 83.0642 82.2562 89.7069 84.4321 102.185C84.6671 103.604 85.0364 104.996 85.5348 106.339V106.339L85.7153 106.794L85.4889 105.254C85.1869 102.866 85.0753 100.47 84.99 98.2216Z" fill="white"/>
<path d="M133.083 61.0382C131.114 68.8547 124.533 74.8917 117.681 78.3585C112.213 80.802 106.768 83.7862 102.538 88.201C101.237 89.5429 100.149 91.092 99.315 92.7903C97.7036 96.7157 97.1161 101.004 96.6698 105.234C96.4051 108.354 96.3437 111.489 96.486 114.618H96.3908C95.9628 111.487 95.8112 108.322 95.9379 105.162C96.0694 101.988 96.5093 98.8356 97.2507 95.754C97.6675 94.2174 98.0941 92.6739 98.9638 91.2434C101.425 87.1366 105.35 84.2824 109.256 81.8903C111.888 80.3398 114.62 78.9802 117.431 77.8212C122.797 75.162 127.815 71.2127 130.913 65.8431C131.802 64.2859 132.484 62.6095 132.938 60.8603C132.623 60.4505 132.25 60.0928 131.832 59.7993C129.381 67.0135 123.139 72.6261 116.683 76.0895C116.095 76.4043 115.18 76.8458 114.56 77.1162C113.171 77.7561 111.786 78.4337 110.428 79.1695L109.804 78.7965C111.291 78.0094 112.804 77.2804 114.327 76.5857C114.934 76.3188 115.843 75.8807 116.43 75.559C122.863 72.2017 129.082 66.7671 131.681 59.6898C131.224 59.3928 130.729 59.1625 130.211 59.0054C127.654 65.2168 122.216 70.1313 116.617 73.4132C114.72 74.5666 112.574 75.4666 110.579 76.4317C109.775 76.8355 108.957 77.2531 108.137 77.6911C107.946 77.5542 107.763 77.4139 107.582 77.277C109.522 76.2503 111.491 75.3297 113.391 74.4707C120.096 71.2675 126.903 66.0313 130.011 58.9438C129.817 58.8924 129.614 58.848 129.404 58.8103C128.848 58.743 128.288 58.7281 127.73 58.7658C124.251 65.8363 117.254 71.0621 110.375 74.1969C109.062 74.8198 107.671 75.4906 106.286 76.2093C106.115 76.0587 105.958 75.9047 105.784 75.7507C108.386 74.3817 111.094 73.3551 113.66 71.9109C119.115 68.8924 124.438 64.4708 127.464 58.7863C126.616 58.8756 125.781 59.0745 124.98 59.3784C121.386 65.0697 115.18 69.2004 109.292 71.75C107.69 72.4687 105.971 73.2558 104.228 74.1456C104.08 73.9779 103.936 73.8034 103.801 73.646C104.661 73.2193 105.528 72.8064 106.401 72.4071C108.413 71.4796 110.431 70.6959 112.393 69.6692C116.932 67.2976 121.498 63.9301 124.537 59.5701C123.154 60.1496 121.876 60.9688 120.756 61.993C120.505 62.2479 120.231 62.4771 119.939 62.6775C119.156 63.1874 118.342 63.6446 117.503 64.0464C115.042 65.1279 105.767 67.8691 105.767 67.8691C104.537 68.2558 102.331 69.1799 101.173 69.6213L101.022 69.3784V69.3441L100.874 69.0224C100.545 68.2091 100.156 67.4241 99.7088 66.6747C98.2248 64.2249 96.1709 62.2061 93.738 60.806C91.3051 59.4059 88.5723 58.67 85.7935 58.6666H85.7672C83.3958 58.6653 81.0523 59.2001 78.8981 60.234C78.6316 60.3673 78.3758 60.5229 78.1335 60.6994C78.0504 60.761 77.9725 60.8297 77.9004 60.9047C77.6437 61.2038 77.4716 61.5712 77.4031 61.9661C77.3347 62.3611 77.3726 62.7681 77.5128 63.1419C77.6529 63.5157 77.8897 63.8417 78.1968 64.0835C78.504 64.3254 78.8695 64.4736 79.2526 64.5118H79.2788H79.3609C79.6891 64.5426 80.6146 64.7069 80.6376 64.7103C82.2825 64.9661 83.8279 65.6896 85.1043 66.8014V66.8014C86.6719 68.0892 87.8809 69.7906 88.6061 71.7295H88.6356C88.6356 71.7534 89.2264 74.0327 91.3924 76.5036C91.702 76.8486 92.0307 77.1742 92.377 77.4789V77.4789C94.8319 79.6577 97.6891 81.2883 100.772 82.2701V82.2701C101.95 82.7965 103.193 83.149 104.464 83.3174C104.464 83.3174 104.94 84.1284 102.823 84.0942C102.121 84.6623 101.435 85.2544 100.775 85.8807C99.3563 87.2137 98.1391 88.7633 97.1653 90.4768C96.6655 91.5497 96.2633 92.6691 95.9642 93.8204C95.1648 96.9364 94.6159 100.116 94.3232 103.328C94.0442 106.534 93.8014 109.796 94.1886 112.999C93.5519 109.854 93.6274 106.476 93.8604 103.283C94.0865 100.031 94.6051 96.8074 95.4095 93.6561C95.7112 92.4573 96.1233 91.2917 96.6402 90.1756C97.638 88.3911 98.8908 86.7755 100.355 85.3844C100.897 84.8677 101.455 84.3577 102.023 83.8957C101.366 83.7349 100.624 83.5227 99.8139 83.2523C97.9264 84.8401 96.305 86.7437 95.0157 88.8854C92.6133 92.561 92.1013 98.3926 92.0258 102.77C92.0258 105.685 91.9372 108.618 92.1702 111.527C91.6414 107.657 91.4622 103.743 91.6353 99.8368C91.8978 95.9354 92.4164 91.8183 94.5529 88.485C95.7726 86.4184 97.3029 84.5696 99.0853 83.0094C98.4781 82.7869 97.848 82.5268 97.2047 82.2359C95.4032 83.7943 93.8521 85.6428 92.61 87.7116C90.5621 90.9114 90.0632 94.9258 89.7285 98.6903C89.6793 99.4021 89.6202 100.877 89.6202 101.596C89.6202 104.515 89.5316 107.445 89.7646 110.357C89.2369 106.483 89.0578 102.565 89.2296 98.6561C89.4955 94.7547 90.0107 90.6411 92.1506 87.3078C93.1137 85.6089 94.3088 84.0652 95.6983 82.7253C95.9838 82.4481 96.2759 82.1812 96.5713 81.9142C95.7882 81.5316 95.0277 81.1008 94.2937 80.624C92.8305 81.946 91.566 83.4896 90.5424 85.203C88.4321 88.4713 87.9464 92.5918 87.6248 96.4453C87.5001 98.3926 87.5099 100.443 87.5198 102.393C87.5296 104.344 87.5198 106.373 87.6904 108.355C87.1682 104.401 86.9815 100.406 87.1325 96.4179C87.336 92.5062 87.9792 88.0093 90.0271 84.8711C91.0244 83.1406 92.2733 81.582 93.7292 80.251C93.4972 80.0867 93.2642 79.9156 93.0301 79.7376L92.7347 79.5049L92.4886 79.303L92.2096 79.0566C90.4423 80.6744 88.9711 82.6131 87.8676 84.7787C86.3777 88.0025 85.718 91.3803 85.4948 94.9292C85.2487 98.8033 85.4029 102.434 85.718 106.801C85.7475 106.897 85.7803 106.989 85.8132 107.082C86.0913 107.885 86.3107 108.708 86.4695 109.546C86.8529 112.475 86.6097 115.456 85.7574 118.276C85.7311 118.358 85.7049 118.444 85.6819 118.536C85.0485 120.039 83.1056 123.214 77.7002 124.303C76.5186 121.573 74.3787 119.418 71.7206 118.283C70.8614 117.918 69.9616 117.668 69.0425 117.537C69.0753 117.554 69.8991 118.112 70.3093 119.799C70.4878 120.891 70.5287 122.002 70.4308 123.105V123.105C70.4115 123.989 70.44 124.873 70.5161 125.754C70.5161 125.809 70.5325 125.863 70.5391 125.918C70.7049 126.862 70.9805 127.781 71.3596 128.656C71.7632 129.59 72.6001 130.165 73.2434 130.976L73.3681 131.134C73.1548 132.034 72.7117 133.286 72.7117 134.258C72.7114 134.999 72.7784 135.738 72.9119 136.466V136.466C72.9119 136.466 73.6438 139.385 74.5955 140.459C75.3602 141.431 76.7288 143.474 76.7977 145.778C78.7669 143.796 79.9352 138.454 80.0993 135.415C80.0993 135.196 80.119 134.97 80.119 134.748C80.1202 133.965 80.0454 133.184 79.8958 132.417H79.9845C81.3928 132.562 82.8121 132.551 84.2181 132.383C84.8577 132.327 85.4914 132.212 86.1118 132.041C88.3166 131.528 90.4131 130.6 92.2982 129.303C93.1141 128.77 93.8829 128.163 94.5956 127.489C94.9141 127.201 95.2144 126.893 95.4948 126.565L95.5605 126.49C95.8708 126.156 96.1623 125.804 96.4335 125.436C96.7617 125.015 97.0439 124.58 97.3163 124.142C97.8252 123.319 98.2644 122.451 98.6291 121.548C99.1757 120.212 99.5573 118.809 99.7646 117.373C99.8493 116.777 99.9029 116.177 99.9254 115.576C100.191 112.883 100.447 111.175 100.51 110.785C101.024 108.499 101.805 106.287 102.837 104.2C103.808 102.215 105.001 100.356 106.391 98.6629C107.662 97.3455 109.055 96.1625 110.549 95.1311C111.048 94.7889 111.612 94.409 112.233 93.9778C116.466 91.0312 123.142 85.9902 127.759 80.6309C128.659 79.6326 129.506 78.5838 130.296 77.4892V77.4687L130.326 77.4276C131.309 76.0104 132.14 74.4852 132.804 72.8794C132.988 72.4653 133.158 72.0443 133.309 71.6131L133.349 71.507C133.615 70.7356 133.828 69.9453 133.985 69.1422C134.051 68.8 134.107 68.4578 134.156 68.0881C134.169 68.0813 135.052 63.8171 133.083 61.0382Z" fill="white"/>
</svg>
