<svg width="200" height="200" viewBox="0 0 200 200" fill="none" xmlns="http://www.w3.org/2000/svg">
<path fill-rule="evenodd" clip-rule="evenodd" d="M86.188 141.688C86.1268 141.521 86.0567 141.357 85.9802 141.201C85.7496 140.733 85.446 140.312 85.0779 139.95C84.1233 139.013 82.8044 138.275 81.1591 137.758L79.2788 137.16C78.72 136.988 78.2356 136.799 77.8392 136.596C77.4527 136.398 77.1416 136.184 76.9135 135.959C76.4686 135.521 76.252 134.963 76.252 134.255C76.252 134.14 76.257 134.027 76.2673 133.917C76.2769 133.809 76.2919 133.704 76.3115 133.603C76.3504 133.402 76.4092 133.212 76.4863 133.038C76.5249 132.951 76.5685 132.867 76.6167 132.787C76.7617 132.544 76.9537 132.325 77.1873 132.137C77.267 132.073 77.3501 132.013 77.4372 131.957C77.612 131.845 77.8046 131.748 78.01 131.668C78.1142 131.627 78.2225 131.59 78.3345 131.558C78.5595 131.492 78.804 131.443 79.0607 131.41C79.3202 131.377 79.5996 131.36 79.8915 131.36C80.9052 131.36 81.8361 131.523 82.6588 131.843C83.273 132.08 83.8109 132.354 84.2583 132.656C84.404 132.755 84.5424 132.858 84.67 132.963L84.7898 133.063L84.9229 132.985C85.0508 132.91 85.1694 132.821 85.2745 132.721C85.3803 132.62 85.4752 132.505 85.5574 132.379C85.6855 132.182 85.7668 131.953 85.7988 131.698C85.8091 131.615 85.8144 131.529 85.8144 131.441C85.8144 131.238 85.7705 131.037 85.684 130.843C85.6423 130.749 85.5897 130.655 85.5275 130.564C85.4674 130.476 85.3965 130.387 85.3162 130.3C85.2387 130.216 85.1529 130.134 85.0589 130.054C84.9668 129.976 84.8666 129.899 84.7587 129.824C84.5474 129.678 84.3031 129.537 84.0325 129.406C83.492 129.142 82.8532 128.936 82.1336 128.79C81.5968 128.682 81.0187 128.613 80.4154 128.585C80.2141 128.576 80.0097 128.572 79.8012 128.572C78.8158 128.572 77.9182 128.703 77.1332 128.963C76.3379 129.226 75.6453 129.603 75.0744 130.082C74.6397 130.447 74.275 130.879 73.9913 131.367C73.8964 131.53 73.8086 131.702 73.7309 131.879C73.5753 132.232 73.4571 132.611 73.3793 133.007C73.3021 133.4 73.2629 133.82 73.2629 134.255C73.2629 134.436 73.2691 134.612 73.2813 134.783C73.3298 135.472 73.4791 136.096 73.7249 136.639C73.9107 137.049 74.1556 137.421 74.4521 137.744C75.2253 138.588 76.2981 139.235 77.6419 139.666L80.318 140.526C80.4615 140.572 80.5996 140.62 80.7331 140.668C81.1298 140.815 81.4873 140.976 81.7963 141.147C81.899 141.204 81.9966 141.262 82.09 141.322C82.3638 141.499 82.599 141.689 82.7891 141.89C82.913 142.021 83.0225 142.163 83.1146 142.313C83.3924 142.764 83.5334 143.32 83.5334 143.962C83.5334 144.333 83.4867 144.682 83.3949 144.998C83.2431 145.523 82.9593 145.986 82.5508 146.375C82.4705 146.452 82.3834 146.525 82.2922 146.593C82.202 146.661 82.1049 146.725 82.0032 146.784C81.7994 146.902 81.5726 147.002 81.3286 147.081C80.8327 147.241 80.2465 147.323 79.5865 147.323C79.4313 147.323 79.2794 147.319 79.1307 147.31C78.6942 147.286 78.2748 147.226 77.8852 147.129C77.7555 147.097 77.6288 147.063 77.505 147.026C77.1372 146.917 76.794 146.783 76.4829 146.631C76.2741 146.53 76.0759 146.422 75.8939 146.311C75.8027 146.256 75.7147 146.199 75.6301 146.14C75.5457 146.082 75.4645 146.023 75.3858 145.962C75.3059 145.9 75.229 145.838 75.1556 145.777C74.9384 145.597 74.7464 145.417 74.5843 145.242L74.4801 145.13L74.3407 145.183C74.1798 145.245 74.0261 145.329 73.8846 145.432C73.7452 145.533 73.6139 145.656 73.4935 145.796C73.2383 146.098 73.1092 146.473 73.1092 146.912C73.1092 147.212 73.2078 147.515 73.4026 147.811C73.4639 147.904 73.5364 147.999 73.6176 148.092C73.8531 148.364 74.1661 148.623 74.5473 148.862C74.6717 148.94 74.8046 149.017 74.9455 149.092C75.2256 149.239 75.5386 149.374 75.8759 149.493C76.2094 149.611 76.5766 149.716 76.9674 149.806C77.1643 149.852 77.3662 149.891 77.5744 149.925C78.1936 150.026 78.8703 150.077 79.5865 150.077C81.786 150.077 83.5132 149.511 84.7201 148.393C85.6327 147.547 86.2114 146.492 86.4401 145.259C86.516 144.849 86.5546 144.413 86.5546 143.962C86.5546 143.541 86.5238 143.137 86.4634 142.761C86.4027 142.382 86.31 142.021 86.188 141.688Z" fill="#97724A"/>
<path fill-rule="evenodd" clip-rule="evenodd" d="M101.15 142.246H94.6581C94.9029 141.471 95.1657 140.661 95.443 139.817C95.7618 138.847 96.08 137.891 96.395 136.944C96.5544 136.472 96.7106 136.01 96.8645 135.556C97.0188 135.103 97.1705 134.66 97.3199 134.225L97.5363 133.592C97.68 133.172 97.8152 132.778 97.9418 132.409C97.9849 132.546 98.03 132.689 98.0774 132.838C98.1321 133.009 98.1895 133.187 98.2503 133.373C98.3109 133.559 98.3743 133.752 98.441 133.951L99.7727 138.02C99.9337 138.514 100.099 139.017 100.27 139.529C100.565 140.42 100.861 141.332 101.15 142.246ZM105.232 145.144C104.961 144.291 104.683 143.433 104.399 142.567C104.115 141.701 103.824 140.829 103.525 139.949C103 138.391 102.439 136.753 101.759 134.792C101.322 133.538 100.901 132.371 100.506 131.322C100.374 130.971 100.244 130.632 100.121 130.315C100.053 130.115 99.9385 129.942 99.7827 129.801C99.7076 129.733 99.621 129.671 99.5247 129.617C99.4323 129.565 99.3292 129.52 99.2178 129.482C99.0097 129.41 98.7956 129.356 98.5817 129.32C97.9975 129.223 97.383 129.258 96.8117 129.41C96.451 129.506 96.1843 129.601 95.9966 129.7L95.9144 129.744L95.8803 129.835C95.6262 130.511 95.3595 131.231 95.0806 131.995C94.9418 132.377 94.7992 132.77 94.6539 133.174C94.5087 133.577 94.3605 133.992 94.2095 134.417C93.9061 135.269 93.6059 136.118 93.3084 136.963C93.0114 137.808 92.7167 138.65 92.424 139.489C91.8424 141.168 91.2962 142.767 90.8005 144.241L90.1203 146.27C89.9165 146.879 89.7355 147.419 89.5764 147.891C89.4901 148.145 89.415 148.379 89.3516 148.592C89.3155 148.71 89.2881 148.83 89.2698 148.949C89.2524 149.065 89.2437 149.182 89.2437 149.299C89.2437 149.817 89.4137 150.2 89.7464 150.438C89.8231 150.493 89.9016 150.542 89.9834 150.583C90.2276 150.708 90.4987 150.771 90.7892 150.771C91.2308 150.771 91.606 150.697 91.9364 150.546L92.0385 150.499L92.0717 150.386C92.1651 150.066 92.2813 149.701 92.4169 149.301C92.4913 149.079 92.5673 148.851 92.6443 148.613C92.7216 148.376 92.7998 148.13 92.8797 147.875C93.0388 147.369 93.2037 146.85 93.3734 146.32C93.501 145.925 93.6204 145.558 93.7357 145.205L93.7947 145.024H101.98L103.358 149.348C103.523 149.852 103.724 150.203 103.97 150.421C104.036 150.481 104.111 150.535 104.191 150.58C104.42 150.706 104.709 150.771 105.049 150.771C105.386 150.771 105.69 150.699 105.953 150.558C106.082 150.49 106.205 150.409 106.318 150.318C106.431 150.226 106.536 150.122 106.631 150.008L106.723 149.898L106.679 149.758C106.253 148.384 105.773 146.844 105.232 145.144Z" fill="#97724A"/>
<path fill-rule="evenodd" clip-rule="evenodd" d="M121.403 129.883C121.37 129.781 121.334 129.69 121.3 129.61C121.264 129.526 121.228 129.453 121.193 129.39L121.123 129.266H107.271C106.88 129.266 106.573 129.403 106.362 129.672C106.155 129.926 106.05 130.276 106.05 130.712C106.05 130.991 106.086 131.231 106.16 131.44C106.228 131.647 106.297 131.808 106.369 131.933L106.439 132.055H112.257V148.6C112.257 149.152 112.469 150.077 113.891 150.077C114.015 150.077 114.141 150.07 114.263 150.055C114.386 150.04 114.507 150.017 114.628 149.988C114.804 149.945 114.943 149.905 115.049 149.868C115.088 149.854 115.123 149.84 115.154 149.827L115.303 149.763V132.055H120.289C120.382 132.055 120.472 132.046 120.556 132.03C120.734 131.995 120.891 131.924 121.024 131.817C121.09 131.763 121.152 131.699 121.205 131.629C121.309 131.494 121.388 131.334 121.439 131.155C121.464 131.068 121.483 130.974 121.494 130.878C121.506 130.784 121.513 130.683 121.513 130.577C121.513 130.334 121.476 130.101 121.403 129.883Z" fill="#97724A"/>
<path fill-rule="evenodd" clip-rule="evenodd" d="M134.091 142.246H127.599C127.844 141.471 128.107 140.661 128.384 139.817C128.703 138.847 129.021 137.891 129.336 136.944L129.806 135.556C129.96 135.103 130.112 134.66 130.261 134.225L130.477 133.592C130.621 133.172 130.756 132.778 130.883 132.409C130.926 132.546 130.971 132.689 131.019 132.838C131.073 133.009 131.131 133.187 131.191 133.374L132.714 138.02C132.875 138.514 133.04 139.017 133.211 139.529C133.503 140.41 133.799 141.322 134.091 142.246ZM138.173 145.144C137.902 144.291 137.625 143.433 137.34 142.567C137.056 141.701 136.764 140.829 136.466 139.949C135.939 138.387 135.378 136.748 134.7 134.792C134.264 133.54 133.843 132.372 133.447 131.322C133.315 130.971 133.185 130.632 133.062 130.316C132.994 130.116 132.88 129.942 132.724 129.802C132.649 129.734 132.562 129.671 132.465 129.617C132.374 129.566 132.271 129.52 132.159 129.482C131.951 129.411 131.737 129.356 131.523 129.321C130.939 129.223 130.324 129.257 129.753 129.41C129.392 129.506 129.125 129.601 128.938 129.701L128.856 129.744L128.822 129.835C128.694 130.173 128.451 130.841 128.149 131.68L127.787 132.685C127.491 133.509 127.166 134.417 126.85 135.303L125.661 138.648C125.539 138.992 125.439 139.279 125.365 139.489C124.784 141.168 124.237 142.767 123.742 144.241L123.062 146.27C122.858 146.879 122.677 147.419 122.517 147.891C122.432 148.146 122.356 148.379 122.293 148.592C122.257 148.711 122.229 148.831 122.211 148.949C122.194 149.065 122.185 149.182 122.185 149.299C122.185 149.817 122.355 150.2 122.688 150.438C122.764 150.493 122.843 150.542 122.925 150.583C123.169 150.708 123.44 150.771 123.73 150.771C124.172 150.771 124.547 150.697 124.878 150.546L124.98 150.499L125.013 150.386C125.105 150.07 125.221 149.705 125.358 149.301C125.432 149.08 125.508 148.85 125.585 148.613C125.663 148.376 125.741 148.13 125.821 147.875C125.98 147.369 126.145 146.85 126.315 146.321C126.442 145.925 126.562 145.558 126.677 145.206L126.735 145.027L134.921 145.024L136.299 149.348C136.464 149.851 136.665 150.203 136.911 150.421C136.977 150.481 137.052 150.534 137.133 150.58C137.361 150.706 137.65 150.771 137.991 150.771C138.327 150.771 138.631 150.699 138.894 150.558C139.023 150.49 139.146 150.409 139.259 150.318C139.371 150.226 139.476 150.122 139.572 150.008L139.664 149.898L139.62 149.758C139.195 148.384 138.714 146.844 138.173 145.144Z" fill="#97724A"/>
<path fill-rule="evenodd" clip-rule="evenodd" d="M157.485 128.604C157.21 128.604 156.95 128.635 156.711 128.697C156.599 128.727 156.5 128.754 156.411 128.781C156.32 128.807 156.241 128.833 156.172 128.857L156.005 128.917V135.937C156.005 136.818 156.009 137.712 156.017 138.615C156.026 139.519 156.039 140.434 156.055 141.359C156.063 141.823 156.075 142.287 156.092 142.75C156.13 143.803 156.193 144.867 156.278 145.924C156.231 145.827 156.182 145.727 156.131 145.623C155.902 145.159 155.659 144.663 155.401 144.134C155.147 143.616 154.873 143.078 154.585 142.535C154.444 142.269 154.306 142.01 154.17 141.759C154.035 141.507 153.902 141.262 153.77 141.021L147.576 130.192C147.496 130.045 147.413 129.907 147.328 129.781C147.244 129.654 147.155 129.537 147.065 129.432C146.879 129.217 146.681 129.047 146.473 128.925C146.069 128.691 145.581 128.572 145.024 128.572C144.178 128.572 143.53 128.803 143.097 129.258L143.025 129.333V148.568C143.025 149.119 143.243 150.043 144.699 150.043C144.827 150.043 144.955 150.035 145.081 150.019C145.206 150.004 145.33 149.981 145.452 149.951C145.631 149.907 145.775 149.866 145.885 149.828C145.925 149.814 145.962 149.8 145.994 149.786L146.146 149.721V139.427C146.146 139.115 146.144 138.799 146.14 138.479C146.127 137.526 146.096 136.514 146.048 135.469C146.002 134.486 145.945 133.572 145.877 132.741L146.021 133.041C146.135 133.279 146.255 133.523 146.38 133.772C146.504 134.021 146.634 134.277 146.77 134.539C146.905 134.799 147.044 135.061 147.185 135.327C147.326 135.592 147.469 135.861 147.617 136.133C147.763 136.404 147.905 136.664 148.044 136.913C148.182 137.162 148.316 137.4 148.445 137.628L154.608 148.456C154.686 148.601 154.769 148.74 154.855 148.869C155.026 149.124 155.211 149.338 155.404 149.503C155.503 149.588 155.606 149.662 155.711 149.724C156.115 149.958 156.603 150.077 157.161 150.077C157.353 150.077 157.543 150.064 157.723 150.036C157.902 150.009 158.076 149.967 158.242 149.913C158.407 149.857 158.56 149.79 158.697 149.712C158.838 149.632 158.965 149.54 159.077 149.438L159.16 149.361V130.082C159.16 129.846 159.123 129.634 159.052 129.452C158.833 128.889 158.306 128.604 157.485 128.604Z" fill="#97724A"/>
<path fill-rule="evenodd" clip-rule="evenodd" d="M179.724 138.938C179.662 138.85 179.589 138.766 179.508 138.691C179.429 138.618 179.344 138.553 179.255 138.497C178.986 138.33 178.678 138.245 178.337 138.245H172.841C172.438 138.245 172.119 138.38 171.892 138.649C171.838 138.714 171.789 138.787 171.747 138.867C171.668 139.018 171.615 139.194 171.588 139.389C171.576 139.483 171.57 139.582 171.57 139.688C171.57 139.811 171.579 139.933 171.598 140.048C171.617 140.162 171.645 140.275 171.683 140.385C171.756 140.597 171.83 140.759 171.906 140.882L171.98 140.999H176.835V146.685C176.783 146.708 176.728 146.731 176.671 146.753C176.559 146.796 176.437 146.837 176.307 146.877C176.041 146.956 175.735 147.03 175.395 147.093C174.715 147.223 173.977 147.289 173.202 147.289C172.137 147.289 171.141 147.132 170.24 146.822C169.345 146.515 168.556 146.038 167.896 145.404C167.732 145.247 167.574 145.075 167.427 144.894C167.28 144.715 167.141 144.522 167.012 144.319C166.755 143.914 166.53 143.457 166.345 142.962C165.973 141.974 165.785 140.761 165.785 139.356C165.785 138.369 165.888 137.458 166.091 136.649C166.159 136.38 166.239 136.116 166.329 135.864C166.419 135.614 166.519 135.371 166.626 135.141C166.945 134.46 167.347 133.864 167.821 133.371C168.453 132.715 169.209 132.21 170.068 131.872C170.937 131.533 171.892 131.361 172.907 131.361C173.218 131.361 173.518 131.371 173.799 131.392C174.079 131.413 174.349 131.444 174.601 131.486C174.727 131.507 174.85 131.53 174.969 131.555C175.205 131.606 175.429 131.668 175.637 131.739C175.739 131.775 175.839 131.813 175.935 131.852C176.73 132.189 177.425 132.555 177.999 132.941L178.115 133.02L178.243 132.961C178.312 132.929 178.379 132.893 178.443 132.853C178.508 132.813 178.57 132.77 178.631 132.722C178.75 132.628 178.86 132.517 178.961 132.391C179.118 132.192 179.217 131.96 179.257 131.703C179.27 131.619 179.276 131.531 179.276 131.441C179.276 131.344 179.264 131.245 179.24 131.147C179.194 130.96 179.102 130.774 178.968 130.593C178.905 130.508 178.829 130.421 178.743 130.334C178.66 130.251 178.569 130.169 178.47 130.089C178.276 129.933 178.048 129.783 177.792 129.642C177.665 129.572 177.53 129.504 177.387 129.437C176.817 129.176 176.127 128.964 175.34 128.808C175.14 128.769 174.937 128.734 174.729 128.705C174.111 128.617 173.442 128.572 172.742 128.572C171.703 128.572 170.696 128.697 169.748 128.943C169.43 129.025 169.113 129.123 168.807 129.232C167.884 129.56 167.032 130.024 166.274 130.612C166.023 130.806 165.777 131.018 165.545 131.241C165.427 131.354 165.313 131.47 165.202 131.589C165.091 131.709 164.983 131.832 164.878 131.959C164.254 132.714 163.733 133.61 163.328 134.625C162.792 135.977 162.521 137.568 162.521 139.356C162.521 140.714 162.667 141.956 162.956 143.046C163.052 143.411 163.166 143.766 163.295 144.101C163.552 144.772 163.867 145.394 164.232 145.952C164.597 146.508 165.023 147.015 165.496 147.458C166.087 148.011 166.757 148.481 167.486 148.856C167.924 149.08 168.392 149.275 168.882 149.437C169.044 149.49 169.208 149.54 169.375 149.586C169.706 149.679 170.051 149.76 170.398 149.826C170.574 149.86 170.75 149.89 170.929 149.917C171.462 149.997 172.022 150.047 172.592 150.067C172.783 150.074 172.976 150.077 173.171 150.077C174.164 150.077 175.166 149.976 176.148 149.775C176.637 149.674 177.079 149.563 177.462 149.445C177.852 149.326 178.193 149.195 178.483 149.054C178.964 148.802 179.337 148.528 179.595 148.237C179.798 148.002 179.925 147.721 179.976 147.402C179.992 147.298 180 147.189 180 147.077V139.888C180 139.521 179.907 139.201 179.724 138.938Z" fill="#97724A"/>
<path fill-rule="evenodd" clip-rule="evenodd" d="M87.5194 120.306L87.4448 120.21H76.4961L86.9383 105.55C87.1637 105.23 87.3412 104.937 87.4646 104.681C87.6019 104.403 87.6715 104.083 87.6715 103.731C87.6715 103.442 87.6002 103.165 87.4613 102.91C87.3316 102.666 87.166 102.452 86.9693 102.274L86.8991 102.21H73.9558C73.5588 102.21 73.2388 102.345 73.0019 102.613C72.7782 102.874 72.6647 103.228 72.6647 103.665C72.6647 103.946 72.7089 104.198 72.7956 104.412C72.8709 104.599 72.9481 104.763 73.0253 104.897L73.0972 105.021H83.6094L73.1665 119.683C72.9395 120.009 72.7676 120.292 72.6399 120.551C72.5053 120.829 72.437 121.148 72.437 121.498C72.437 121.783 72.5066 122.06 72.6455 122.325C72.7821 122.575 72.9487 122.788 73.1408 122.959L73.2107 123.022H86.642C87.0165 123.022 87.325 122.887 87.5619 122.619C87.786 122.358 87.8992 122.003 87.8992 121.564C87.8992 121.283 87.8622 121.042 87.7867 120.829C87.7118 120.613 87.6243 120.442 87.5194 120.306Z" fill="#97724A"/>
<path fill-rule="evenodd" clip-rule="evenodd" d="M92.4046 122.548L92.4056 122.549C92.5641 122.706 92.7501 122.826 92.9586 122.905C93.1638 122.983 93.3948 123.022 93.6446 123.022H104.099C104.506 123.022 104.828 122.885 105.057 122.613C105.166 122.481 105.249 122.323 105.302 122.143C105.353 121.973 105.378 121.778 105.378 121.565C105.378 121.429 105.369 121.301 105.351 121.184C105.333 121.062 105.304 120.947 105.264 120.84C105.189 120.645 105.118 120.49 105.046 120.367L104.973 120.242H95.1248V113.738H102.905C103.31 113.738 103.631 113.601 103.86 113.33C103.97 113.198 104.053 113.039 104.107 112.86C104.159 112.689 104.185 112.494 104.185 112.28C104.185 112.158 104.175 112.036 104.156 111.919C104.137 111.804 104.108 111.69 104.071 111.581C104 111.376 103.928 111.213 103.852 111.083L103.779 110.958H95.1248V105.021H103.933C104.237 105.021 104.496 104.94 104.703 104.78C104.773 104.726 104.837 104.663 104.895 104.591C104.949 104.522 104.997 104.447 105.037 104.367C105.153 104.135 105.212 103.854 105.212 103.532C105.212 103.279 105.175 103.043 105.099 102.825C105.05 102.689 104.997 102.565 104.922 102.417C104.908 102.388 104.894 102.359 104.88 102.335L104.807 102.21H93.6446C93.3931 102.21 93.1624 102.249 92.9586 102.326C92.7491 102.405 92.5627 102.526 92.4046 102.685C92.3253 102.764 92.2555 102.852 92.1964 102.944C92.0214 103.217 91.9328 103.55 91.9328 103.932V121.3C91.9328 121.681 92.0214 122.013 92.196 122.287C92.2551 122.38 92.3253 122.468 92.4046 122.548Z" fill="#97724A"/>
<path fill-rule="evenodd" clip-rule="evenodd" d="M109.724 122.905H109.724C110.021 122.989 110.415 123.013 110.795 122.967C110.92 122.951 111.044 122.928 111.169 122.898L111.475 122.814C111.567 122.786 111.643 122.76 111.704 122.736L111.861 122.672V112.371C111.861 111.155 111.827 109.823 111.762 108.413C111.746 108.066 111.728 107.727 111.709 107.399C111.675 106.801 111.636 106.228 111.591 105.687C111.638 105.783 111.686 105.883 111.736 105.986C111.906 106.342 112.094 106.718 112.289 107.1L112.484 107.483C112.756 108.004 113.037 108.537 113.33 109.077C113.477 109.35 113.62 109.611 113.758 109.86C113.896 110.109 114.031 110.347 114.16 110.572L120.323 121.401C120.648 122.008 121.019 122.434 121.425 122.668C121.824 122.903 122.312 123.022 122.876 123.022C123.271 123.022 123.634 122.967 123.956 122.858C124.291 122.745 124.572 122.585 124.791 122.382L124.874 122.306V103.026C124.874 102.475 124.657 101.551 123.2 101.551C122.925 101.551 122.665 101.583 122.428 101.644C122.316 101.672 122.215 101.7 122.126 101.726C122.037 101.753 121.958 101.778 121.89 101.8L121.719 101.858V108.884C121.719 110.076 121.729 111.363 121.751 112.934L121.756 113.343C121.76 113.663 121.764 113.982 121.77 114.306C121.795 115.822 121.87 117.353 121.993 118.871L121.845 118.567C121.731 118.337 121.613 118.098 121.491 117.85C121.37 117.602 121.245 117.345 121.115 117.079C120.86 116.56 120.586 116.022 120.3 115.479L119.885 114.705C119.75 114.454 119.617 114.209 119.484 113.966L113.29 103.136C113.21 102.989 113.127 102.85 113.043 102.725C112.871 102.469 112.686 102.255 112.495 102.091C112.397 102.006 112.293 101.932 112.188 101.87C111.784 101.635 111.296 101.516 110.738 101.516C109.896 101.516 109.248 101.747 108.812 102.202L108.74 102.277V121.512C108.74 121.628 108.748 121.739 108.766 121.843C108.856 122.385 109.187 122.752 109.724 122.905Z" fill="#97724A"/>
<path fill-rule="evenodd" clip-rule="evenodd" d="M90.8962 98.1913C88.4049 94.4087 84.9419 91.3676 80.882 89.3967C80.7728 89.3438 80.6649 89.2885 80.5567 89.2333C80.3598 89.1325 80.1625 89.0318 79.9587 88.9438C77.4421 87.8508 74.7214 87.2061 71.8717 87.027C71.6543 87.0136 71.4362 87.0009 71.2168 86.9929C71.1028 86.9889 70.9897 86.9808 70.8763 86.9728C70.7031 86.9604 70.5298 86.9484 70.3537 86.9484C68.879 86.9484 67.3967 87.0946 65.8219 87.3956C65.7471 87.41 65.6714 87.4217 65.596 87.4337C65.4872 87.4511 65.3786 87.4686 65.272 87.4917C53.8419 89.9523 45.5462 100.469 45.5462 112.498C45.5462 124.56 53.8972 135.067 65.4027 137.48L65.9278 137.59L65.5541 136.25L65.364 136.208C54.5777 133.804 46.7489 123.832 46.7489 112.498C46.7489 101.018 54.6693 91.0038 65.5821 88.6873C65.674 88.6676 65.7683 88.6545 65.8625 88.6412C65.9493 88.6288 66.036 88.6164 66.1215 88.6003C67.6057 88.3221 68.9898 88.1869 70.3537 88.1869C70.5779 88.1869 70.7973 88.2023 71.0297 88.2187C71.1645 88.2281 71.2994 88.2375 71.4349 88.2438L71.587 88.2508C71.7501 88.2579 71.9139 88.2649 72.0761 88.2773C74.9151 88.4898 77.6602 89.2209 80.2343 90.4501L80.3243 90.4929C80.648 90.6473 80.9827 90.8069 81.2993 90.979C84.4028 92.6601 87.1648 95.1027 89.2863 98.0424L89.4913 98.3229C89.6099 98.4839 89.722 98.6399 89.8312 98.7972H91.2605C91.2563 98.7898 91.252 98.7825 91.2478 98.7751C91.1344 98.5776 91.021 98.3804 90.8962 98.1913Z" fill="#97724A"/>
<path fill-rule="evenodd" clip-rule="evenodd" d="M98.9265 93.9644C98.8524 93.8355 98.7781 93.7067 98.6991 93.5816C95.1848 88.0252 90.23 83.655 84.3706 80.9434C84.2759 80.8997 84.1834 80.852 84.0905 80.8046C83.966 80.7405 83.8412 80.6771 83.7118 80.6207C81.6809 79.736 79.5364 79.0575 77.338 78.6036C77.2296 78.5813 77.119 78.5656 77.0084 78.5502C76.9263 78.5389 76.8438 78.5279 76.763 78.5125C74.6728 78.1204 72.7208 77.9298 70.795 77.9298C70.7015 77.9298 70.6096 77.9365 70.5178 77.9432C70.4489 77.9485 70.38 77.9538 70.3102 77.9548C70.2028 77.9565 70.0964 77.9635 69.99 77.9705C69.9108 77.9759 69.8312 77.9812 69.751 77.9839C67.9287 78.0426 66.1758 78.2358 64.5404 78.5579C64.4625 78.5732 64.3836 78.5859 64.3047 78.5989C64.1989 78.6163 64.0935 78.6337 63.989 78.656C48.6282 81.9593 37.479 96.1129 37.479 112.31C37.479 130.529 51.3085 145.583 68.9632 146.583L69.4173 146.609L69.0644 145.342L68.8365 145.327C51.924 144.264 38.6759 129.761 38.6759 112.31C38.6759 96.733 49.3956 83.0957 64.1653 79.8831C64.2681 79.8608 64.3719 79.8421 64.4757 79.8231C64.5498 79.8094 64.6239 79.796 64.6979 79.7814C66.2907 79.4636 68.0082 79.2738 69.8028 79.217C69.8901 79.214 69.9768 79.2083 70.0634 79.2027C70.1595 79.196 70.2552 79.1893 70.3525 79.188C70.4302 79.187 70.5065 79.1813 70.5831 79.1756C70.6533 79.1703 70.7235 79.1646 70.795 79.1646C72.7105 79.1646 74.7081 79.3635 76.7322 79.7563C76.8238 79.774 76.9166 79.7877 77.0094 79.8011C77.1058 79.8151 77.2021 79.8291 77.2963 79.8491C79.4346 80.3043 81.5787 81.0165 83.6698 81.965C83.8066 82.027 83.9395 82.0958 84.0728 82.1642C84.1724 82.2153 84.2723 82.2667 84.3732 82.3154C89.685 84.8871 94.2071 88.8716 97.4505 93.8382V93.8385C97.5204 93.945 97.5831 94.0568 97.6462 94.1683C97.7024 94.2677 97.7587 94.3675 97.8192 94.4643C98.6836 95.8533 99.4245 97.258 100.043 98.6503H101.345C100.718 97.1719 99.9575 95.6827 99.0756 94.22C99.0245 94.1356 98.9753 94.0498 98.9265 93.9644Z" fill="#97724A"/>
<path fill-rule="evenodd" clip-rule="evenodd" d="M112.054 98.4638C112.022 98.3793 111.992 98.2945 111.963 98.2083C111.35 96.3376 110.586 94.4582 109.693 92.6226C109.658 92.5491 109.624 92.4746 109.59 92.4002C109.545 92.3023 109.501 92.2041 109.453 92.1083C104.354 81.9542 95.4137 74.0706 84.9235 70.4788C84.846 70.4524 84.7705 70.422 84.695 70.3917C84.5974 70.3526 84.4999 70.3138 84.3994 70.2811C82.6869 69.7203 80.8185 69.2658 78.6873 68.891C78.5742 68.871 78.4607 68.8539 78.347 68.8366L78.1363 68.8042C75.7925 68.4244 73.6797 68.2354 71.6772 68.2264C71.6538 68.226 71.6308 68.224 71.6081 68.2224C71.4941 68.2133 71.378 68.2176 71.2646 68.2274C71.2105 68.2314 71.1564 68.2361 71.1016 68.2364C69.4286 68.2518 67.6649 68.3924 65.7103 68.6666C65.5914 68.6829 65.4731 68.7026 65.3551 68.722L65.1357 68.7571C55.1193 70.3051 45.918 75.5165 39.2274 83.4304C32.464 91.4303 28.7395 101.671 28.7395 112.267C28.7395 136.558 47.916 156.321 71.4873 156.321C73.0837 156.321 74.8001 156.186 76.8886 155.897L77.2606 155.846L76.9343 154.676L76.6588 154.712C74.6941 154.966 73.0507 155.085 71.4873 155.085C48.5772 155.085 29.9386 135.877 29.9386 112.267C29.9386 102 33.5396 92.0695 40.0782 84.3048C46.5461 76.6243 55.4486 71.5459 65.1461 70.0052L65.3101 69.9785C65.4439 69.9568 65.5774 69.9351 65.7116 69.9157C67.5988 69.6435 69.3171 69.5009 70.9645 69.4798C71.0556 69.4785 71.1453 69.4718 71.2348 69.4652C71.3187 69.4588 71.4108 69.4588 71.4856 69.4525L71.5352 69.4548C73.4811 69.4571 75.5624 69.6408 77.8978 70.0162L78.1072 70.0483C78.2183 70.0653 78.3295 70.082 78.4407 70.1017C80.5343 70.4675 82.3742 70.915 84.0649 71.4695C84.1525 71.4982 84.237 71.5326 84.3223 71.5663C84.4075 71.6004 84.4927 71.6344 84.5802 71.6645C94.7561 75.1591 103.431 82.8115 108.38 92.6597C108.424 92.7472 108.465 92.837 108.506 92.9269C108.543 93.008 108.58 93.0885 108.618 93.1684C109.49 94.9602 110.231 96.7862 110.826 98.5964H112.101L112.054 98.4638Z" fill="#97724A"/>
<path fill-rule="evenodd" clip-rule="evenodd" d="M128.623 101.936L128.761 101.791H128.382L128.623 101.936Z" fill="#97724A"/>
<path fill-rule="evenodd" clip-rule="evenodd" d="M100.787 51.2078C113.864 51.2078 124.504 62.1491 124.504 75.5977C124.504 82.1926 121.968 88.3424 117.362 92.9793C116.607 91.0063 115.847 89.2835 115.048 87.7369C117.804 84.3185 119.322 80.018 119.322 75.5977C119.322 65.0854 111.007 56.5332 100.787 56.5332C95.4746 56.5332 90.4257 58.8969 86.8931 63.0202C84.9732 62.3353 83.2072 61.808 81.518 61.4139C85.9825 55.0149 93.1479 51.2078 100.787 51.2078ZM88.1126 63.4795C91.3991 59.8456 95.9884 57.766 100.787 57.766C110.346 57.766 118.123 65.7653 118.123 75.5977C118.123 79.5743 116.811 83.4547 114.425 86.583C108.58 75.9541 99.2661 67.7766 88.1126 63.4795ZM100.787 37C85.7697 37 72.2561 46.1635 66.3035 60.3629C53.7653 61.4256 42.1246 67.246 33.5087 76.7666C24.7976 86.3924 20 98.9217 20 112.046C20 140.667 42.6425 163.952 70.4736 163.952C81.1665 163.952 91.4386 160.472 100.179 153.888L100.362 153.75L100.01 152.494L99.635 152.778C91.0723 159.282 80.9883 162.719 70.4736 162.719C43.3033 162.719 21.1985 139.987 21.1985 112.046C21.1985 99.2791 25.8532 87.0783 34.3052 77.6916C42.7067 68.3616 54.084 62.6427 66.3417 61.5885C66.4434 61.5798 66.5461 61.5758 66.6491 61.5718C66.7447 61.5681 66.8402 61.5645 66.9348 61.5575L67.306 61.5298C68.34 61.4525 69.4089 61.3729 70.4736 61.3729C70.9206 61.3729 71.3728 61.4046 71.8101 61.4352C72.0825 61.4542 72.3549 61.4732 72.629 61.4855C72.8272 61.4945 73.0248 61.5052 73.2224 61.5165C75.7571 61.6614 77.9785 61.9322 80.0146 62.3449C80.0992 62.3623 80.1844 62.3783 80.2696 62.3939C80.3761 62.4139 80.4827 62.4335 80.5883 62.4562C82.4029 62.8469 84.338 63.4112 86.5047 64.181C86.6054 64.217 86.7052 64.2553 86.8049 64.294C86.8833 64.3239 86.9614 64.3543 87.0401 64.3832C98.4404 68.5881 107.912 76.8948 113.71 87.7735C113.76 87.8664 113.806 87.961 113.853 88.056C113.893 88.1399 113.934 88.2235 113.977 88.3061C114.862 90.0137 115.686 91.9094 116.498 94.1016C116.544 94.2248 116.587 94.3487 116.631 94.473L116.701 94.6709C117.104 95.8014 117.484 97.0303 117.858 98.4117H119.098C118.692 96.878 118.273 95.5043 117.821 94.2335C122.83 89.3891 125.702 82.612 125.702 75.5977C125.702 61.4692 114.525 49.9749 100.787 49.9749C92.5694 49.9749 84.9068 54.1408 80.2414 61.1268C78.3879 60.7543 76.3482 60.4939 74.0319 60.3336C79.4546 50.3167 89.6571 44.1135 100.787 44.1135C117.668 44.1135 131.402 58.2374 131.402 75.5977C131.402 84.0956 127.927 92.3834 121.868 98.3357L121.791 98.4117H123.518C129.382 92.2828 132.601 84.2189 132.601 75.5977C132.601 57.5562 118.329 42.878 100.787 42.878C89.0128 42.878 78.2784 49.5316 72.7171 60.2544C72.5052 60.242 72.294 60.2294 72.0829 60.2144C71.56 60.1781 71.0198 60.1401 70.4736 60.1401C69.5527 60.1401 68.6377 60.206 67.753 60.27L67.6646 60.2763C73.5502 46.8657 86.492 38.2325 100.787 38.2325C120.822 38.2325 137.121 54.9946 137.121 75.5977C137.121 83.8948 134.438 91.8767 129.51 98.4117H130.996C135.742 91.7998 138.319 83.8421 138.319 75.5977C138.319 54.3147 121.482 37 100.787 37Z" fill="#97724A"/>
</svg>
